Playfair Display-SemiBold.ufo
<glyph name="exclam" format="1">
  <advance width="274"/>
  <unicode hex="0021"/>
  <outline>
    <contour>
      <point x="101" y="782"/>
      <point x="75" y="757"/>
      <point x="75" y="707" type="curve" smooth="yes"/>
      <point x="75" y="598"/>
      <point x="125" y="401"/>
      <point x="128" y="196" type="curve"/>
      <point x="146" y="196" type="line"/>
      <point x="146" y="196" type="line"/>
      <point x="149" y="401"/>
      <point x="199" y="598"/>
      <point x="199" y="707" type="curve" smooth="yes"/>
      <point x="199" y="757"/>
      <point x="170" y="782"/>
      <point x="137" y="782" type="curve" smooth="yes"/>
    </contour>
    <component base="period" xOffset="7"/>
  </outline>
</glyph>
<glyph name="numbersign" format="1">
  <advance width="630"/>
  <unicode hex="0023"/>
  <outline>
    <contour>
      <point x="447" y="602" type="line"/>
      <point x="350" y="101" type="line"/>
      <point x="370" y="101" type="line"/>
      <point x="467" y="602" type="line"/>
    </contour>
    <contour>
      <point x="48" y="267" type="line"/>
      <point x="44" y="247" type="line"/>
      <point x="545" y="247" type="line"/>
      <point x="549" y="267" type="line"/>
    </contour>
    <contour>
      <point x="260" y="602" type="line"/>
      <point x="163" y="101" type="line"/>
      <point x="183" y="101" type="line"/>
      <point x="280" y="602" type="line"/>
    </contour>
    <contour>
      <point x="84" y="454" type="line"/>
      <point x="81" y="434" type="line"/>
      <point x="582" y="434" type="line"/>
      <point x="585" y="454" type="line"/>
    </contour>
  </outline>
</glyph>
<glyph name="dollar" format="1">
  <advance width="546"/>
  <unicode hex="0024"/>
  <outline>
    <contour>
      <point x="154" y="720"/>
      <point x="57" y="664"/>
      <point x="57" y="543" type="curve" smooth="yes"/>
      <point x="57" y="430"/>
      <point x="140" y="374"/>
      <point x="235" y="316" type="curve" smooth="yes"/>
      <point x="358" y="236"/>
      <point x="406" y="197"/>
      <point x="406" y="127" type="curve" smooth="yes"/>
      <point x="406" y="46"/>
      <point x="350" y="7"/>
      <point x="273" y="7" type="curve" smooth="yes"/>
      <point x="140" y="7"/>
      <point x="90" y="98"/>
      <point x="79" y="246" type="curve"/>
      <point x="56" y="246" type="line"/>
      <point x="56" y="97"/>
      <point x="55" y="37"/>
      <point x="52" y="-7" type="curve"/>
      <point x="75" y="-7" type="line"/>
      <point x="79" y="22"/>
      <point x="84" y="37"/>
      <point x="97" y="37" type="curve" smooth="yes"/>
      <point x="107" y="37"/>
      <point x="118" y="32"/>
      <point x="135" y="23" type="curve" smooth="yes"/>
      <point x="163" y="7"/>
      <point x="202" y="-14"/>
      <point x="279" y="-14" type="curve" smooth="yes"/>
      <point x="403" y="-14"/>
      <point x="507" y="49"/>
      <point x="507" y="178" type="curve" smooth="yes"/>
      <point x="507" y="286"/>
      <point x="432" y="340"/>
      <point x="332" y="403" type="curve" smooth="yes"/>
      <point x="209" y="481"/>
      <point x="152" y="516"/>
      <point x="152" y="593" type="curve" smooth="yes"/>
      <point x="152" y="656"/>
      <point x="198" y="699"/>
      <point x="273" y="699" type="curve" smooth="yes"/>
      <point x="389" y="699"/>
      <point x="434" y="605"/>
      <point x="445" y="497" type="curve"/>
      <point x="468" y="497" type="line"/>
      <point x="468" y="630"/>
      <point x="470" y="675"/>
      <point x="473" y="712" type="curve"/>
      <point x="450" y="712" type="line"/>
      <point x="446" y="683"/>
      <point x="441" y="668"/>
      <point x="428" y="668" type="curve" smooth="yes"/>
      <point x="419" y="668"/>
      <point x="410" y="672"/>
      <point x="394" y="682" type="curve" smooth="yes"/>
      <point x="365" y="700"/>
      <point x="332" y="720"/>
      <point x="261" y="720" type="curve" smooth="yes"/>
    </contour>
    <contour>
      <point x="223" y="840" type="line"/>
      <point x="223" y="-132" type="line"/>
      <point x="243" y="-132" type="line"/>
      <point x="243" y="840" type="line"/>
    </contour>
    <contour>
      <point x="313" y="840" type="line"/>
      <point x="313" y="-132" type="line"/>
      <point x="333" y="-132" type="line"/>
      <point x="333" y="840" type="line"/>
    </contour>
  </outline>
</glyph>
<glyph name="percent" format="1">
  <advance width="736"/>
  <unicode hex="0025"/>
  <outline>
    <contour>
      <point x="100" y="761"/>
      <point x="34" y="693"/>
      <point x="34" y="593" type="curve" smooth="yes"/>
      <point x="34" y="490"/>
      <point x="97" y="430"/>
      <point x="189" y="430" type="curve" smooth="yes"/>
      <point x="279" y="430"/>
      <point x="344" y="497"/>
      <point x="344" y="598" type="curve" smooth="yes"/>
      <point x="344" y="701"/>
      <point x="282" y="761"/>
      <point x="189" y="761" type="curve" smooth="yes"/>
    </contour>
    <contour>
      <point x="590" y="299"/>
      <point x="618" y="250"/>
      <point x="618" y="152" type="curve" smooth="yes"/>
      <point x="618" y="56"/>
      <point x="596" y="4"/>
      <point x="547" y="4" type="curve" smooth="yes"/>
      <point x="501" y="4"/>
      <point x="472" y="53"/>
      <point x="472" y="150" type="curve" smooth="yes"/>
      <point x="472" y="247"/>
      <point x="495" y="299"/>
      <point x="543" y="299" type="curve" smooth="yes"/>
    </contour>
    <contour>
      <point x="456" y="317"/>
      <point x="390" y="249"/>
      <point x="390" y="149" type="curve" smooth="yes"/>
      <point x="390" y="46"/>
      <point x="453" y="-14"/>
      <point x="545" y="-14" type="curve" smooth="yes"/>
      <point x="635" y="-14"/>
      <point x="700" y="53"/>
      <point x="700" y="154" type="curve" smooth="yes"/>
      <point x="700" y="257"/>
      <point x="638" y="317"/>
      <point x="545" y="317" type="curve" smooth="yes"/>
    </contour>
    <contour>
      <point x="234" y="743"/>
      <point x="262" y="694"/>
      <point x="262" y="596" type="curve" smooth="yes"/>
      <point x="262" y="500"/>
      <point x="240" y="448"/>
      <point x="191" y="448" type="curve" smooth="yes"/>
      <point x="145" y="448"/>
      <point x="116" y="497"/>
      <point x="116" y="594" type="curve" smooth="yes"/>
      <point x="116" y="691"/>
      <point x="139" y="743"/>
      <point x="187" y="743" type="curve" smooth="yes"/>
    </contour>
    <component base="fraction" xOffset="340"/>
  </outline>
</glyph>
<glyph name="ampersand" format="1">
  <advance width="864"/>
  <unicode hex="0026"/>
  <outline>
    <contour>
      <point x="211" y="705"/>
      <point x="135" y="653"/>
      <point x="135" y="578" type="curve" smooth="yes"/>
      <point x="135" y="524"/>
      <point x="176" y="478"/>
      <point x="241" y="451" type="curve"/>
      <point x="188" y="437"/>
      <point x="48" y="382"/>
      <point x="48" y="235" type="curve" smooth="yes"/>
      <point x="48" y="81"/>
      <point x="198" y="-14"/>
      <point x="392" y="-14" type="curve" smooth="yes"/>
      <point x="591" y="-14"/>
      <point x="715" y="98"/>
      <point x="715" y="228" type="curve" smooth="yes"/>
      <point x="715" y="308"/>
      <point x="676" y="378"/>
      <point x="591" y="403" type="curve"/>
      <point x="581" y="394" type="line"/>
      <point x="673" y="362"/>
      <point x="683" y="287"/>
      <point x="683" y="252" type="curve" smooth="yes"/>
      <point x="683" y="138"/>
      <point x="552" y="73"/>
      <point x="414" y="73" type="curve" smooth="yes"/>
      <point x="252" y="73"/>
      <point x="136" y="144"/>
      <point x="136" y="280" type="curve" smooth="yes"/>
      <point x="136" y="368"/>
      <point x="185" y="416"/>
      <point x="255" y="443" type="curve"/>
      <point x="271" y="435"/>
      <point x="300" y="419"/>
      <point x="324" y="419" type="curve" smooth="yes"/>
      <point x="341" y="419"/>
      <point x="352" y="426"/>
      <point x="352" y="439" type="curve" smooth="yes"/>
      <point x="352" y="454"/>
      <point x="338" y="463"/>
      <point x="314" y="463" type="curve" smooth="yes"/>
      <point x="301" y="463"/>
      <point x="277" y="461"/>
      <point x="254" y="457" type="curve"/>
      <point x="218" y="493"/>
      <point x="209" y="532"/>
      <point x="209" y="565" type="curve" smooth="yes"/>
      <point x="209" y="647"/>
      <point x="260" y="690"/>
      <point x="329" y="690" type="curve" smooth="yes"/>
      <point x="364" y="690"/>
      <point x="392" y="678"/>
      <point x="400" y="664" type="curve"/>
      <point x="366" y="659"/>
      <point x="342" y="633"/>
      <point x="342" y="602" type="curve" smooth="yes"/>
      <point x="342" y="565"/>
      <point x="371" y="546"/>
      <point x="403" y="546" type="curve" smooth="yes"/>
      <point x="437" y="546"/>
      <point x="469" y="569"/>
      <point x="469" y="605" type="curve" smooth="yes"/>
      <point x="469" y="635"/>
      <point x="449" y="661"/>
      <point x="421" y="680" type="curve" smooth="yes"/>
      <point x="399" y="695"/>
      <point x="369" y="705"/>
      <point x="317" y="705" type="curve" smooth="yes"/>
    </contour>
    <contour>
      <point x="634" y="722"/>
      <point x="578" y="699"/>
      <point x="578" y="646" type="curve" smooth="yes"/>
      <point x="578" y="609"/>
      <point x="607" y="589"/>
      <point x="642" y="589" type="curve" smooth="yes"/>
      <point x="678" y="589"/>
      <point x="708" y="611"/>
      <point x="708" y="645" type="curve" smooth="yes"/>
      <point x="708" y="665"/>
      <point x="695" y="688"/>
      <point x="671" y="699" type="curve"/>
      <point x="675" y="703"/>
      <point x="686" y="706"/>
      <point x="700" y="706" type="curve" smooth="yes"/>
      <point x="760" y="706"/>
      <point x="815" y="665"/>
      <point x="815" y="609" type="curve" smooth="yes"/>
      <point x="815" y="568"/>
      <point x="780" y="540"/>
      <point x="700" y="512" type="curve" smooth="yes"/>
      <point x="638" y="486"/>
      <point x="550" y="466"/>
      <point x="498" y="450" type="curve" smooth="yes"/>
      <point x="386" y="421"/>
      <point x="322" y="372"/>
      <point x="322" y="287" type="curve" smooth="yes"/>
      <point x="322" y="203"/>
      <point x="390" y="165"/>
      <point x="457" y="165" type="curve" smooth="yes"/>
      <point x="522" y="165"/>
      <point x="586" y="194"/>
      <point x="586" y="253" type="curve" smooth="yes"/>
      <point x="586" y="289"/>
      <point x="562" y="314"/>
      <point x="523" y="314" type="curve" smooth="yes"/>
      <point x="485" y="314"/>
      <point x="457" y="292"/>
      <point x="457" y="255" type="curve" smooth="yes"/>
      <point x="457" y="223"/>
      <point x="479" y="205"/>
      <point x="505" y="198" type="curve"/>
      <point x="500" y="187"/>
      <point x="470" y="181"/>
      <point x="454" y="181" type="curve" smooth="yes"/>
      <point x="410" y="181"/>
      <point x="355" y="210"/>
      <point x="355" y="262" type="curve" smooth="yes"/>
      <point x="355" y="308"/>
      <point x="402" y="332"/>
      <point x="476" y="353" type="curve" smooth="yes"/>
      <point x="529" y="372"/>
      <point x="652" y="405"/>
      <point x="703" y="427" type="curve" smooth="yes"/>
      <point x="788" y="453"/>
      <point x="846" y="501"/>
      <point x="846" y="584" type="curve" smooth="yes"/>
      <point x="846" y="671"/>
      <point x="781" y="722"/>
      <point x="694" y="722" type="curve" smooth="yes"/>
    </contour>
  </outline>
</glyph>
<glyph name="quotesingle" format="1">
  <advance width="198"/>
  <unicode hex="0027"/>
  <outline>
    <contour>
      <point x="72" y="729"/>
      <point x="51" y="708"/>
      <point x="51" y="674" type="curve" smooth="yes"/>
      <point x="51" y="610"/>
      <point x="72" y="568"/>
      <point x="92" y="468" type="curve"/>
      <point x="106" y="468" type="line"/>
      <point x="127" y="573"/>
      <point x="147" y="611"/>
      <point x="147" y="675" type="curve" smooth="yes"/>
      <point x="147" y="709"/>
      <point x="126" y="730"/>
      <point x="99" y="730" type="curve" smooth="yes"/>
    </contour>
  </outline>
</glyph>
<glyph name="parenright" format="1">
  <advance width="305"/>
  <unicode hex="0029"/>
  <outline>
    <contour>
      <point x="17" y="793" type="line"/>
      <point x="119" y="659"/>
      <point x="157" y="509"/>
      <point x="157" y="312" type="curve" smooth="yes"/>
      <point x="157" y="115"/>
      <point x="119" y="-33"/>
      <point x="17" y="-169" type="curve"/>
      <point x="31" y="-182" type="line"/>
      <point x="177" y="-62"/>
      <point x="265" y="100"/>
      <point x="265" y="312" type="curve" smooth="yes"/>
      <point x="265" y="524"/>
      <point x="177" y="686"/>
      <point x="31" y="806" type="curve"/>
    </contour>
  </outline>
</glyph>
<glyph name="asterisk" format="1">
  <advance width="487"/>
  <unicode hex="002A"/>
  <outline>
    <contour>
      <point x="326" y="615"/>
      <point x="294" y="572"/>
      <point x="243" y="520" type="curve"/>
      <point x="244" y="517" type="line"/>
      <point x="319" y="537"/>
      <point x="367" y="541"/>
      <point x="400" y="560" type="curve" smooth="yes"/>
      <point x="435" y="580"/>
      <point x="437" y="606"/>
      <point x="426" y="623" type="curve" smooth="yes"/>
      <point x="416" y="641"/>
      <point x="393" y="654"/>
      <point x="358" y="634" type="curve" smooth="yes"/>
    </contour>
    <contour>
      <point x="243" y="517" type="line"/>
      <point x="297" y="462"/>
      <point x="326" y="422"/>
      <point x="359" y="403" type="curve" smooth="yes"/>
      <point x="394" y="383"/>
      <point x="416" y="395"/>
      <point x="426" y="412" type="curve" smooth="yes"/>
      <point x="437" y="430"/>
      <point x="435" y="457"/>
      <point x="401" y="477" type="curve" smooth="yes"/>
      <point x="368" y="495"/>
      <point x="316" y="501"/>
      <point x="245" y="520" type="curve"/>
    </contour>
    <contour>
      <point x="243" y="518" type="line"/>
      <point x="222" y="443"/>
      <point x="202" y="399"/>
      <point x="202" y="361" type="curve" smooth="yes"/>
      <point x="202" y="320"/>
      <point x="223" y="307"/>
      <point x="243" y="307" type="curve" smooth="yes"/>
      <point x="264" y="307"/>
      <point x="286" y="321"/>
      <point x="287" y="361" type="curve" smooth="yes"/>
      <point x="286" y="398"/>
      <point x="265" y="447"/>
      <point x="246" y="518" type="curve"/>
    </contour>
    <contour>
      <point x="168" y="499"/>
      <point x="120" y="495"/>
      <point x="87" y="476" type="curve" smooth="yes"/>
      <point x="52" y="455"/>
      <point x="50" y="430"/>
      <point x="61" y="413" type="curve" smooth="yes"/>
      <point x="71" y="395"/>
      <point x="94" y="382"/>
      <point x="129" y="402" type="curve"/>
      <point x="161" y="421"/>
      <point x="193" y="464"/>
      <point x="245" y="516" type="curve"/>
      <point x="243" y="519" type="line"/>
    </contour>
    <contour>
      <point x="93" y="653"/>
      <point x="71" y="641"/>
      <point x="61" y="624" type="curve" smooth="yes"/>
      <point x="50" y="606"/>
      <point x="52" y="579"/>
      <point x="86" y="559" type="curve" smooth="yes"/>
      <point x="119" y="541"/>
      <point x="171" y="535"/>
      <point x="243" y="516" type="curve"/>
      <point x="244" y="519" type="line"/>
      <point x="190" y="574"/>
      <point x="161" y="614"/>
      <point x="128" y="633" type="curve" smooth="yes"/>
    </contour>
    <contour>
      <point x="223" y="729"/>
      <point x="201" y="715"/>
      <point x="201" y="675" type="curve" smooth="yes"/>
      <point x="201" y="637"/>
      <point x="222" y="589"/>
      <point x="242" y="518" type="curve"/>
      <point x="245" y="518" type="line"/>
      <point x="265" y="593"/>
      <point x="285" y="637"/>
      <point x="285" y="675" type="curve" smooth="yes"/>
      <point x="285" y="715"/>
      <point x="264" y="729"/>
      <point x="244" y="729" type="curve" smooth="yes"/>
    </contour>
  </outline>
</glyph>
<glyph name="plus" format="1">
  <advance width="581"/>
  <unicode hex="002B"/>
  <outline>
    <contour>
      <point x="273" y="606" type="line"/>
      <point x="273" y="370" type="line"/>
      <point x="40" y="370" type="line"/>
      <point x="40" y="340" type="line"/>
      <point x="273" y="340" type="line"/>
      <point x="273" y="105" type="line"/>
      <point x="309" y="105" type="line"/>
      <point x="309" y="340" type="line"/>
      <point x="541" y="340" type="line"/>
      <point x="541" y="370" type="line"/>
      <point x="309" y="370" type="line"/>
      <point x="309" y="606" type="line"/>
    </contour>
  </outline>
</glyph>
<glyph name="comma" format="1">
  <advance width="266"/>
  <unicode hex="002C"/>
  <outline>
    <contour>
      <point x="88" y="126"/>
      <point x="56" y="97"/>
      <point x="56" y="56" type="curve" smooth="yes"/>
      <point x="56" y="12"/>
      <point x="87" y="-14"/>
      <point x="127" y="-14" type="curve" smooth="yes"/>
      <point x="145" y="-14"/>
      <point x="162" y="-7"/>
      <point x="173" y="4" type="curve"/>
      <point x="176" y="-5"/>
      <point x="176" y="-15"/>
      <point x="175" y="-26" type="curve" smooth="yes"/>
      <point x="172" y="-64"/>
      <point x="138" y="-103"/>
      <point x="99" y="-120" type="curve"/>
      <point x="108" y="-138" type="line"/>
      <point x="179" y="-105"/>
      <point x="212" y="-47"/>
      <point x="212" y="19" type="curve" smooth="yes"/>
      <point x="212" y="41"/>
      <point x="207" y="71"/>
      <point x="193" y="92" type="curve" smooth="yes"/>
      <point x="180" y="113"/>
      <point x="159" y="126"/>
      <point x="128" y="126" type="curve" smooth="yes"/>
    </contour>
  </outline>
</glyph>
<glyph name="hyphen" format="1">
  <advance width="491"/>
  <unicode hex="002D"/>
  <outline>
    <contour>
      <point x="65" y="304" type="line"/>
      <point x="65" y="235" type="line"/>
      <point x="426" y="235" type="line"/>
      <point x="426" y="304" type="line"/>
    </contour>
  </outline>
</glyph>
<glyph name="period" format="1">
  <advance width="260"/>
  <unicode hex="002E"/>
  <outline>
    <contour>
      <point x="87" y="126"/>
      <point x="57" y="97"/>
      <point x="57" y="56" type="curve" smooth="yes"/>
      <point x="57" y="15"/>
      <point x="87" y="-14"/>
      <point x="130" y="-14" type="curve" smooth="yes"/>
      <point x="172" y="-14"/>
      <point x="203" y="15"/>
      <point x="203" y="56" type="curve" smooth="yes"/>
      <point x="203" y="97"/>
      <point x="172" y="126"/>
      <point x="130" y="126" type="curve" smooth="yes"/>
    </contour>
  </outline>
</glyph>
<glyph name="slash" format="1">
  <advance width="370"/>
  <unicode hex="002F"/>
  <outline>
    <contour>
      <point x="305" y="722" type="line"/>
      <point x="33" y="-14" type="line"/>
      <point x="66" y="-14" type="line"/>
      <point x="338" y="722" type="line"/>
    </contour>
  </outline>
</glyph>
<glyph name="zero" format="1">
  <advance width="620"/>
  <unicode hex="0030"/>
  <outline>
    <contour>
      <point x="154" y="530"/>
      <point x="49" y="409"/>
      <point x="49" y="251" type="curve" smooth="yes"/>
      <point x="49" y="90"/>
      <point x="157" y="-14"/>
      <point x="304" y="-14" type="curve" smooth="yes"/>
      <point x="463" y="-14"/>
      <point x="570" y="107"/>
      <point x="570" y="267" type="curve" smooth="yes"/>
      <point x="570" y="426"/>
      <point x="464" y="530"/>
      <point x="315" y="530" type="curve" smooth="yes"/>
    </contour>
    <contour>
      <point x="383" y="512"/>
      <point x="449" y="443"/>
      <point x="449" y="264" type="curve" smooth="yes"/>
      <point x="449" y="101"/>
      <point x="393" y="4"/>
      <point x="313" y="4" type="curve" smooth="yes"/>
      <point x="236" y="4"/>
      <point x="170" y="74"/>
      <point x="170" y="254" type="curve" smooth="yes"/>
      <point x="170" y="417"/>
      <point x="227" y="512"/>
      <point x="306" y="512" type="curve" smooth="yes"/>
    </contour>
  </outline>
</glyph>
<glyph name="one" format="1">
  <advance width="376"/>
  <unicode hex="0031"/>
  <outline>
    <contour>
      <point x="212" y="491"/>
      <point x="148" y="478"/>
      <point x="44" y="476" type="curve"/>
      <point x="44" y="454" type="line"/>
      <point x="128" y="454"/>
      <point x="152" y="442"/>
      <point x="152" y="346" type="curve" smooth="yes"/>
      <point x="152" y="103" type="line" smooth="yes"/>
      <point x="152" y="38"/>
      <point x="114" y="21"/>
      <point x="51" y="21" type="curve"/>
      <point x="51" y="0" type="line"/>
      <point x="84" y="1"/>
      <point x="148" y="4"/>
      <point x="213" y="4" type="curve" smooth="yes"/>
      <point x="267" y="4"/>
      <point x="324" y="1"/>
      <point x="351" y="0" type="curve"/>
      <point x="351" y="21" type="line"/>
      <point x="290" y="21"/>
      <point x="266" y="38"/>
      <point x="266" y="100" type="curve" smooth="yes"/>
      <point x="266" y="527" type="line"/>
    </contour>
  </outline>
</glyph>
<glyph name="two" format="1">
  <advance width="499"/>
  <unicode hex="0032"/>
  <outline>
    <contour>
      <point x="142" y="530"/>
      <point x="79" y="470"/>
      <point x="44" y="405" type="curve"/>
      <point x="61" y="395" type="line"/>
      <point x="96" y="453"/>
      <point x="140" y="482"/>
      <point x="195" y="482" type="curve" smooth="yes"/>
      <point x="256" y="482"/>
      <point x="292" y="451"/>
      <point x="292" y="377" type="curve" smooth="yes"/>
      <point x="292" y="215"/>
      <point x="126" y="101"/>
      <point x="47" y="18" type="curve"/>
      <point x="47" y="0" type="line"/>
      <point x="306" y="0" type="line" smooth="yes"/>
      <point x="366" y="0"/>
      <point x="437" y="-1"/>
      <point x="455" y="-5" type="curve"/>
      <point x="452" y="29"/>
      <point x="451" y="65"/>
      <point x="451" y="144" type="curve"/>
      <point x="433" y="144" type="line"/>
      <point x="428" y="108"/>
      <point x="421" y="96"/>
      <point x="366" y="96" type="curve" smooth="yes"/>
      <point x="157" y="96" type="line"/>
      <point x="233" y="188"/>
      <point x="415" y="272"/>
      <point x="415" y="404" type="curve" smooth="yes"/>
      <point x="415" y="485"/>
      <point x="354" y="530"/>
      <point x="258" y="530" type="curve" smooth="yes"/>
    </contour>
  </outline>
</glyph>
<glyph name="three" format="1">
  <advance width="467"/>
  <unicode hex="0033"/>
  <outline>
    <contour>
      <point x="129" y="530"/>
      <point x="73" y="470"/>
      <point x="41" y="405" type="curve"/>
      <point x="58" y="397" type="line"/>
      <point x="89" y="453"/>
      <point x="136" y="481"/>
      <point x="190" y="481" type="curve" smooth="yes"/>
      <point x="244" y="481"/>
      <point x="278" y="453"/>
      <point x="278" y="392" type="curve" smooth="yes"/>
      <point x="278" y="342"/>
      <point x="256" y="292"/>
      <point x="201" y="252" type="curve"/>
      <point x="188" y="253"/>
      <point x="177" y="256"/>
      <point x="166" y="256" type="curve" smooth="yes"/>
      <point x="150" y="256"/>
      <point x="137" y="249"/>
      <point x="137" y="236" type="curve" smooth="yes"/>
      <point x="137" y="226"/>
      <point x="143" y="222"/>
      <point x="154" y="222" type="curve" smooth="yes"/>
      <point x="168" y="222"/>
      <point x="183" y="229"/>
      <point x="203" y="237" type="curve" smooth="yes"/>
      <point x="268" y="232"/>
      <point x="309" y="176"/>
      <point x="309" y="98" type="curve" smooth="yes"/>
      <point x="309" y="-50"/>
      <point x="165" y="-129"/>
      <point x="34" y="-132" type="curve"/>
      <point x="34" y="-151" type="line"/>
      <point x="216" y="-151"/>
      <point x="428" y="-54"/>
      <point x="428" y="98" type="curve" smooth="yes"/>
      <point x="428" y="202"/>
      <point x="330" y="252"/>
      <point x="219" y="251" type="curve"/>
      <point x="316" y="276"/>
      <point x="392" y="339"/>
      <point x="392" y="416" type="curve" smooth="yes"/>
      <point x="392" y="487"/>
      <point x="325" y="530"/>
      <point x="236" y="530" type="curve" smooth="yes"/>
    </contour>
  </outline>
</glyph>
<glyph name="four" format="1">
  <advance width="509"/>
  <unicode hex="0034"/>
  <outline>
    <contour>
      <point x="13" y="67" type="line"/>
      <point x="13" y="46" type="line"/>
      <point x="316" y="46" type="line" smooth="yes"/>
      <point x="376" y="46"/>
      <point x="457" y="45"/>
      <point x="475" y="41" type="curve"/>
      <point x="472" y="73"/>
      <point x="471" y="105"/>
      <point x="471" y="177" type="curve"/>
      <point x="453" y="177" type="line"/>
      <point x="448" y="141"/>
      <point x="441" y="129"/>
      <point x="386" y="129" type="curve" smooth="yes"/>
      <point x="74" y="129" type="line"/>
      <point x="69" y="105" type="line"/>
      <point x="363" y="504" type="line"/>
      <point x="359" y="530" type="line"/>
    </contour>
    <contour>
      <point x="359" y="530" type="line"/>
      <point x="279" y="408" type="line"/>
      <point x="279" y="-141" type="line"/>
      <point x="375" y="-141" type="line"/>
      <point x="375" y="530" type="line"/>
    </contour>
  </outline>
</glyph>
<glyph name="five" format="1">
  <advance width="435"/>
  <unicode hex="0035"/>
  <outline>
    <contour>
      <point x="337" y="561" type="line"/>
      <point x="332" y="527"/>
      <point x="323" y="515"/>
      <point x="275" y="515" type="curve" smooth="yes"/>
      <point x="139" y="515" type="line" smooth="yes"/>
      <point x="120" y="515"/>
      <point x="100" y="516"/>
      <point x="85" y="519" type="curve"/>
      <point x="60" y="214" type="line"/>
      <point x="72" y="207" type="line"/>
      <point x="100" y="221"/>
      <point x="121" y="229"/>
      <point x="158" y="229" type="curve" smooth="yes"/>
      <point x="236" y="229"/>
      <point x="279" y="180"/>
      <point x="279" y="97" type="curve" smooth="yes"/>
      <point x="279" y="-52"/>
      <point x="158" y="-129"/>
      <point x="38" y="-130" type="curve"/>
      <point x="38" y="-148" type="line"/>
      <point x="209" y="-148"/>
      <point x="398" y="-50"/>
      <point x="398" y="105" type="curve" smooth="yes"/>
      <point x="398" y="193"/>
      <point x="339" y="261"/>
      <point x="213" y="261" type="curve" smooth="yes"/>
      <point x="151" y="261"/>
      <point x="111" y="245"/>
      <point x="80" y="227" type="curve"/>
      <point x="94" y="410" type="line"/>
      <point x="222" y="410" type="line" smooth="yes"/>
      <point x="278" y="410"/>
      <point x="344" y="409"/>
      <point x="361" y="405" type="curve"/>
      <point x="358" y="440"/>
      <point x="357" y="479"/>
      <point x="357" y="561" type="curve"/>
    </contour>
  </outline>
</glyph>
<glyph name="six" format="1">
  <advance width="537"/>
  <unicode hex="0036"/>
  <outline>
    <contour>
      <point x="272" y="697"/>
      <point x="52" y="572"/>
      <point x="52" y="270" type="curve" smooth="yes"/>
      <point x="52" y="90"/>
      <point x="134" y="-14"/>
      <point x="269" y="-14" type="curve" smooth="yes"/>
      <point x="396" y="-14"/>
      <point x="502" y="70"/>
      <point x="502" y="222" type="curve" smooth="yes"/>
      <point x="502" y="360"/>
      <point x="414" y="439"/>
      <point x="315" y="439" type="curve" smooth="yes"/>
      <point x="253" y="439"/>
      <point x="170" y="406"/>
      <point x="157" y="301" type="curve"/>
      <point x="167" y="303" type="line"/>
      <point x="184" y="385"/>
      <point x="244" y="410"/>
      <point x="283" y="410" type="curve" smooth="yes"/>
      <point x="337" y="410"/>
      <point x="381" y="358"/>
      <point x="381" y="214" type="curve" smooth="yes"/>
      <point x="381" y="64"/>
      <point x="332" y="6"/>
      <point x="279" y="6" type="curve" smooth="yes"/>
      <point x="229" y="6"/>
      <point x="173" y="63"/>
      <point x="173" y="269" type="curve" smooth="yes"/>
      <point x="173" y="593"/>
      <point x="307" y="667"/>
      <point x="421" y="703" type="curve"/>
      <point x="417" y="723" type="line"/>
    </contour>
  </outline>
</glyph>
<glyph name="seven" format="1">
  <advance width="428"/>
  <unicode hex="0037"/>
  <outline>
    <contour>
      <point x="28" y="486"/>
      <point x="29" y="445"/>
      <point x="29" y="366" type="curve"/>
      <point x="48" y="366" type="line"/>
      <point x="53" y="403"/>
      <point x="60" y="414"/>
      <point x="115" y="414" type="curve" smooth="yes"/>
      <point x="372" y="414" type="line"/>
      <point x="397" y="470" type="line"/>
      <point x="312" y="313"/>
      <point x="137" y="129"/>
      <point x="137" y="-78" type="curve" smooth="yes"/>
      <point x="137" y="-117"/>
      <point x="155" y="-148"/>
      <point x="194" y="-148" type="curve" smooth="yes"/>
      <point x="232" y="-148"/>
      <point x="253" y="-121"/>
      <point x="253" y="-87" type="curve" smooth="yes"/>
      <point x="253" y="-67"/>
      <point x="249" y="-31"/>
      <point x="249" y="-7" type="curve" smooth="yes"/>
      <point x="247" y="216"/>
      <point x="368" y="365"/>
      <point x="423" y="494" type="curve"/>
      <point x="423" y="515" type="line"/>
      <point x="174" y="515" type="line" smooth="yes"/>
      <point x="114" y="515"/>
      <point x="43" y="516"/>
      <point x="25" y="520" type="curve"/>
    </contour>
  </outline>
</glyph>
<glyph name="eight" format="1">
  <advance width="538"/>
  <unicode hex="0038"/>
  <outline>
    <contour>
      <point x="170" y="722"/>
      <point x="81" y="663"/>
      <point x="81" y="563" type="curve" smooth="yes"/>
      <point x="81" y="367"/>
      <point x="383" y="315"/>
      <point x="383" y="125" type="curve" smooth="yes"/>
      <point x="383" y="49"/>
      <point x="334" y="4"/>
      <point x="268" y="4" type="curve" smooth="yes"/>
      <point x="182" y="4"/>
      <point x="152" y="83"/>
      <point x="152" y="172" type="curve" smooth="yes"/>
      <point x="152" y="241"/>
      <point x="172" y="307"/>
      <point x="230" y="352" type="curve"/>
      <point x="222" y="366" type="line"/>
      <point x="125" y="324"/>
      <point x="48" y="255"/>
      <point x="48" y="155" type="curve" smooth="yes"/>
      <point x="48" y="42"/>
      <point x="149" y="-14"/>
      <point x="263" y="-14" type="curve" smooth="yes"/>
      <point x="395" y="-14"/>
      <point x="492" y="64"/>
      <point x="492" y="176" type="curve" smooth="yes"/>
      <point x="492" y="375"/>
      <point x="183" y="427"/>
      <point x="183" y="608" type="curve" smooth="yes"/>
      <point x="183" y="666"/>
      <point x="218" y="704"/>
      <point x="267" y="704" type="curve" smooth="yes"/>
      <point x="326" y="704"/>
      <point x="360" y="653"/>
      <point x="360" y="573" type="curve" smooth="yes"/>
      <point x="360" y="516"/>
      <point x="344" y="456"/>
      <point x="302" y="415" type="curve"/>
      <point x="310" y="401" type="line"/>
      <point x="398" y="451"/>
      <point x="456" y="507"/>
      <point x="456" y="584" type="curve" smooth="yes"/>
      <point x="456" y="671"/>
      <point x="378" y="722"/>
      <point x="277" y="722" type="curve" smooth="yes"/>
    </contour>
  </outline>
</glyph>
<glyph name="nine" format="1">
  <advance width="528"/>
  <unicode hex="0039"/>
  <outline>
    <contour>
      <point x="140" y="530"/>
      <point x="33" y="446"/>
      <point x="33" y="294" type="curve" smooth="yes"/>
      <point x="33" y="156"/>
      <point x="122" y="77"/>
      <point x="220" y="77" type="curve" smooth="yes"/>
      <point x="283" y="77"/>
      <point x="365" y="110"/>
      <point x="379" y="215" type="curve"/>
      <point x="369" y="213" type="line"/>
      <point x="352" y="132"/>
      <point x="292" y="106"/>
      <point x="252" y="106" type="curve" smooth="yes"/>
      <point x="198" y="106"/>
      <point x="154" y="158"/>
      <point x="154" y="302" type="curve" smooth="yes"/>
      <point x="154" y="452"/>
      <point x="203" y="510"/>
      <point x="256" y="510" type="curve" smooth="yes"/>
      <point x="306" y="510"/>
      <point x="363" y="456"/>
      <point x="363" y="262" type="curve" smooth="yes"/>
      <point x="363" y="-31"/>
      <point x="230" y="-98"/>
      <point x="117" y="-130" type="curve"/>
      <point x="121" y="-150" type="line"/>
      <point x="266" y="-128"/>
      <point x="484" y="-11"/>
      <point x="484" y="260" type="curve" smooth="yes"/>
      <point x="484" y="432"/>
      <point x="402" y="530"/>
      <point x="266" y="530" type="curve" smooth="yes"/>
    </contour>
  </outline>
</glyph>
<glyph name="equal" format="1">
  <advance width="642"/>
  <unicode hex="003D"/>
  <outline>
    <contour>
      <point x="70" y="440" type="line"/>
      <point x="70" y="410" type="line"/>
      <point x="571" y="410" type="line"/>
      <point x="571" y="440" type="line"/>
    </contour>
    <contour>
      <point x="70" y="300" type="line"/>
      <point x="70" y="270" type="line"/>
      <point x="571" y="270" type="line"/>
      <point x="571" y="300" type="line"/>
    </contour>
  </outline>
</glyph>
<glyph name="question" format="1">
  <advance width="481"/>
  <unicode hex="003F"/>
  <outline>
    <contour>
      <point x="159" y="782"/>
      <point x="112" y="765"/>
      <point x="83" y="746" type="curve" smooth="yes"/>
      <point x="53" y="727"/>
      <point x="31" y="701"/>
      <point x="31" y="668" type="curve" smooth="yes"/>
      <point x="31" y="634"/>
      <point x="56" y="608"/>
      <point x="92" y="608" type="curve" smooth="yes"/>
      <point x="129" y="608"/>
      <point x="158" y="632"/>
      <point x="158" y="670" type="curve" smooth="yes"/>
      <point x="158" y="702"/>
      <point x="140" y="723"/>
      <point x="110" y="731" type="curve"/>
      <point x="130" y="755"/>
      <point x="169" y="762"/>
      <point x="203" y="762" type="curve" smooth="yes"/>
      <point x="281" y="762"/>
      <point x="335" y="709"/>
      <point x="335" y="583" type="curve" smooth="yes"/>
      <point x="335" y="505"/>
      <point x="314" y="438"/>
      <point x="190" y="389" type="curve"/>
      <point x="190" y="234" type="line"/>
      <point x="210" y="234" type="line"/>
      <point x="210" y="380" type="line"/>
      <point x="352" y="414"/>
      <point x="448" y="489"/>
      <point x="448" y="602" type="curve" smooth="yes"/>
      <point x="448" y="714"/>
      <point x="358" y="782"/>
      <point x="225" y="782" type="curve" smooth="yes"/>
    </contour>
    <component base="period" xOffset="71"/>
  </outline>
</glyph>
<glyph name="at" format="1">
  <advance width="881"/>
  <unicode hex="0040"/>
  <outline>
    <contour>
      <point x="262" y="668"/>
      <point x="47" y="412"/>
      <point x="47" y="143" type="curve" smooth="yes"/>
      <point x="47" y="-69"/>
      <point x="181" y="-161"/>
      <point x="369" y="-161" type="curve" smooth="yes"/>
      <point x="458" y="-161"/>
      <point x="533" y="-137"/>
      <point x="583" y="-102" type="curve"/>
      <point x="576" y="-89" type="line"/>
      <point x="511" y="-128"/>
      <point x="442" y="-143"/>
      <point x="370" y="-143" type="curve" smooth="yes"/>
      <point x="196" y="-143"/>
      <point x="67" y="-61"/>
      <point x="67" y="145" type="curve" smooth="yes"/>
      <point x="67" y="416"/>
      <point x="287" y="650"/>
      <point x="534" y="650" type="curve" smooth="yes"/>
      <point x="692" y="650"/>
      <point x="827" y="579"/>
      <point x="827" y="394" type="curve" smooth="yes"/>
      <point x="827" y="185"/>
      <point x="681" y="66"/>
      <point x="602" y="55" type="curve" smooth="yes"/>
      <point x="572" y="50"/>
      <point x="568" y="70"/>
      <point x="579" y="114" type="curve" smooth="yes"/>
      <point x="661" y="478" type="line"/>
      <point x="630" y="467"/>
      <point x="591" y="464"/>
      <point x="555" y="464" type="curve"/>
      <point x="494" y="166" type="line" smooth="yes"/>
      <point x="483" y="127"/>
      <point x="448" y="26"/>
      <point x="555" y="26" type="curve" smooth="yes"/>
      <point x="683" y="26"/>
      <point x="847" y="168"/>
      <point x="847" y="393" type="curve" smooth="yes"/>
      <point x="847" y="588"/>
      <point x="708" y="668"/>
      <point x="533" y="668" type="curve" smooth="yes"/>
    </contour>
    <contour>
      <point x="353" y="478"/>
      <point x="233" y="298"/>
      <point x="233" y="151" type="curve" smooth="yes"/>
      <point x="233" y="75"/>
      <point x="269" y="26"/>
      <point x="342" y="26" type="curve" smooth="yes"/>
      <point x="426" y="26"/>
      <point x="481" y="92"/>
      <point x="523" y="251" type="curve"/>
      <point x="516" y="267" type="line"/>
      <point x="484" y="139"/>
      <point x="433" y="64"/>
      <point x="385" y="64" type="curve" smooth="yes"/>
      <point x="354" y="64"/>
      <point x="338" y="91"/>
      <point x="338" y="155" type="curve" smooth="yes"/>
      <point x="338" y="294"/>
      <point x="408" y="450"/>
      <point x="485" y="450" type="curve" smooth="yes"/>
      <point x="523" y="450"/>
      <point x="541" y="420"/>
      <point x="539" y="376" type="curve"/>
      <point x="548" y="381" type="line"/>
      <point x="554" y="443"/>
      <point x="525" y="478"/>
      <point x="472" y="478" type="curve" smooth="yes"/>
    </contour>
  </outline>
</glyph>
<glyph name="A" format="1">
  <advance width="647"/>
  <unicode hex="0041"/>
  <outline>
    <contour>
      <point x="331" y="711"/>
      <point x="315" y="711"/>
      <point x="303" y="712" type="curve"/>
      <point x="72" y="115" type="line" smooth="yes"/>
      <point x="46" y="49"/>
      <point x="17" y="26"/>
      <point x="-11" y="20" type="curve"/>
      <point x="-11" y="0" type="line"/>
      <point x="9" y="2"/>
      <point x="33" y="3"/>
      <point x="65" y="3" type="curve" smooth="yes"/>
      <point x="103" y="3"/>
      <point x="143" y="2"/>
      <point x="184" y="0" type="curve"/>
      <point x="184" y="20" type="line"/>
      <point x="101" y="22"/>
      <point x="71" y="53"/>
      <point x="119" y="178" type="curve" smooth="yes"/>
      <point x="284" y="605" type="line"/>
      <point x="267" y="587" type="line"/>
      <point x="446" y="104" type="line" smooth="yes"/>
      <point x="472" y="36"/>
      <point x="455" y="23"/>
      <point x="387" y="20" type="curve"/>
      <point x="387" y="0" type="line"/>
      <point x="417" y="2"/>
      <point x="470" y="3"/>
      <point x="526" y="3" type="curve" smooth="yes"/>
      <point x="571" y="3"/>
      <point x="620" y="2"/>
      <point x="653" y="0" type="curve"/>
      <point x="653" y="20" type="line"/>
      <point x="633" y="21"/>
      <point x="606" y="34"/>
      <point x="586" y="84" type="curve" smooth="yes"/>
      <point x="343" y="712" type="line"/>
    </contour>
    <contour>
      <point x="154" y="288" type="line"/>
      <point x="144" y="268" type="line"/>
      <point x="442" y="268" type="line"/>
      <point x="442" y="288" type="line"/>
    </contour>
    <contour>
      <point x="639" y="0" type="move" name="ogonek"/>
    </contour>
    <contour>
      <point x="323" y="0" type="move" name="bottom"/>
    </contour>
    <contour>
      <point x="322" y="708" type="move" name="top"/>
    </contour>
  </outline>
</glyph>
<glyph name="B" format="1">
  <advance width="645"/>
  <unicode hex="0042"/>
  <outline>
    <contour>
      <point x="38" y="688" type="line"/>
      <point x="104" y="685"/>
      <point x="117" y="675"/>
      <point x="117" y="602" type="curve" smooth="yes"/>
      <point x="117" y="106" type="line" smooth="yes"/>
      <point x="117" y="33"/>
      <point x="104" y="23"/>
      <point x="38" y="20" type="curve"/>
      <point x="38" y="0" type="line"/>
      <point x="69" y="2"/>
      <point x="123" y="3"/>
      <point x="176" y="3" type="curve" smooth="yes"/>
      <point x="259" y="3"/>
      <point x="320" y="0"/>
      <point x="350" y="0" type="curve" smooth="yes"/>
      <point x="510" y="0"/>
      <point x="606" y="75"/>
      <point x="606" y="194" type="curve" smooth="yes"/>
      <point x="606" y="275"/>
      <point x="552" y="355"/>
      <point x="381" y="373" type="curve"/>
      <point x="381" y="375" type="line"/>
      <point x="505" y="405"/>
      <point x="554" y="479"/>
      <point x="554" y="550" type="curve" smooth="yes"/>
      <point x="554" y="642"/>
      <point x="478" y="707"/>
      <point x="327" y="707" type="curve" smooth="yes"/>
      <point x="303" y="707"/>
      <point x="238" y="705"/>
      <point x="174" y="705" type="curve" smooth="yes"/>
      <point x="124" y="705"/>
      <point x="69" y="706"/>
      <point x="38" y="708" type="curve"/>
    </contour>
    <contour>
      <point x="395" y="688"/>
      <point x="429" y="637"/>
      <point x="429" y="539" type="curve" smooth="yes"/>
      <point x="429" y="452"/>
      <point x="403" y="376"/>
      <point x="295" y="376" type="curve" smooth="yes"/>
      <point x="209" y="376" type="line"/>
      <point x="209" y="376"/>
      <point x="209" y="359"/>
      <point x="209" y="359" type="curve"/>
      <point x="304" y="359" type="line" smooth="yes"/>
      <point x="428" y="359"/>
      <point x="477" y="300"/>
      <point x="477" y="198" type="curve" smooth="yes"/>
      <point x="477" y="86"/>
      <point x="427" y="23"/>
      <point x="311" y="23" type="curve" smooth="yes"/>
      <point x="251" y="23"/>
      <point x="239" y="36"/>
      <point x="239" y="106" type="curve" smooth="yes"/>
      <point x="239" y="602" type="line" smooth="yes"/>
      <point x="239" y="671"/>
      <point x="251" y="688"/>
      <point x="308" y="688" type="curve" smooth="yes"/>
    </contour>
    <contour>
      <point x="323" y="708" type="move" name="top"/>
    </contour>
    <contour>
      <point x="323" y="0" type="move" name="bottom"/>
    </contour>
  </outline>
</glyph>
<glyph name="C" format="1">
  <advance width="696"/>
  <unicode hex="0043"/>
  <outline>
    <contour>
      <point x="187" y="722"/>
      <point x="48" y="572"/>
      <point x="48" y="348" type="curve" smooth="yes"/>
      <point x="48" y="119"/>
      <point x="182" y="-14"/>
      <point x="381" y="-14" type="curve" smooth="yes"/>
      <point x="467" y="-14"/>
      <point x="517" y="16"/>
      <point x="566" y="51" type="curve" smooth="yes"/>
      <point x="595" y="70"/>
      <point x="606" y="57"/>
      <point x="611" y="0" type="curve"/>
      <point x="634" y="0" type="line"/>
      <point x="631" y="52"/>
      <point x="630" y="122"/>
      <point x="630" y="245" type="curve"/>
      <point x="607" y="245" type="line"/>
      <point x="598" y="157"/>
      <point x="588" y="111"/>
      <point x="549" y="72" type="curve" smooth="yes"/>
      <point x="514" y="27"/>
      <point x="452" y="8"/>
      <point x="399" y="8" type="curve" smooth="yes"/>
      <point x="264" y="8"/>
      <point x="183" y="148"/>
      <point x="183" y="352" type="curve" smooth="yes"/>
      <point x="183" y="551"/>
      <point x="256" y="701"/>
      <point x="392" y="701" type="curve" smooth="yes"/>
      <point x="451" y="701"/>
      <point x="508" y="680"/>
      <point x="546" y="635" type="curve" smooth="yes"/>
      <point x="585" y="597"/>
      <point x="595" y="561"/>
      <point x="607" y="473" type="curve"/>
      <point x="630" y="473" type="line"/>
      <point x="630" y="591"/>
      <point x="631" y="658"/>
      <point x="634" y="708" type="curve"/>
      <point x="611" y="708" type="line"/>
      <point x="606" y="651"/>
      <point x="592" y="637"/>
      <point x="566" y="657" type="curve" smooth="yes"/>
      <point x="522" y="691"/>
      <point x="470" y="722"/>
      <point x="382" y="722" type="curve" smooth="yes"/>
    </contour>
    <contour>
      <point x="371" y="708" type="move" name="top"/>
    </contour>
    <contour>
      <point x="385" y="0" type="move" name="bottom"/>
    </contour>
  </outline>
</glyph>
<glyph name="D" format="1">
  <advance width="746"/>
  <unicode hex="0044"/>
  <outline>
    <contour>
      <point x="288" y="708"/>
      <point x="220" y="706"/>
      <point x="174" y="705" type="curve" smooth="yes"/>
      <point x="124" y="704"/>
      <point x="69" y="706"/>
      <point x="38" y="708" type="curve"/>
      <point x="38" y="688" type="line"/>
      <point x="104" y="685"/>
      <point x="117" y="675"/>
      <point x="117" y="602" type="curve" smooth="yes"/>
      <point x="117" y="106" type="line" smooth="yes"/>
      <point x="117" y="33"/>
      <point x="104" y="23"/>
      <point x="38" y="20" type="curve"/>
      <point x="38" y="0" type="line"/>
      <point x="69" y="2"/>
      <point x="123" y="3"/>
      <point x="176" y="3" type="curve" smooth="yes"/>
      <point x="219" y="3"/>
      <point x="288" y="0"/>
      <point x="318" y="0" type="curve" smooth="yes"/>
      <point x="558" y="0"/>
      <point x="696" y="144"/>
      <point x="696" y="362" type="curve" smooth="yes"/>
      <point x="696" y="585"/>
      <point x="576" y="708"/>
      <point x="327" y="708" type="curve" smooth="yes"/>
    </contour>
    <contour>
      <point x="500" y="690"/>
      <point x="567" y="582"/>
      <point x="567" y="358" type="curve" smooth="yes"/>
      <point x="567" y="140"/>
      <point x="510" y="18"/>
      <point x="314" y="18" type="curve" smooth="yes"/>
      <point x="252" y="18"/>
      <point x="239" y="34"/>
      <point x="239" y="104" type="curve" smooth="yes"/>
      <point x="239" y="604" type="line" smooth="yes"/>
      <point x="239" y="673"/>
      <point x="252" y="690"/>
      <point x="313" y="690" type="curve" smooth="yes"/>
    </contour>
    <contour>
      <point x="192" y="356" type="move" name="center"/>
    </contour>
    <contour>
      <point x="354" y="0" type="move" name="bottom"/>
    </contour>
    <contour>
      <point x="327" y="708" type="move" name="top"/>
    </contour>
  </outline>
</glyph>
<glyph name="E" format="1">
  <advance width="620"/>
  <unicode hex="0045"/>
  <outline>
    <contour>
      <point x="491" y="705"/>
      <point x="405" y="705"/>
      <point x="344" y="705" type="curve" smooth="yes"/>
      <point x="281" y="705"/>
      <point x="141" y="705"/>
      <point x="38" y="708" type="curve"/>
      <point x="38" y="688" type="line"/>
      <point x="104" y="685"/>
      <point x="117" y="675"/>
      <point x="117" y="602" type="curve" smooth="yes"/>
      <point x="117" y="106" type="line" smooth="yes"/>
      <point x="117" y="33"/>
      <point x="104" y="23"/>
      <point x="38" y="20" type="curve"/>
      <point x="38" y="0" type="line"/>
      <point x="141" y="3"/>
      <point x="281" y="3"/>
      <point x="344" y="3" type="curve" smooth="yes"/>
      <point x="411" y="3"/>
      <point x="505" y="3"/>
      <point x="573" y="0" type="curve"/>
      <point x="568" y="55"/>
      <point x="566" y="112"/>
      <point x="566" y="139" type="curve" smooth="yes"/>
      <point x="566" y="169"/>
      <point x="567" y="196"/>
      <point x="569" y="216" type="curve"/>
      <point x="546" y="216" type="line"/>
      <point x="527" y="71"/>
      <point x="486" y="23"/>
      <point x="377" y="23" type="curve" smooth="yes"/>
      <point x="315" y="23" type="line" smooth="yes"/>
      <point x="251" y="23"/>
      <point x="239" y="32"/>
      <point x="239" y="101" type="curve" smooth="yes"/>
      <point x="239" y="607" type="line" smooth="yes"/>
      <point x="239" y="676"/>
      <point x="251" y="685"/>
      <point x="315" y="685" type="curve" smooth="yes"/>
      <point x="379" y="685" type="line" smooth="yes"/>
      <point x="479" y="685"/>
      <point x="510" y="643"/>
      <point x="526" y="512" type="curve"/>
      <point x="549" y="512" type="line"/>
      <point x="547" y="528"/>
      <point x="546" y="552"/>
      <point x="546" y="577" type="curve" smooth="yes"/>
      <point x="546" y="602"/>
      <point x="548" y="656"/>
      <point x="553" y="708" type="curve"/>
    </contour>
    <contour>
      <point x="209" y="366" type="line"/>
      <point x="209" y="366"/>
      <point x="209" y="346"/>
      <point x="209" y="346" type="curve"/>
      <point x="388" y="346" type="line"/>
      <point x="388" y="346"/>
      <point x="388" y="366"/>
      <point x="388" y="366" type="curve"/>
    </contour>
    <contour>
      <point x="394" y="498" type="line"/>
      <point x="385" y="447"/>
      <point x="374" y="366"/>
      <point x="290" y="366" type="curve"/>
      <point x="290" y="346" type="line"/>
      <point x="374" y="346"/>
      <point x="388" y="281"/>
      <point x="397" y="214" type="curve"/>
      <point x="420" y="214" type="line"/>
      <point x="415" y="290"/>
      <point x="414" y="323"/>
      <point x="414" y="356" type="curve" smooth="yes"/>
      <point x="414" y="389"/>
      <point x="412" y="422"/>
      <point x="417" y="498" type="curve"/>
    </contour>
    <contour>
      <point x="571" y="0" type="move" name="ogonek"/>
    </contour>
    <contour>
      <point x="325" y="0" type="move" name="bottom"/>
    </contour>
    <contour>
      <point x="310" y="708" type="move" name="top"/>
    </contour>
  </outline>
</glyph>
<glyph name="F" format="1">
  <advance width="579"/>
  <unicode hex="0046"/>
  <outline>
    <contour>
      <point x="491" y="705"/>
      <point x="405" y="705"/>
      <point x="344" y="705" type="curve" smooth="yes"/>
      <point x="281" y="705"/>
      <point x="141" y="705"/>
      <point x="38" y="708" type="curve"/>
      <point x="38" y="688" type="line"/>
      <point x="104" y="685"/>
      <point x="117" y="675"/>
      <point x="117" y="602" type="curve" smooth="yes"/>
      <point x="117" y="106" type="line" smooth="yes"/>
      <point x="117" y="33"/>
      <point x="104" y="23"/>
      <point x="38" y="20" type="curve"/>
      <point x="38" y="0" type="line"/>
      <point x="73" y="2"/>
      <point x="125" y="3"/>
      <point x="180" y="3" type="curve" smooth="yes"/>
      <point x="242" y="3"/>
      <point x="305" y="2"/>
      <point x="343" y="0" type="curve"/>
      <point x="343" y="21" type="line"/>
      <point x="256" y="23"/>
      <point x="239" y="33"/>
      <point x="239" y="109" type="curve" smooth="yes"/>
      <point x="239" y="607" type="line" smooth="yes"/>
      <point x="239" y="676"/>
      <point x="251" y="685"/>
      <point x="315" y="685" type="curve" smooth="yes"/>
      <point x="364" y="685" type="line" smooth="yes"/>
      <point x="475" y="685"/>
      <point x="507" y="636"/>
      <point x="526" y="490" type="curve"/>
      <point x="549" y="490" type="line"/>
      <point x="547" y="510"/>
      <point x="546" y="538"/>
      <point x="546" y="569" type="curve" smooth="yes"/>
      <point x="546" y="596"/>
      <point x="548" y="653"/>
      <point x="553" y="708" type="curve"/>
    </contour>
    <contour>
      <point x="209" y="359" type="line"/>
      <point x="209" y="359"/>
      <point x="209" y="339"/>
      <point x="209" y="339" type="curve"/>
      <point x="401" y="339" type="line"/>
      <point x="401" y="339"/>
      <point x="401" y="359"/>
      <point x="401" y="359" type="curve"/>
    </contour>
    <contour>
      <point x="400" y="491" type="line"/>
      <point x="391" y="440"/>
      <point x="379" y="359"/>
      <point x="295" y="359" type="curve"/>
      <point x="295" y="339" type="line"/>
      <point x="379" y="339"/>
      <point x="394" y="273"/>
      <point x="403" y="207" type="curve"/>
      <point x="426" y="207" type="line"/>
      <point x="421" y="283"/>
      <point x="420" y="316"/>
      <point x="420" y="349" type="curve" smooth="yes"/>
      <point x="420" y="382"/>
      <point x="418" y="415"/>
      <point x="423" y="491" type="curve"/>
    </contour>
    <contour>
      <point x="297" y="708" type="move" name="top"/>
    </contour>
    <contour>
      <point x="180" y="0" type="move" name="bottom"/>
    </contour>
  </outline>
</glyph>
<glyph name="H" format="1">
  <advance width="776"/>
  <unicode hex="0048"/>
  <outline>
    <contour>
      <point x="493" y="2"/>
      <point x="548" y="3"/>
      <point x="599" y="3" type="curve" smooth="yes"/>
      <point x="656" y="3"/>
      <point x="708" y="2"/>
      <point x="738" y="0" type="curve"/>
      <point x="738" y="20" type="line"/>
      <point x="672" y="23"/>
      <point x="660" y="33"/>
      <point x="660" y="106" type="curve" smooth="yes"/>
      <point x="660" y="602" type="line" smooth="yes"/>
      <point x="660" y="675"/>
      <point x="672" y="685"/>
      <point x="738" y="688" type="curve"/>
      <point x="738" y="708" type="line"/>
      <point x="708" y="706"/>
      <point x="656" y="705"/>
      <point x="599" y="705" type="curve" smooth="yes"/>
      <point x="548" y="705"/>
      <point x="493" y="706"/>
      <point x="459" y="708" type="curve"/>
      <point x="459" y="688" type="line"/>
      <point x="525" y="685"/>
      <point x="537" y="675"/>
      <point x="537" y="602" type="curve" smooth="yes"/>
      <point x="537" y="106" type="line" smooth="yes"/>
      <point x="537" y="33"/>
      <point x="525" y="23"/>
      <point x="459" y="20" type="curve"/>
      <point x="459" y="0" type="line"/>
    </contour>
    <contour>
      <point x="69" y="2"/>
      <point x="122" y="3"/>
      <point x="180" y="3" type="curve" smooth="yes"/>
      <point x="230" y="3"/>
      <point x="284" y="2"/>
      <point x="317" y="0" type="curve"/>
      <point x="317" y="20" type="line"/>
      <point x="251" y="23"/>
      <point x="239" y="33"/>
      <point x="239" y="106" type="curve" smooth="yes"/>
      <point x="239" y="602" type="line" smooth="yes"/>
      <point x="239" y="675"/>
      <point x="251" y="685"/>
      <point x="317" y="688" type="curve"/>
      <point x="317" y="708" type="line"/>
      <point x="284" y="706"/>
      <point x="230" y="705"/>
      <point x="180" y="705" type="curve" smooth="yes"/>
      <point x="122" y="705"/>
      <point x="69" y="706"/>
      <point x="38" y="708" type="curve"/>
      <point x="38" y="688" type="line"/>
      <point x="104" y="685"/>
      <point x="117" y="675"/>
      <point x="117" y="602" type="curve" smooth="yes"/>
      <point x="117" y="106" type="line" smooth="yes"/>
      <point x="117" y="33"/>
      <point x="104" y="23"/>
      <point x="38" y="20" type="curve"/>
      <point x="38" y="0" type="line"/>
    </contour>
    <contour>
      <point x="586" y="346" type="line"/>
      <point x="586" y="366" type="line"/>
      <point x="191" y="366" type="line"/>
      <point x="191" y="346" type="line"/>
    </contour>
    <contour>
      <point x="389" y="515" type="move" name="center"/>
    </contour>
    <contour>
      <point x="391" y="708" type="move" name="top"/>
    </contour>
    <contour>
      <point x="38" y="708" type="move" name="topleft"/>
    </contour>
    <contour>
      <point x="389" y="0" type="move" name="bottom"/>
    </contour>
  </outline>
</glyph>
<glyph name="I" format="1">
  <advance width="356"/>
  <unicode hex="0049"/>
  <outline>
    <contour>
      <point x="284" y="706"/>
      <point x="230" y="705"/>
      <point x="180" y="705" type="curve" smooth="yes"/>
      <point x="122" y="705"/>
      <point x="69" y="706"/>
      <point x="38" y="708" type="curve"/>
      <point x="38" y="688" type="line"/>
      <point x="104" y="685"/>
      <point x="117" y="675"/>
      <point x="117" y="602" type="curve" smooth="yes"/>
      <point x="117" y="106" type="line" smooth="yes"/>
      <point x="117" y="33"/>
      <point x="104" y="23"/>
      <point x="38" y="20" type="curve"/>
      <point x="38" y="0" type="line"/>
      <point x="69" y="2"/>
      <point x="122" y="3"/>
      <point x="180" y="3" type="curve" smooth="yes"/>
      <point x="230" y="3"/>
      <point x="284" y="2"/>
      <point x="317" y="0" type="curve"/>
      <point x="317" y="20" type="line"/>
      <point x="251" y="23"/>
      <point x="239" y="33"/>
      <point x="239" y="106" type="curve" smooth="yes"/>
      <point x="239" y="602" type="line" smooth="yes"/>
      <point x="239" y="675"/>
      <point x="251" y="685"/>
      <point x="317" y="688" type="curve"/>
      <point x="317" y="708" type="line"/>
    </contour>
    <contour>
      <point x="311" y="0" type="move" name="ogonek"/>
    </contour>
    <contour>
      <point x="180" y="0" type="move" name="bottom"/>
    </contour>
    <contour>
      <point x="180" y="708" type="move" name="top"/>
    </contour>
  </outline>
</glyph>
<glyph name="J" format="1">
  <advance width="343"/>
  <unicode hex="004A"/>
  <outline>
    <contour>
      <point x="111" y="-188"/>
      <point x="191" y="-118"/>
      <point x="216" y="-25" type="curve" smooth="yes"/>
      <point x="234" y="43"/>
      <point x="233" y="153"/>
      <point x="233" y="236" type="curve" smooth="yes"/>
      <point x="233" y="602" type="line" smooth="yes"/>
      <point x="233" y="675"/>
      <point x="245" y="685"/>
      <point x="312" y="688" type="curve"/>
      <point x="312" y="708" type="line"/>
      <point x="278" y="706"/>
      <point x="223" y="705"/>
      <point x="169" y="705" type="curve" smooth="yes"/>
      <point x="116" y="705"/>
      <point x="63" y="706"/>
      <point x="33" y="708" type="curve"/>
      <point x="33" y="688" type="line"/>
      <point x="98" y="685"/>
      <point x="111" y="675"/>
      <point x="111" y="602" type="curve" smooth="yes"/>
      <point x="111" y="53" type="line" smooth="yes"/>
      <point x="111" y="-113"/>
      <point x="64" y="-164"/>
      <point x="-21" y="-168" type="curve"/>
      <point x="-21" y="-188" type="line"/>
    </contour>
    <contour>
      <point x="171" y="708" type="move" name="top"/>
    </contour>
    <contour>
      <point x="165" y="-181" type="move" name="bottom"/>
    </contour>
  </outline>
</glyph>
<glyph name="K" format="1">
  <advance width="681"/>
  <unicode hex="004B"/>
  <outline>
    <contour>
      <point x="626" y="706"/>
      <point x="595" y="705"/>
      <point x="559" y="705" type="curve" smooth="yes"/>
      <point x="513" y="705"/>
      <point x="472" y="706"/>
      <point x="429" y="708" type="curve"/>
      <point x="429" y="688" type="line"/>
      <point x="511" y="686"/>
      <point x="518" y="636"/>
      <point x="448" y="550" type="curve" smooth="yes"/>
      <point x="368" y="450" type="line" smooth="yes"/>
      <point x="330" y="405"/>
      <point x="291" y="379"/>
      <point x="234" y="377" type="curve"/>
      <point x="234" y="357" type="line"/>
      <point x="276" y="355"/>
      <point x="293" y="346"/>
      <point x="328" y="292" type="curve" smooth="yes"/>
      <point x="474" y="65" type="line" smooth="yes"/>
      <point x="495" y="33"/>
      <point x="485" y="22"/>
      <point x="435" y="20" type="curve"/>
      <point x="435" y="0" type="line"/>
      <point x="490" y="3"/>
      <point x="524" y="3"/>
      <point x="549" y="3" type="curve" smooth="yes"/>
      <point x="588" y="3"/>
      <point x="647" y="2"/>
      <point x="685" y="0" type="curve"/>
      <point x="685" y="20" type="line"/>
      <point x="647" y="32"/>
      <point x="625" y="49"/>
      <point x="604" y="81" type="curve" smooth="yes"/>
      <point x="365" y="433" type="line"/>
      <point x="327" y="369" type="line"/>
      <point x="518" y="605" type="line" smooth="yes"/>
      <point x="562" y="660"/>
      <point x="606" y="681"/>
      <point x="648" y="688" type="curve"/>
      <point x="648" y="708" type="line"/>
    </contour>
    <contour>
      <point x="284" y="706"/>
      <point x="230" y="705"/>
      <point x="180" y="705" type="curve" smooth="yes"/>
      <point x="122" y="705"/>
      <point x="69" y="706"/>
      <point x="38" y="708" type="curve"/>
      <point x="38" y="688" type="line"/>
      <point x="104" y="685"/>
      <point x="117" y="675"/>
      <point x="117" y="602" type="curve" smooth="yes"/>
      <point x="117" y="106" type="line" smooth="yes"/>
      <point x="117" y="33"/>
      <point x="104" y="23"/>
      <point x="38" y="20" type="curve"/>
      <point x="38" y="0" type="line"/>
      <point x="69" y="2"/>
      <point x="122" y="3"/>
      <point x="180" y="3" type="curve" smooth="yes"/>
      <point x="230" y="3"/>
      <point x="284" y="2"/>
      <point x="317" y="0" type="curve"/>
      <point x="317" y="20" type="line"/>
      <point x="251" y="23"/>
      <point x="239" y="33"/>
      <point x="239" y="106" type="curve" smooth="yes"/>
      <point x="239" y="602" type="line" smooth="yes"/>
      <point x="239" y="675"/>
      <point x="251" y="685"/>
      <point x="317" y="688" type="curve"/>
      <point x="317" y="708" type="line"/>
    </contour>
    <contour>
      <point x="368" y="708" type="move" name="top"/>
    </contour>
    <contour>
      <point x="369" y="0" type="move" name="bottom"/>
    </contour>
  </outline>
</glyph>
<glyph name="L" format="1">
  <advance width="598"/>
  <unicode hex="004C"/>
  <outline>
    <contour>
      <point x="286" y="706"/>
      <point x="231" y="705"/>
      <point x="180" y="705" type="curve" smooth="yes"/>
      <point x="122" y="705"/>
      <point x="69" y="706"/>
      <point x="38" y="708" type="curve"/>
      <point x="38" y="688" type="line"/>
      <point x="104" y="685"/>
      <point x="117" y="675"/>
      <point x="117" y="602" type="curve" smooth="yes"/>
      <point x="117" y="106" type="line" smooth="yes"/>
      <point x="117" y="33"/>
      <point x="104" y="23"/>
      <point x="38" y="20" type="curve"/>
      <point x="38" y="0" type="line"/>
      <point x="141" y="3"/>
      <point x="281" y="3"/>
      <point x="344" y="3" type="curve" smooth="yes"/>
      <point x="411" y="3"/>
      <point x="505" y="3"/>
      <point x="573" y="0" type="curve"/>
      <point x="568" y="56"/>
      <point x="566" y="114"/>
      <point x="566" y="141" type="curve" smooth="yes"/>
      <point x="566" y="174"/>
      <point x="567" y="204"/>
      <point x="569" y="226" type="curve"/>
      <point x="546" y="226" type="line"/>
      <point x="530" y="90"/>
      <point x="485" y="23"/>
      <point x="374" y="23" type="curve" smooth="yes"/>
      <point x="312" y="23" type="line" smooth="yes"/>
      <point x="251" y="23"/>
      <point x="239" y="32"/>
      <point x="239" y="101" type="curve" smooth="yes"/>
      <point x="239" y="602" type="line" smooth="yes"/>
      <point x="239" y="675"/>
      <point x="252" y="685"/>
      <point x="320" y="688" type="curve"/>
      <point x="320" y="708" type="line"/>
    </contour>
    <contour>
      <point x="180" y="354" type="move" name="center"/>
    </contour>
    <contour>
      <point x="180" y="708" type="move" name="top"/>
    </contour>
    <contour>
      <point x="350" y="708" type="move" name="right"/>
    </contour>
    <contour>
      <point x="342" y="0" type="move" name="bottom"/>
    </contour>
  </outline>
</glyph>
<glyph name="M" format="1">
  <advance width="896"/>
  <unicode hex="004D"/>
  <outline>
    <contour>
      <point x="824" y="706"/>
      <point x="769" y="705"/>
      <point x="717" y="705" type="curve" smooth="yes"/>
      <point x="698" y="705"/>
      <point x="679" y="705"/>
      <point x="660" y="705" type="curve"/>
      <point x="445" y="136" type="line"/>
      <point x="466" y="151" type="line"/>
      <point x="247" y="708" type="line"/>
      <point x="215" y="706"/>
      <point x="171" y="705"/>
      <point x="129" y="705" type="curve" smooth="yes"/>
      <point x="96" y="705"/>
      <point x="60" y="706"/>
      <point x="39" y="708" type="curve"/>
      <point x="39" y="688" type="line"/>
      <point x="105" y="685"/>
      <point x="117" y="675"/>
      <point x="117" y="602" type="curve" smooth="yes"/>
      <point x="117" y="132" type="line" smooth="yes"/>
      <point x="117" y="48"/>
      <point x="105" y="26"/>
      <point x="39" y="20" type="curve"/>
      <point x="39" y="0" type="line"/>
      <point x="60" y="2"/>
      <point x="96" y="3"/>
      <point x="129" y="3" type="curve" smooth="yes"/>
      <point x="164" y="3"/>
      <point x="209" y="2"/>
      <point x="234" y="0" type="curve"/>
      <point x="234" y="20" type="line"/>
      <point x="151" y="26"/>
      <point x="140" y="48"/>
      <point x="140" y="137" type="curve" smooth="yes"/>
      <point x="140" y="644" type="line"/>
      <point x="400" y="-3" type="line"/>
      <point x="416" y="-3" type="line"/>
      <point x="663" y="650" type="line"/>
      <point x="657" y="652" type="line"/>
      <point x="657" y="106" type="line" smooth="yes"/>
      <point x="657" y="33"/>
      <point x="644" y="23"/>
      <point x="576" y="20" type="curve"/>
      <point x="576" y="0" type="line"/>
      <point x="607" y="2"/>
      <point x="660" y="3"/>
      <point x="717" y="3" type="curve" smooth="yes"/>
      <point x="769" y="3"/>
      <point x="824" y="2"/>
      <point x="858" y="0" type="curve"/>
      <point x="858" y="20" type="line"/>
      <point x="792" y="23"/>
      <point x="779" y="33"/>
      <point x="779" y="106" type="curve" smooth="yes"/>
      <point x="779" y="602" type="line" smooth="yes"/>
      <point x="779" y="675"/>
      <point x="792" y="685"/>
      <point x="858" y="688" type="curve"/>
      <point x="858" y="708" type="line"/>
    </contour>
    <contour>
      <point x="449" y="708" type="move" name="top"/>
    </contour>
    <contour>
      <point x="449" y="0" type="move" name="bottom"/>
    </contour>
  </outline>
</glyph>
<glyph name="N" format="1">
  <advance width="713"/>
  <unicode hex="004E"/>
  <outline>
    <contour>
      <point x="659" y="706"/>
      <point x="623" y="705"/>
      <point x="590" y="705" type="curve" smooth="yes"/>
      <point x="555" y="705"/>
      <point x="510" y="706"/>
      <point x="485" y="708" type="curve"/>
      <point x="485" y="688" type="line"/>
      <point x="568" y="682"/>
      <point x="579" y="660"/>
      <point x="579" y="571" type="curve" smooth="yes"/>
      <point x="579" y="194" type="line"/>
      <point x="211" y="708" type="line"/>
      <point x="188" y="706"/>
      <point x="159" y="705"/>
      <point x="129" y="705" type="curve" smooth="yes"/>
      <point x="96" y="705"/>
      <point x="60" y="706"/>
      <point x="39" y="708" type="curve"/>
      <point x="39" y="688" type="line"/>
      <point x="105" y="685"/>
      <point x="117" y="675"/>
      <point x="117" y="602" type="curve" smooth="yes"/>
      <point x="117" y="132" type="line" smooth="yes"/>
      <point x="117" y="48"/>
      <point x="105" y="26"/>
      <point x="39" y="20" type="curve"/>
      <point x="39" y="0" type="line"/>
      <point x="60" y="2"/>
      <point x="96" y="3"/>
      <point x="129" y="3" type="curve" smooth="yes"/>
      <point x="164" y="3"/>
      <point x="209" y="2"/>
      <point x="234" y="0" type="curve"/>
      <point x="234" y="20" type="line"/>
      <point x="151" y="26"/>
      <point x="140" y="48"/>
      <point x="140" y="137" type="curve" smooth="yes"/>
      <point x="140" y="601" type="line"/>
      <point x="566" y="-4" type="line"/>
      <point x="579" y="-3"/>
      <point x="591" y="-3"/>
      <point x="602" y="-4" type="curve"/>
      <point x="602" y="576" type="line" smooth="yes"/>
      <point x="602" y="660"/>
      <point x="614" y="682"/>
      <point x="680" y="688" type="curve"/>
      <point x="680" y="708" type="line"/>
    </contour>
    <contour>
      <point x="376" y="708" type="move" name="top"/>
    </contour>
    <contour>
      <point x="369" y="0" type="move" name="bottom"/>
    </contour>
  </outline>
</glyph>
<glyph name="O" format="1">
  <advance width="764"/>
  <unicode hex="004F"/>
  <outline>
    <contour>
      <point x="187" y="722"/>
      <point x="48" y="572"/>
      <point x="48" y="348" type="curve" smooth="yes"/>
      <point x="48" y="119"/>
      <point x="182" y="-14"/>
      <point x="381" y="-14" type="curve" smooth="yes"/>
      <point x="577" y="-14"/>
      <point x="715" y="136"/>
      <point x="715" y="360" type="curve" smooth="yes"/>
      <point x="715" y="589"/>
      <point x="582" y="722"/>
      <point x="382" y="722" type="curve" smooth="yes"/>
    </contour>
    <contour>
      <point x="494" y="704"/>
      <point x="586" y="569"/>
      <point x="586" y="356" type="curve" smooth="yes"/>
      <point x="586" y="149"/>
      <point x="507" y="4"/>
      <point x="385" y="4" type="curve" smooth="yes"/>
      <point x="270" y="4"/>
      <point x="178" y="139"/>
      <point x="178" y="352" type="curve" smooth="yes"/>
      <point x="178" y="559"/>
      <point x="256" y="704"/>
      <point x="378" y="704" type="curve" smooth="yes"/>
    </contour>
    <contour>
      <point x="380" y="708" type="move" name="top"/>
    </contour>
    <contour>
      <point x="383" y="0" type="move" name="bottom"/>
    </contour>
  </outline>
</glyph>
<glyph name="P" format="1">
  <advance width="610"/>
  <unicode hex="0050"/>
  <outline>
    <contour>
      <point x="38" y="688" type="line"/>
      <point x="104" y="685"/>
      <point x="117" y="675"/>
      <point x="117" y="602" type="curve" smooth="yes"/>
      <point x="117" y="106" type="line" smooth="yes"/>
      <point x="117" y="33"/>
      <point x="104" y="23"/>
      <point x="38" y="20" type="curve"/>
      <point x="38" y="0" type="line"/>
      <point x="73" y="2"/>
      <point x="125" y="3"/>
      <point x="180" y="3" type="curve" smooth="yes"/>
      <point x="242" y="3"/>
      <point x="305" y="2"/>
      <point x="343" y="0" type="curve"/>
      <point x="343" y="21" type="line"/>
      <point x="256" y="23"/>
      <point x="239" y="33"/>
      <point x="239" y="109" type="curve" smooth="yes"/>
      <point x="239" y="602" type="line" smooth="yes"/>
      <point x="239" y="671"/>
      <point x="251" y="688"/>
      <point x="308" y="688" type="curve" smooth="yes"/>
      <point x="415" y="688"/>
      <point x="455" y="625"/>
      <point x="455" y="499" type="curve" smooth="yes"/>
      <point x="455" y="397"/>
      <point x="427" y="306"/>
      <point x="295" y="306" type="curve" smooth="yes"/>
      <point x="207" y="306" type="line"/>
      <point x="207" y="286" type="line"/>
      <point x="305" y="286" type="line" smooth="yes"/>
      <point x="525" y="286"/>
      <point x="584" y="413"/>
      <point x="584" y="510" type="curve" smooth="yes"/>
      <point x="584" y="626"/>
      <point x="499" y="707"/>
      <point x="327" y="707" type="curve" smooth="yes"/>
      <point x="303" y="707"/>
      <point x="238" y="705"/>
      <point x="174" y="705" type="curve" smooth="yes"/>
      <point x="124" y="705"/>
      <point x="69" y="706"/>
      <point x="38" y="708" type="curve"/>
    </contour>
    <contour>
      <point x="321" y="708" type="move" name="top"/>
    </contour>
    <contour>
      <point x="180" y="0" type="move" name="bottom"/>
    </contour>
  </outline>
</glyph>
<glyph name="Q" format="1">
  <advance width="764"/>
  <unicode hex="0051"/>
  <outline>
    <contour>
      <point x="724" y="-65"/>
      <point x="677" y="-90"/>
      <point x="587" y="-95" type="curve" smooth="yes"/>
      <point x="505" y="-100"/>
      <point x="379" y="-78"/>
      <point x="260" y="-62" type="curve"/>
      <point x="320" y="-45"/>
      <point x="349" y="-20"/>
      <point x="410" y="-13" type="curve"/>
      <point x="409" y="3" type="line"/>
      <point x="329" y="-4"/>
      <point x="297" y="-38"/>
      <point x="225" y="-57" type="curve"/>
      <point x="200" y="-50"/>
      <point x="171" y="-46"/>
      <point x="149" y="-46" type="curve" smooth="yes"/>
      <point x="112" y="-46"/>
      <point x="95" y="-55"/>
      <point x="95" y="-70" type="curve" smooth="yes"/>
      <point x="95" y="-86"/>
      <point x="114" y="-93"/>
      <point x="141" y="-93" type="curve" smooth="yes"/>
      <point x="167" y="-93"/>
      <point x="199" y="-86"/>
      <point x="225" y="-75" type="curve"/>
      <point x="230" y="-76"/>
      <point x="240" y="-79"/>
      <point x="249" y="-82" type="curve" smooth="yes"/>
      <point x="373" y="-126"/>
      <point x="465" y="-188"/>
      <point x="573" y="-188" type="curve" smooth="yes"/>
      <point x="636" y="-188"/>
      <point x="679" y="-169"/>
      <point x="706" y="-146" type="curve" smooth="yes"/>
      <point x="736" y="-120"/>
      <point x="758" y="-76"/>
      <point x="771" y="-13" type="curve"/>
      <point x="755" y="-7" type="line"/>
    </contour>
    <component base="O"/>
    <contour>
      <point x="382" y="-181" type="move" name="bottom"/>
    </contour>
  </outline>
</glyph>
<glyph name="R" format="1">
  <advance width="667"/>
  <unicode hex="0052"/>
  <outline>
    <contour>
      <point x="38" y="688" type="line"/>
      <point x="104" y="685"/>
      <point x="117" y="675"/>
      <point x="117" y="602" type="curve" smooth="yes"/>
      <point x="117" y="106" type="line" smooth="yes"/>
      <point x="117" y="33"/>
      <point x="104" y="23"/>
      <point x="38" y="20" type="curve"/>
      <point x="38" y="0" type="line"/>
      <point x="69" y="2"/>
      <point x="122" y="3"/>
      <point x="180" y="3" type="curve" smooth="yes"/>
      <point x="230" y="3"/>
      <point x="284" y="2"/>
      <point x="317" y="0" type="curve"/>
      <point x="317" y="20" type="line"/>
      <point x="251" y="23"/>
      <point x="239" y="33"/>
      <point x="239" y="106" type="curve" smooth="yes"/>
      <point x="239" y="602" type="line" smooth="yes"/>
      <point x="239" y="671"/>
      <point x="251" y="688"/>
      <point x="308" y="688" type="curve" smooth="yes"/>
      <point x="415" y="688"/>
      <point x="455" y="627"/>
      <point x="455" y="522" type="curve" smooth="yes"/>
      <point x="455" y="430"/>
      <point x="427" y="356"/>
      <point x="295" y="356" type="curve" smooth="yes"/>
      <point x="209" y="356" type="line"/>
      <point x="209" y="336" type="line"/>
      <point x="305" y="336" type="line" smooth="yes"/>
      <point x="525" y="336"/>
      <point x="584" y="449"/>
      <point x="584" y="533" type="curve" smooth="yes"/>
      <point x="584" y="636"/>
      <point x="499" y="707"/>
      <point x="327" y="707" type="curve" smooth="yes"/>
      <point x="303" y="707"/>
      <point x="238" y="705"/>
      <point x="174" y="705" type="curve" smooth="yes"/>
      <point x="124" y="705"/>
      <point x="69" y="706"/>
      <point x="38" y="708" type="curve"/>
    </contour>
    <contour>
      <point x="213" y="336" type="line"/>
      <point x="321" y="336" type="line" smooth="yes"/>
      <point x="392" y="336"/>
      <point x="408" y="278"/>
      <point x="425" y="194" type="curve" smooth="yes"/>
      <point x="445" y="94" type="line" smooth="yes"/>
      <point x="462" y="10"/>
      <point x="505" y="-14"/>
      <point x="564" y="-14" type="curve" smooth="yes"/>
      <point x="620" y="-14"/>
      <point x="651" y="6"/>
      <point x="683" y="47" type="curve"/>
      <point x="668" y="59" type="line"/>
      <point x="653" y="40"/>
      <point x="642" y="28"/>
      <point x="621" y="28" type="curve" smooth="yes"/>
      <point x="594" y="27"/>
      <point x="583" y="48"/>
      <point x="570" y="105" type="curve" smooth="yes"/>
      <point x="547" y="208" type="line" smooth="yes"/>
      <point x="528" y="291"/>
      <point x="487" y="326"/>
      <point x="384" y="339" type="curve" smooth="yes"/>
      <point x="346" y="344"/>
      <point x="308" y="349"/>
      <point x="211" y="353" type="curve"/>
    </contour>
    <contour>
      <point x="308" y="708" type="move" name="top"/>
    </contour>
    <contour>
      <point x="349" y="0" type="move" name="bottom"/>
    </contour>
  </outline>
</glyph>
<glyph name="S" format="1">
  <advance width="559"/>
  <unicode hex="0053"/>
  <outline>
    <contour>
      <point x="161" y="720"/>
      <point x="64" y="664"/>
      <point x="64" y="543" type="curve" smooth="yes"/>
      <point x="64" y="430"/>
      <point x="147" y="375"/>
      <point x="242" y="317" type="curve" smooth="yes"/>
      <point x="333" y="260"/>
      <point x="396" y="214"/>
      <point x="396" y="132" type="curve" smooth="yes"/>
      <point x="396" y="47"/>
      <point x="335" y="9"/>
      <point x="268" y="9" type="curve" smooth="yes"/>
      <point x="140" y="9"/>
      <point x="94" y="120"/>
      <point x="86" y="246" type="curve"/>
      <point x="63" y="246" type="line"/>
      <point x="63" y="97"/>
      <point x="62" y="37"/>
      <point x="59" y="-7" type="curve"/>
      <point x="82" y="-7" type="line"/>
      <point x="86" y="22"/>
      <point x="91" y="37"/>
      <point x="104" y="37" type="curve" smooth="yes"/>
      <point x="112" y="37"/>
      <point x="122" y="33"/>
      <point x="138" y="23" type="curve" smooth="yes"/>
      <point x="169" y="5"/>
      <point x="210" y="-14"/>
      <point x="286" y="-14" type="curve" smooth="yes"/>
      <point x="410" y="-14"/>
      <point x="514" y="49"/>
      <point x="514" y="178" type="curve" smooth="yes"/>
      <point x="514" y="286"/>
      <point x="439" y="339"/>
      <point x="339" y="403" type="curve" smooth="yes"/>
      <point x="239" y="468"/>
      <point x="169" y="502"/>
      <point x="169" y="589" type="curve" smooth="yes"/>
      <point x="169" y="655"/>
      <point x="217" y="699"/>
      <point x="285" y="699" type="curve" smooth="yes"/>
      <point x="394" y="699"/>
      <point x="445" y="596"/>
      <point x="452" y="497" type="curve"/>
      <point x="475" y="497" type="line"/>
      <point x="475" y="630"/>
      <point x="477" y="675"/>
      <point x="480" y="712" type="curve"/>
      <point x="457" y="712" type="line"/>
      <point x="453" y="683"/>
      <point x="448" y="668"/>
      <point x="435" y="668" type="curve" smooth="yes"/>
      <point x="426" y="668"/>
      <point x="417" y="672"/>
      <point x="401" y="682" type="curve" smooth="yes"/>
      <point x="372" y="700"/>
      <point x="340" y="720"/>
      <point x="268" y="720" type="curve" smooth="yes"/>
    </contour>
    <contour>
      <point x="285" y="708" type="move" name="top"/>
    </contour>
    <contour>
      <point x="293" y="0" type="move" name="bottom"/>
    </contour>
  </outline>
</glyph>
<glyph name="T" format="1">
  <advance width="642"/>
  <unicode hex="0054"/>
  <outline>
    <contour>
      <point x="528" y="705"/>
      <point x="407" y="705"/>
      <point x="321" y="705" type="curve" smooth="yes"/>
      <point x="236" y="705"/>
      <point x="114" y="705"/>
      <point x="27" y="708" type="curve"/>
      <point x="32" y="650"/>
      <point x="34" y="590"/>
      <point x="34" y="561" type="curve" smooth="yes"/>
      <point x="34" y="530"/>
      <point x="33" y="502"/>
      <point x="31" y="482" type="curve"/>
      <point x="54" y="482" type="line"/>
      <point x="77" y="634"/>
      <point x="109" y="685"/>
      <point x="220" y="685" type="curve" smooth="yes"/>
      <point x="260" y="685" type="line"/>
      <point x="260" y="115" type="line" smooth="yes"/>
      <point x="260" y="34"/>
      <point x="242" y="22"/>
      <point x="156" y="20" type="curve"/>
      <point x="156" y="0" type="line"/>
      <point x="192" y="2"/>
      <point x="253" y="3"/>
      <point x="320" y="3" type="curve" smooth="yes"/>
      <point x="382" y="3"/>
      <point x="448" y="2"/>
      <point x="486" y="0" type="curve"/>
      <point x="486" y="20" type="line"/>
      <point x="400" y="22"/>
      <point x="382" y="34"/>
      <point x="382" y="115" type="curve" smooth="yes"/>
      <point x="382" y="685" type="line"/>
      <point x="422" y="685" type="line" smooth="yes"/>
      <point x="533" y="685"/>
      <point x="565" y="634"/>
      <point x="587" y="482" type="curve"/>
      <point x="610" y="482" type="line"/>
      <point x="608" y="502"/>
      <point x="607" y="530"/>
      <point x="607" y="561" type="curve" smooth="yes"/>
      <point x="607" y="590"/>
      <point x="609" y="650"/>
      <point x="614" y="708" type="curve"/>
    </contour>
    <contour>
      <point x="321" y="354" type="move" name="center"/>
    </contour>
    <contour>
      <point x="320" y="0" type="move" name="bottom"/>
    </contour>
    <contour>
      <point x="321" y="708" type="move" name="top"/>
    </contour>
  </outline>
</glyph>
<glyph name="U" format="1">
  <advance width="685"/>
  <unicode hex="0055"/>
  <outline>
    <contour>
      <point x="640" y="706"/>
      <point x="605" y="705"/>
      <point x="572" y="705" type="curve" smooth="yes"/>
      <point x="537" y="705"/>
      <point x="492" y="706"/>
      <point x="467" y="708" type="curve"/>
      <point x="467" y="688" type="line"/>
      <point x="542" y="682"/>
      <point x="561" y="660"/>
      <point x="561" y="571" type="curve" smooth="yes"/>
      <point x="561" y="280" type="line" smooth="yes"/>
      <point x="561" y="130"/>
      <point x="520" y="21"/>
      <point x="373" y="21" type="curve" smooth="yes"/>
      <point x="247" y="21"/>
      <point x="224" y="115"/>
      <point x="224" y="250" type="curve" smooth="yes"/>
      <point x="224" y="602" type="line" smooth="yes"/>
      <point x="224" y="675"/>
      <point x="237" y="685"/>
      <point x="305" y="688" type="curve"/>
      <point x="305" y="708" type="line"/>
      <point x="271" y="706"/>
      <point x="216" y="705"/>
      <point x="164" y="705" type="curve" smooth="yes"/>
      <point x="108" y="705"/>
      <point x="54" y="706"/>
      <point x="23" y="708" type="curve"/>
      <point x="23" y="688" type="line"/>
      <point x="89" y="685"/>
      <point x="102" y="675"/>
      <point x="102" y="602" type="curve" smooth="yes"/>
      <point x="102" y="288" type="line" smooth="yes"/>
      <point x="102" y="155"/>
      <point x="116" y="92"/>
      <point x="178" y="38" type="curve" smooth="yes"/>
      <point x="224" y="-2"/>
      <point x="288" y="-14"/>
      <point x="351" y="-14" type="curve" smooth="yes"/>
      <point x="442" y="-14"/>
      <point x="509" y="22"/>
      <point x="543" y="79" type="curve" smooth="yes"/>
      <point x="573" y="131"/>
      <point x="584" y="201"/>
      <point x="584" y="291" type="curve" smooth="yes"/>
      <point x="584" y="576" type="line" smooth="yes"/>
      <point x="584" y="660"/>
      <point x="596" y="682"/>
      <point x="662" y="688" type="curve"/>
      <point x="662" y="708" type="line"/>
    </contour>
    <contour>
      <point x="447" y="0" type="move" name="ogonek"/>
    </contour>
    <contour>
      <point x="370" y="0" type="move" name="bottom"/>
    </contour>
    <contour>
      <point x="354" y="708" type="move" name="top"/>
    </contour>
  </outline>
</glyph>
<glyph name="V" format="1">
  <advance width="647"/>
  <unicode hex="0056"/>
  <outline>
    <contour>
      <point x="635" y="706"/>
      <point x="611" y="705"/>
      <point x="580" y="705" type="curve" smooth="yes"/>
      <point x="542" y="705"/>
      <point x="502" y="706"/>
      <point x="460" y="708" type="curve"/>
      <point x="460" y="688" type="line"/>
      <point x="543" y="686"/>
      <point x="570" y="646"/>
      <point x="523" y="520" type="curve" smooth="yes"/>
      <point x="365" y="104" type="line"/>
      <point x="383" y="124" type="line"/>
      <point x="198" y="604" type="line" smooth="yes"/>
      <point x="171" y="673"/>
      <point x="190" y="685"/>
      <point x="257" y="688" type="curve"/>
      <point x="257" y="708" type="line"/>
      <point x="227" y="706"/>
      <point x="175" y="705"/>
      <point x="118" y="705" type="curve" smooth="yes"/>
      <point x="73" y="705"/>
      <point x="24" y="706"/>
      <point x="-9" y="708" type="curve"/>
      <point x="-9" y="688" type="line"/>
      <point x="12" y="687"/>
      <point x="38" y="674"/>
      <point x="58" y="624" type="curve" smooth="yes"/>
      <point x="306" y="-4" type="line"/>
      <point x="313" y="-3"/>
      <point x="319" y="-3"/>
      <point x="326" y="-3" type="curve"/>
      <point x="333" y="-3"/>
      <point x="340" y="-3"/>
      <point x="346" y="-4" type="curve"/>
      <point x="571" y="587" type="line" smooth="yes"/>
      <point x="595" y="654"/>
      <point x="628" y="680"/>
      <point x="655" y="688" type="curve"/>
      <point x="655" y="708" type="line"/>
    </contour>
    <contour>
      <point x="324" y="708" type="move" name="top"/>
    </contour>
    <contour>
      <point x="324" y="0" type="move" name="bottom"/>
    </contour>
  </outline>
</glyph>
<glyph name="W" format="1">
  <advance width="933"/>
  <unicode hex="0057"/>
  <outline>
    <contour>
      <point x="917" y="706"/>
      <point x="893" y="705"/>
      <point x="861" y="705" type="curve" smooth="yes"/>
      <point x="823" y="705"/>
      <point x="783" y="706"/>
      <point x="742" y="708" type="curve"/>
      <point x="742" y="688" type="line"/>
      <point x="825" y="686"/>
      <point x="849" y="648"/>
      <point x="808" y="520" type="curve" smooth="yes"/>
      <point x="685" y="130" type="line"/>
      <point x="703" y="155" type="line"/>
      <point x="557" y="604" type="line" smooth="yes"/>
      <point x="532" y="679"/>
      <point x="553" y="685"/>
      <point x="615" y="688" type="curve"/>
      <point x="615" y="708" type="line"/>
      <point x="585" y="706"/>
      <point x="535" y="705"/>
      <point x="480" y="705" type="curve" smooth="yes"/>
      <point x="438" y="705"/>
      <point x="392" y="706"/>
      <point x="362" y="708" type="curve"/>
      <point x="362" y="688" type="line"/>
      <point x="382" y="687"/>
      <point x="404" y="676"/>
      <point x="419" y="629" type="curve" smooth="yes"/>
      <point x="631" y="-4" type="line"/>
      <point x="637" y="-3"/>
      <point x="643" y="-3"/>
      <point x="650" y="-3" type="curve"/>
      <point x="657" y="-3"/>
      <point x="664" y="-3"/>
      <point x="670" y="-4" type="curve"/>
      <point x="854" y="587" type="line" smooth="yes"/>
      <point x="875" y="655"/>
      <point x="909" y="680"/>
      <point x="937" y="688" type="curve"/>
      <point x="937" y="708" type="line"/>
    </contour>
    <contour>
      <point x="206" y="706"/>
      <point x="165" y="705"/>
      <point x="117" y="705" type="curve" smooth="yes"/>
      <point x="73" y="705"/>
      <point x="23" y="706"/>
      <point x="-9" y="708" type="curve"/>
      <point x="-9" y="688" type="line"/>
      <point x="11" y="687"/>
      <point x="39" y="674"/>
      <point x="57" y="624" type="curve" smooth="yes"/>
      <point x="275" y="-4" type="line"/>
      <point x="281" y="-3"/>
      <point x="287" y="-3"/>
      <point x="294" y="-3" type="curve"/>
      <point x="301" y="-3"/>
      <point x="308" y="-3"/>
      <point x="314" y="-4" type="curve"/>
      <point x="476" y="503" type="line"/>
      <point x="461" y="528" type="line"/>
      <point x="327" y="114" type="line"/>
      <point x="352" y="144" type="line"/>
      <point x="199" y="604" type="line" smooth="yes"/>
      <point x="181" y="657"/>
      <point x="183" y="683"/>
      <point x="231" y="688" type="curve"/>
      <point x="231" y="708" type="line"/>
    </contour>
    <contour>
      <point x="480" y="708" type="move" name="top"/>
    </contour>
    <contour>
      <point x="467" y="0" type="move" name="bottom"/>
    </contour>
  </outline>
</glyph>
<glyph name="X" format="1">
  <advance width="659"/>
  <unicode hex="0058"/>
  <outline>
    <contour>
      <point x="233" y="707"/>
      <point x="178" y="704"/>
      <point x="122" y="704" type="curve" smooth="yes"/>
      <point x="79" y="704"/>
      <point x="33" y="707"/>
      <point x="11" y="708" type="curve"/>
      <point x="11" y="687" type="line"/>
      <point x="40" y="685"/>
      <point x="51" y="676"/>
      <point x="77" y="637" type="curve" smooth="yes"/>
      <point x="464" y="55" type="line" smooth="yes"/>
      <point x="483" y="27"/>
      <point x="466" y="21"/>
      <point x="402" y="21" type="curve"/>
      <point x="402" y="0" type="line"/>
      <point x="431" y="1"/>
      <point x="495" y="4"/>
      <point x="552" y="4" type="curve" smooth="yes"/>
      <point x="595" y="4"/>
      <point x="640" y="1"/>
      <point x="661" y="0" type="curve"/>
      <point x="661" y="21" type="line"/>
      <point x="632" y="23"/>
      <point x="621" y="32"/>
      <point x="595" y="71" type="curve" smooth="yes"/>
      <point x="211" y="646" type="line" smooth="yes"/>
      <point x="192" y="675"/>
      <point x="204" y="687"/>
      <point x="269" y="687" type="curve"/>
      <point x="269" y="708" type="line"/>
    </contour>
    <contour>
      <point x="138" y="125" type="line" smooth="yes"/>
      <point x="95" y="66"/>
      <point x="55" y="30"/>
      <point x="11" y="20" type="curve"/>
      <point x="11" y="0" type="line"/>
      <point x="32" y="2"/>
      <point x="64" y="3"/>
      <point x="99" y="3" type="curve" smooth="yes"/>
      <point x="134" y="3"/>
      <point x="207" y="2"/>
      <point x="245" y="0" type="curve"/>
      <point x="245" y="20" type="line"/>
      <point x="159" y="23"/>
      <point x="123" y="65"/>
      <point x="199" y="172" type="curve" smooth="yes"/>
      <point x="312" y="335" type="line"/>
      <point x="312" y="335"/>
      <point x="303" y="361"/>
      <point x="303" y="361" type="curve"/>
    </contour>
    <contour>
      <point x="609" y="706"/>
      <point x="577" y="705"/>
      <point x="541" y="705" type="curve" smooth="yes"/>
      <point x="507" y="705"/>
      <point x="459" y="706"/>
      <point x="421" y="708" type="curve"/>
      <point x="421" y="688" type="line"/>
      <point x="504" y="685"/>
      <point x="525" y="646"/>
      <point x="451" y="543" type="curve" smooth="yes"/>
      <point x="342" y="387" type="line"/>
      <point x="342" y="387"/>
      <point x="349" y="361"/>
      <point x="349" y="361" type="curve"/>
      <point x="510" y="590" type="line" smooth="yes"/>
      <point x="547" y="643"/>
      <point x="587" y="679"/>
      <point x="629" y="688" type="curve"/>
      <point x="629" y="708" type="line"/>
    </contour>
    <contour>
      <point x="330" y="708" type="move" name="top"/>
    </contour>
    <contour>
      <point x="330" y="0" type="move" name="bottom"/>
    </contour>
  </outline>
</glyph>
<glyph name="Y" format="1">
  <advance width="605"/>
  <unicode hex="0059"/>
  <outline>
    <contour>
      <point x="581" y="706"/>
      <point x="557" y="705"/>
      <point x="525" y="705" type="curve" smooth="yes"/>
      <point x="487" y="705"/>
      <point x="447" y="706"/>
      <point x="406" y="708" type="curve"/>
      <point x="406" y="688" type="line"/>
      <point x="489" y="686"/>
      <point x="522" y="652"/>
      <point x="460" y="527" type="curve" smooth="yes"/>
      <point x="340" y="288" type="line"/>
      <point x="358" y="309" type="line"/>
      <point x="194" y="624" type="line" smooth="yes"/>
      <point x="167" y="676"/>
      <point x="208" y="687"/>
      <point x="258" y="687" type="curve"/>
      <point x="258" y="708" type="line"/>
      <point x="209" y="705"/>
      <point x="147" y="704"/>
      <point x="97" y="704" type="curve" smooth="yes"/>
      <point x="57" y="704"/>
      <point x="25" y="706"/>
      <point x="-5" y="708" type="curve"/>
      <point x="-5" y="687" type="line"/>
      <point x="9" y="687"/>
      <point x="27" y="678"/>
      <point x="53" y="631" type="curve" smooth="yes"/>
      <point x="287" y="199" type="line"/>
      <point x="318" y="199" type="line"/>
      <point x="514" y="588" type="line" smooth="yes"/>
      <point x="547" y="652"/>
      <point x="573" y="680"/>
      <point x="601" y="688" type="curve"/>
      <point x="601" y="708" type="line"/>
    </contour>
    <contour>
      <point x="320" y="249" type="line"/>
      <point x="252" y="311" type="line"/>
      <point x="252" y="106" type="line" smooth="yes"/>
      <point x="252" y="33"/>
      <point x="239" y="23"/>
      <point x="173" y="20" type="curve"/>
      <point x="173" y="0" type="line"/>
      <point x="203" y="2"/>
      <point x="257" y="3"/>
      <point x="313" y="3" type="curve" smooth="yes"/>
      <point x="364" y="3"/>
      <point x="419" y="2"/>
      <point x="452" y="0" type="curve"/>
      <point x="452" y="20" type="line"/>
      <point x="386" y="23"/>
      <point x="374" y="33"/>
      <point x="374" y="106" type="curve" smooth="yes"/>
      <point x="374" y="328" type="line"/>
    </contour>
    <contour>
      <point x="316" y="708" type="move" name="top"/>
    </contour>
    <contour>
      <point x="303" y="0" type="move" name="bottom"/>
    </contour>
  </outline>
</glyph>
<glyph name="Z" format="1">
  <advance width="597"/>
  <unicode hex="005A"/>
  <outline>
    <contour>
      <point x="474" y="705"/>
      <point x="374" y="705"/>
      <point x="291" y="705" type="curve" smooth="yes"/>
      <point x="221" y="705"/>
      <point x="124" y="705"/>
      <point x="53" y="708" type="curve"/>
      <point x="58" y="653"/>
      <point x="60" y="596"/>
      <point x="60" y="569" type="curve" smooth="yes"/>
      <point x="60" y="538"/>
      <point x="59" y="510"/>
      <point x="57" y="490" type="curve"/>
      <point x="80" y="490" type="line"/>
      <point x="96" y="637"/>
      <point x="146" y="685"/>
      <point x="260" y="685" type="curve" smooth="yes"/>
      <point x="416" y="685" type="line"/>
      <point x="41" y="20" type="line"/>
      <point x="41" y="0" type="line"/>
      <point x="120" y="3"/>
      <point x="215" y="3"/>
      <point x="297" y="3" type="curve" smooth="yes"/>
      <point x="370" y="3"/>
      <point x="472" y="3"/>
      <point x="546" y="0" type="curve"/>
      <point x="541" y="55"/>
      <point x="539" y="112"/>
      <point x="539" y="139" type="curve" smooth="yes"/>
      <point x="539" y="172"/>
      <point x="540" y="202"/>
      <point x="542" y="223" type="curve"/>
      <point x="519" y="223" type="line"/>
      <point x="504" y="73"/>
      <point x="444" y="23"/>
      <point x="334" y="23" type="curve" smooth="yes"/>
      <point x="180" y="23" type="line"/>
      <point x="553" y="688" type="line"/>
      <point x="553" y="708" type="line"/>
    </contour>
    <contour>
      <point x="298" y="708" type="move" name="top"/>
    </contour>
    <contour>
      <point x="302" y="0" type="move" name="bottom"/>
    </contour>
  </outline>
</glyph>
<glyph name="bracketleft" format="1">
  <advance width="308"/>
  <unicode hex="005B"/>
  <outline>
    <contour>
      <point x="88" y="772" type="line"/>
      <point x="88" y="-181" type="line"/>
      <point x="273" y="-181" type="line"/>
      <point x="273" y="-162" type="line"/>
      <point x="202" y="-162" type="line"/>
      <point x="202" y="753" type="line"/>
      <point x="273" y="753" type="line"/>
      <point x="273" y="772" type="line"/>
    </contour>
  </outline>
</glyph>
<glyph name="asciicircum" format="1">
  <advance width="533"/>
  <unicode hex="005E"/>
  <outline>
    <contour>
      <point x="257" y="528" type="line"/>
      <point x="222" y="452"/>
      <point x="151" y="375"/>
      <point x="65" y="331" type="curve"/>
      <point x="73" y="317" type="line"/>
      <point x="139" y="342"/>
      <point x="207" y="383"/>
      <point x="246" y="421" type="curve"/>
      <point x="293" y="383"/>
      <point x="378" y="342"/>
      <point x="460" y="317" type="curve"/>
      <point x="468" y="331" type="line"/>
      <point x="382" y="375"/>
      <point x="310" y="452"/>
      <point x="275" y="528" type="curve"/>
    </contour>
  </outline>
</glyph>
<glyph name="a" format="1">
  <advance width="507"/>
  <unicode hex="0061"/>
  <outline>
    <contour>
      <point x="231" y="-7"/>
      <point x="278" y="23"/>
      <point x="312" y="79" type="curve"/>
      <point x="313" y="24"/>
      <point x="339" y="-7"/>
      <point x="405" y="-7" type="curve" smooth="yes"/>
      <point x="448" y="-7"/>
      <point x="476" y="8"/>
      <point x="504" y="30" type="curve"/>
      <point x="493" y="47" type="line"/>
      <point x="477" y="34"/>
      <point x="466" y="28"/>
      <point x="452" y="28" type="curve" smooth="yes"/>
      <point x="433" y="28"/>
      <point x="425" y="41"/>
      <point x="425" y="74" type="curve" smooth="yes"/>
      <point x="425" y="349" type="line" smooth="yes"/>
      <point x="425" y="414"/>
      <point x="419" y="458"/>
      <point x="386" y="490" type="curve" smooth="yes"/>
      <point x="356" y="518"/>
      <point x="314" y="530"/>
      <point x="256" y="530" type="curve" smooth="yes"/>
      <point x="194" y="530"/>
      <point x="142" y="514"/>
      <point x="109" y="493" type="curve" smooth="yes"/>
      <point x="78" y="473"/>
      <point x="59" y="451"/>
      <point x="59" y="416" type="curve" smooth="yes"/>
      <point x="59" y="380"/>
      <point x="79" y="348"/>
      <point x="122" y="348" type="curve" smooth="yes"/>
      <point x="160" y="348"/>
      <point x="189" y="372"/>
      <point x="189" y="411" type="curve" smooth="yes"/>
      <point x="189" y="445"/>
      <point x="168" y="470"/>
      <point x="137" y="479" type="curve"/>
      <point x="158" y="503"/>
      <point x="194" y="510"/>
      <point x="224" y="510" type="curve" smooth="yes"/>
      <point x="278" y="510"/>
      <point x="311" y="484"/>
      <point x="311" y="414" type="curve" smooth="yes"/>
      <point x="311" y="345" type="line" smooth="yes"/>
      <point x="311" y="252"/>
      <point x="34" y="291"/>
      <point x="34" y="118" type="curve" smooth="yes"/>
      <point x="34" y="46"/>
      <point x="81" y="-7"/>
      <point x="167" y="-7" type="curve" smooth="yes"/>
    </contour>
    <contour>
      <point x="174" y="44"/>
      <point x="146" y="73"/>
      <point x="146" y="127" type="curve" smooth="yes"/>
      <point x="146" y="247"/>
      <point x="275" y="249"/>
      <point x="311" y="304" type="curve"/>
      <point x="311" y="104" type="line"/>
      <point x="286" y="63"/>
      <point x="255" y="44"/>
      <point x="219" y="44" type="curve" smooth="yes"/>
    </contour>
    <contour>
      <point x="459" y="0" type="move" name="ogonek"/>
    </contour>
    <contour>
      <point x="254" y="0" type="move" name="bottom"/>
    </contour>
    <contour>
      <point x="252" y="515" type="move" name="top"/>
    </contour>
  </outline>
</glyph>
<glyph name="b" format="1">
  <advance width="573"/>
  <unicode hex="0062"/>
  <outline>
    <contour>
      <point x="261" y="530"/>
      <point x="194" y="475"/>
      <point x="176" y="379" type="curve"/>
      <point x="184" y="355" type="line"/>
      <point x="193" y="445"/>
      <point x="247" y="494"/>
      <point x="302" y="494" type="curve" smooth="yes"/>
      <point x="373" y="494"/>
      <point x="409" y="424"/>
      <point x="409" y="258" type="curve" smooth="yes"/>
      <point x="409" y="88"/>
      <point x="368" y="8"/>
      <point x="286" y="8" type="curve" smooth="yes"/>
      <point x="243" y="8"/>
      <point x="198" y="29"/>
      <point x="169" y="71" type="curve"/>
      <point x="152" y="75" type="line"/>
      <point x="184" y="14"/>
      <point x="243" y="-14"/>
      <point x="304" y="-14" type="curve" smooth="yes"/>
      <point x="426" y="-14"/>
      <point x="530" y="71"/>
      <point x="530" y="264" type="curve" smooth="yes"/>
      <point x="530" y="442"/>
      <point x="451" y="530"/>
      <point x="344" y="530" type="curve" smooth="yes"/>
    </contour>
    <contour>
      <point x="155" y="773"/>
      <point x="113" y="769"/>
      <point x="67" y="769" type="curve" smooth="yes"/>
      <point x="47" y="769"/>
      <point x="26" y="770"/>
      <point x="5" y="772" type="curve"/>
      <point x="5" y="751" type="line"/>
      <point x="59" y="751"/>
      <point x="75" y="723"/>
      <point x="75" y="663" type="curve" smooth="yes"/>
      <point x="75" y="49" type="line" smooth="yes"/>
      <point x="75" y="29"/>
      <point x="74" y="10"/>
      <point x="68" y="-8" type="curve"/>
      <point x="85" y="-16" type="line"/>
      <point x="112" y="8"/>
      <point x="152" y="28"/>
      <point x="189" y="38" type="curve"/>
      <point x="189" y="783" type="line"/>
    </contour>
    <contour>
      <point x="287" y="758" type="move" name="top"/>
    </contour>
    <contour>
      <point x="287" y="0" type="move" name="bottom"/>
    </contour>
  </outline>
</glyph>
<glyph name="c" format="1">
  <advance width="491"/>
  <unicode hex="0063"/>
  <outline>
    <contour>
      <point x="142" y="530"/>
      <point x="42" y="425"/>
      <point x="42" y="253" type="curve" smooth="yes"/>
      <point x="42" y="78"/>
      <point x="141" y="-14"/>
      <point x="268" y="-14" type="curve" smooth="yes"/>
      <point x="378" y="-14"/>
      <point x="437" y="64"/>
      <point x="459" y="133" type="curve"/>
      <point x="440" y="140" type="line"/>
      <point x="403" y="68"/>
      <point x="347" y="47"/>
      <point x="302" y="47" type="curve" smooth="yes"/>
      <point x="229" y="47"/>
      <point x="163" y="100"/>
      <point x="163" y="268" type="curve" smooth="yes"/>
      <point x="163" y="433"/>
      <point x="225" y="509"/>
      <point x="299" y="509" type="curve" smooth="yes"/>
      <point x="331" y="509"/>
      <point x="363" y="495"/>
      <point x="375" y="475" type="curve"/>
      <point x="347" y="468"/>
      <point x="323" y="443"/>
      <point x="323" y="408" type="curve" smooth="yes"/>
      <point x="323" y="371"/>
      <point x="350" y="347"/>
      <point x="387" y="347" type="curve" smooth="yes"/>
      <point x="424" y="347"/>
      <point x="452" y="373"/>
      <point x="452" y="414" type="curve" smooth="yes"/>
      <point x="452" y="449"/>
      <point x="433" y="478"/>
      <point x="401" y="499" type="curve" smooth="yes"/>
      <point x="371" y="518"/>
      <point x="327" y="530"/>
      <point x="281" y="530" type="curve" smooth="yes"/>
    </contour>
    <contour>
      <point x="265" y="515" type="move" name="top"/>
    </contour>
    <contour>
      <point x="270" y="0" type="move" name="bottom"/>
    </contour>
  </outline>
</glyph>
<glyph name="d" format="1">
  <advance width="588"/>
  <unicode hex="0064"/>
  <outline>
    <contour>
      <point x="464" y="773"/>
      <point x="422" y="769"/>
      <point x="375" y="769" type="curve" smooth="yes"/>
      <point x="355" y="769"/>
      <point x="334" y="770"/>
      <point x="313" y="772" type="curve"/>
      <point x="313" y="751" type="line"/>
      <point x="367" y="751"/>
      <point x="384" y="723"/>
      <point x="384" y="663" type="curve" smooth="yes"/>
      <point x="384" y="-11" type="line"/>
      <point x="419" y="-1"/>
      <point x="460" y="3"/>
      <point x="507" y="3" type="curve" smooth="yes"/>
      <point x="527" y="3"/>
      <point x="548" y="2"/>
      <point x="569" y="0" type="curve"/>
      <point x="569" y="21" type="line"/>
      <point x="515" y="21"/>
      <point x="498" y="49"/>
      <point x="498" y="109" type="curve" smooth="yes"/>
      <point x="498" y="783" type="line"/>
    </contour>
    <contour>
      <point x="145" y="530"/>
      <point x="43" y="440"/>
      <point x="43" y="259" type="curve" smooth="yes"/>
      <point x="43" y="73"/>
      <point x="125" y="-14"/>
      <point x="247" y="-14" type="curve" smooth="yes"/>
      <point x="331" y="-14"/>
      <point x="381" y="34"/>
      <point x="396" y="122" type="curve"/>
      <point x="387" y="145" type="line"/>
      <point x="380" y="66"/>
      <point x="333" y="22"/>
      <point x="282" y="22" type="curve" smooth="yes"/>
      <point x="207" y="22"/>
      <point x="164" y="92"/>
      <point x="164" y="258" type="curve" smooth="yes"/>
      <point x="164" y="425"/>
      <point x="215" y="504"/>
      <point x="289" y="504" type="curve" smooth="yes"/>
      <point x="333" y="504"/>
      <point x="370" y="485"/>
      <point x="388" y="440" type="curve"/>
      <point x="401" y="450" type="line"/>
      <point x="379" y="508"/>
      <point x="326" y="530"/>
      <point x="268" y="530" type="curve" smooth="yes"/>
    </contour>
    <contour>
      <point x="295" y="0" type="move" name="bottom"/>
    </contour>
    <contour>
      <point x="295" y="758" type="move" name="top"/>
    </contour>
    <contour>
      <point x="564" y="758" type="move" name="topright"/>
    </contour>
    <contour>
      <point x="564" y="608" type="move" name="bar-right"/>
    </contour>
    <contour>
      <point x="396" y="618" type="move" name="center"/>
    </contour>
  </outline>
</glyph>
<glyph name="e" format="1">
  <advance width="505"/>
  <unicode hex="0065"/>
  <outline>
    <contour>
      <point x="137" y="530"/>
      <point x="42" y="429"/>
      <point x="42" y="249" type="curve" smooth="yes"/>
      <point x="42" y="83"/>
      <point x="132" y="-14"/>
      <point x="272" y="-14" type="curve" smooth="yes"/>
      <point x="377" y="-14"/>
      <point x="442" y="59"/>
      <point x="465" y="130" type="curve"/>
      <point x="446" y="137" type="line"/>
      <point x="409" y="66"/>
      <point x="357" y="46"/>
      <point x="306" y="46" type="curve" smooth="yes"/>
      <point x="235" y="46"/>
      <point x="163" y="114"/>
      <point x="163" y="252" type="curve" smooth="yes"/>
      <point x="163" y="274"/>
      <point x="164" y="296"/>
      <point x="166" y="314" type="curve"/>
      <point x="163" y="319" type="line"/>
      <point x="171" y="453"/>
      <point x="217" y="510"/>
      <point x="271" y="510" type="curve" smooth="yes"/>
      <point x="330" y="510"/>
      <point x="357" y="426"/>
      <point x="354" y="328" type="curve"/>
      <point x="120" y="328" type="line"/>
      <point x="121" y="309" type="line"/>
      <point x="464" y="309" type="line"/>
      <point x="464" y="463"/>
      <point x="393" y="530"/>
      <point x="276" y="530" type="curve" smooth="yes"/>
    </contour>
    <contour>
      <point x="352" y="0" type="move" name="ogonek"/>
    </contour>
    <contour>
      <point x="274" y="0" type="move" name="bottom"/>
    </contour>
    <contour>
      <point x="273" y="515" type="move" name="top"/>
    </contour>
  </outline>
</glyph>
<glyph name="f" format="1">
  <advance width="341"/>
  <unicode hex="0066"/>
  <outline>
    <contour>
      <point x="229" y="782"/>
      <point x="182" y="762"/>
      <point x="154" y="732" type="curve" smooth="yes"/>
      <point x="113" y="687"/>
      <point x="98" y="633"/>
      <point x="98" y="515" type="curve"/>
      <point x="23" y="515" type="line"/>
      <point x="23" y="495" type="line"/>
      <point x="98" y="495" type="line"/>
      <point x="98" y="93" type="line" smooth="yes"/>
      <point x="98" y="37"/>
      <point x="79" y="21"/>
      <point x="27" y="21" type="curve"/>
      <point x="27" y="0" type="line"/>
      <point x="51" y="1"/>
      <point x="103" y="4"/>
      <point x="151" y="4" type="curve" smooth="yes"/>
      <point x="216" y="4"/>
      <point x="280" y="1"/>
      <point x="313" y="0" type="curve"/>
      <point x="313" y="21" type="line"/>
      <point x="250" y="21"/>
      <point x="212" y="38"/>
      <point x="212" y="103" type="curve" smooth="yes"/>
      <point x="212" y="495" type="line"/>
      <point x="319" y="495" type="line"/>
      <point x="319" y="515" type="line"/>
      <point x="212" y="515" type="line"/>
      <point x="212" y="570" type="line" smooth="yes"/>
      <point x="212" y="668"/>
      <point x="215" y="709"/>
      <point x="230" y="733" type="curve" smooth="yes"/>
      <point x="242" y="753"/>
      <point x="262" y="766"/>
      <point x="290" y="766" type="curve" smooth="yes"/>
      <point x="315" y="766"/>
      <point x="330" y="757"/>
      <point x="334" y="747" type="curve"/>
      <point x="303" y="739"/>
      <point x="284" y="717"/>
      <point x="284" y="686" type="curve" smooth="yes"/>
      <point x="284" y="647"/>
      <point x="312" y="624"/>
      <point x="349" y="624" type="curve" smooth="yes"/>
      <point x="385" y="624"/>
      <point x="410" y="651"/>
      <point x="410" y="685" type="curve" smooth="yes"/>
      <point x="410" y="713"/>
      <point x="397" y="737"/>
      <point x="377" y="752" type="curve" smooth="yes"/>
      <point x="354" y="770"/>
      <point x="323" y="782"/>
      <point x="281" y="782" type="curve" smooth="yes"/>
    </contour>
    <contour>
      <point x="169" y="758" type="move" name="top"/>
    </contour>
    <contour>
      <point x="171" y="0" type="move" name="bottom"/>
    </contour>
  </outline>
</glyph>
<glyph name="g" format="1">
  <advance width="539"/>
  <unicode hex="0067"/>
  <outline>
    <contour>
      <point x="402" y="-188"/>
      <point x="494" y="-102"/>
      <point x="494" y="-6" type="curve" smooth="yes"/>
      <point x="494" y="82"/>
      <point x="416" y="118"/>
      <point x="321" y="118" type="curve" smooth="yes"/>
      <point x="203" y="118" type="line" smooth="yes"/>
      <point x="173" y="118"/>
      <point x="158" y="129"/>
      <point x="158" y="150" type="curve" smooth="yes"/>
      <point x="158" y="181"/>
      <point x="192" y="201"/>
      <point x="228" y="221" type="curve"/>
      <point x="217" y="230" type="line"/>
      <point x="123" y="188"/>
      <point x="86" y="148"/>
      <point x="86" y="98" type="curve" smooth="yes"/>
      <point x="86" y="34"/>
      <point x="147" y="17"/>
      <point x="219" y="17" type="curve" smooth="yes"/>
      <point x="287" y="17" type="line" smooth="yes"/>
      <point x="377" y="17"/>
      <point x="401" y="-14"/>
      <point x="401" y="-56" type="curve" smooth="yes"/>
      <point x="401" y="-137"/>
      <point x="317" y="-171"/>
      <point x="227" y="-171" type="curve" smooth="yes"/>
      <point x="138" y="-171"/>
      <point x="79" y="-139"/>
      <point x="79" y="-79" type="curve" smooth="yes"/>
      <point x="79" y="-49"/>
      <point x="94" y="-22"/>
      <point x="121" y="-7" type="curve"/>
      <point x="114" y="9" type="line"/>
      <point x="45" y="-10"/>
      <point x="7" y="-43"/>
      <point x="7" y="-88" type="curve" smooth="yes"/>
      <point x="7" y="-156"/>
      <point x="100" y="-188"/>
      <point x="215" y="-188" type="curve" smooth="yes"/>
    </contour>
    <contour>
      <point x="328" y="213"/>
      <point x="408" y="262"/>
      <point x="408" y="372" type="curve" smooth="yes"/>
      <point x="408" y="482"/>
      <point x="328" y="530"/>
      <point x="223" y="530" type="curve" smooth="yes"/>
      <point x="117" y="530"/>
      <point x="37" y="482"/>
      <point x="37" y="372" type="curve" smooth="yes"/>
      <point x="37" y="262"/>
      <point x="117" y="213"/>
      <point x="223" y="213" type="curve" smooth="yes"/>
    </contour>
    <contour>
      <point x="179" y="231"/>
      <point x="152" y="265"/>
      <point x="152" y="372" type="curve" smooth="yes"/>
      <point x="152" y="479"/>
      <point x="179" y="512"/>
      <point x="223" y="512" type="curve" smooth="yes"/>
      <point x="266" y="512"/>
      <point x="293" y="479"/>
      <point x="293" y="372" type="curve" smooth="yes"/>
      <point x="293" y="265"/>
      <point x="266" y="231"/>
      <point x="223" y="231" type="curve" smooth="yes"/>
    </contour>
    <contour>
      <point x="391" y="485"/>
      <point x="410" y="506"/>
      <point x="464" y="526" type="curve"/>
      <point x="453" y="530" type="line"/>
      <point x="418" y="455"/>
      <point x="450" y="423"/>
      <point x="483" y="423" type="curve" smooth="yes"/>
      <point x="507" y="423"/>
      <point x="534" y="440"/>
      <point x="534" y="480" type="curve" smooth="yes"/>
      <point x="534" y="518"/>
      <point x="510" y="541"/>
      <point x="473" y="541" type="curve" smooth="yes"/>
      <point x="423" y="541"/>
      <point x="372" y="501"/>
      <point x="353" y="453" type="curve"/>
      <point x="372" y="446" type="line"/>
    </contour>
    <contour>
      <point x="243" y="515" type="move" name="top"/>
    </contour>
    <contour>
      <point x="265" y="-181" type="move" name="bottom"/>
    </contour>
  </outline>
</glyph>
<glyph name="h" format="1">
  <advance width="597"/>
  <unicode hex="0068"/>
  <outline>
    <contour>
      <point x="170" y="773"/>
      <point x="128" y="769"/>
      <point x="81" y="769" type="curve" smooth="yes"/>
      <point x="61" y="769"/>
      <point x="40" y="770"/>
      <point x="19" y="772" type="curve"/>
      <point x="19" y="751" type="line"/>
      <point x="73" y="751"/>
      <point x="90" y="723"/>
      <point x="90" y="663" type="curve" smooth="yes"/>
      <point x="90" y="93" type="line" smooth="yes"/>
      <point x="90" y="37"/>
      <point x="71" y="21"/>
      <point x="19" y="21" type="curve"/>
      <point x="19" y="0" type="line"/>
      <point x="44" y="1"/>
      <point x="100" y="4"/>
      <point x="147" y="4" type="curve" smooth="yes"/>
      <point x="194" y="4"/>
      <point x="243" y="1"/>
      <point x="265" y="0" type="curve"/>
      <point x="265" y="21" type="line"/>
      <point x="221" y="21"/>
      <point x="204" y="37"/>
      <point x="204" y="93" type="curve" smooth="yes"/>
      <point x="204" y="341" type="line" smooth="yes"/>
      <point x="204" y="430"/>
      <point x="256" y="493"/>
      <point x="326" y="493" type="curve" smooth="yes"/>
      <point x="388" y="493"/>
      <point x="398" y="448"/>
      <point x="398" y="392" type="curve" smooth="yes"/>
      <point x="398" y="93" type="line" smooth="yes"/>
      <point x="398" y="37"/>
      <point x="382" y="21"/>
      <point x="338" y="21" type="curve"/>
      <point x="338" y="0" type="line"/>
      <point x="360" y="1"/>
      <point x="411" y="4"/>
      <point x="458" y="4" type="curve" smooth="yes"/>
      <point x="504" y="4"/>
      <point x="559" y="1"/>
      <point x="583" y="0" type="curve"/>
      <point x="583" y="21" type="line"/>
      <point x="532" y="21"/>
      <point x="512" y="37"/>
      <point x="512" y="93" type="curve" smooth="yes"/>
      <point x="512" y="361" type="line" smooth="yes"/>
      <point x="512" y="429"/>
      <point x="503" y="465"/>
      <point x="479" y="492" type="curve" smooth="yes"/>
      <point x="457" y="515"/>
      <point x="425" y="530"/>
      <point x="371" y="530" type="curve" smooth="yes"/>
      <point x="302" y="530"/>
      <point x="238" y="502"/>
      <point x="204" y="422" type="curve"/>
      <point x="204" y="783" type="line"/>
    </contour>
    <contour>
      <point x="20" y="608" type="move" name="bar-left"/>
    </contour>
    <contour>
      <point x="299" y="0" type="move" name="bottom"/>
    </contour>
    <contour>
      <point x="292" y="768" type="move" name="top"/>
    </contour>
    <contour>
      <point x="193" y="618" type="move" name="center"/>
    </contour>
  </outline>
</glyph>
<glyph name="k" format="1">
  <advance width="566"/>
  <unicode hex="006B"/>
  <outline>
    <contour>
      <point x="170" y="773"/>
      <point x="128" y="769"/>
      <point x="81" y="769" type="curve" smooth="yes"/>
      <point x="61" y="769"/>
      <point x="40" y="770"/>
      <point x="19" y="772" type="curve"/>
      <point x="19" y="751" type="line"/>
      <point x="73" y="751"/>
      <point x="90" y="723"/>
      <point x="90" y="663" type="curve" smooth="yes"/>
      <point x="90" y="93" type="line" smooth="yes"/>
      <point x="90" y="37"/>
      <point x="71" y="21"/>
      <point x="19" y="21" type="curve"/>
      <point x="19" y="0" type="line"/>
      <point x="44" y="1"/>
      <point x="100" y="4"/>
      <point x="148" y="4" type="curve" smooth="yes"/>
      <point x="194" y="4"/>
      <point x="245" y="1"/>
      <point x="267" y="0" type="curve"/>
      <point x="267" y="21" type="line"/>
      <point x="221" y="21"/>
      <point x="204" y="37"/>
      <point x="204" y="93" type="curve" smooth="yes"/>
      <point x="204" y="783" type="line"/>
    </contour>
    <contour>
      <point x="504" y="514"/>
      <point x="461" y="512"/>
      <point x="426" y="512" type="curve" smooth="yes"/>
      <point x="396" y="512"/>
      <point x="346" y="514"/>
      <point x="311" y="516" type="curve"/>
      <point x="311" y="496" type="line"/>
      <point x="378" y="494"/>
      <point x="418" y="462"/>
      <point x="353" y="396" type="curve" smooth="yes"/>
      <point x="279" y="320" type="line" smooth="yes"/>
      <point x="258" y="299"/>
      <point x="235" y="289"/>
      <point x="200" y="286" type="curve"/>
      <point x="200" y="266" type="line"/>
      <point x="232" y="265"/>
      <point x="247" y="259"/>
      <point x="268" y="228" type="curve" smooth="yes"/>
      <point x="375" y="55" type="line" smooth="yes"/>
      <point x="388" y="35"/>
      <point x="377" y="21"/>
      <point x="350" y="21" type="curve"/>
      <point x="350" y="0" type="line"/>
      <point x="373" y="1"/>
      <point x="424" y="4"/>
      <point x="469" y="4" type="curve" smooth="yes"/>
      <point x="504" y="4"/>
      <point x="544" y="1"/>
      <point x="561" y="0" type="curve"/>
      <point x="561" y="21" type="line"/>
      <point x="534" y="27"/>
      <point x="519" y="45"/>
      <point x="499" y="73" type="curve" smooth="yes"/>
      <point x="320" y="342" type="line"/>
      <point x="308" y="318" type="line"/>
      <point x="420" y="435" type="line" smooth="yes"/>
      <point x="454" y="470"/>
      <point x="489" y="490"/>
      <point x="526" y="496" type="curve"/>
      <point x="526" y="516" type="line"/>
    </contour>
    <contour>
      <point x="287" y="758" type="move" name="top"/>
    </contour>
    <contour>
      <point x="299" y="0" type="move" name="bottom"/>
    </contour>
  </outline>
</glyph>
<glyph name="l" format="1">
  <advance width="297"/>
  <unicode hex="006C"/>
  <outline>
    <contour>
      <point x="171" y="773"/>
      <point x="129" y="769"/>
      <point x="83" y="769" type="curve" smooth="yes"/>
      <point x="63" y="769"/>
      <point x="42" y="770"/>
      <point x="21" y="772" type="curve"/>
      <point x="21" y="751" type="line"/>
      <point x="75" y="751"/>
      <point x="92" y="723"/>
      <point x="92" y="663" type="curve" smooth="yes"/>
      <point x="92" y="93" type="line" smooth="yes"/>
      <point x="92" y="37"/>
      <point x="72" y="21"/>
      <point x="21" y="21" type="curve"/>
      <point x="21" y="0" type="line"/>
      <point x="46" y="1"/>
      <point x="101" y="4"/>
      <point x="150" y="4" type="curve" smooth="yes"/>
      <point x="198" y="4"/>
      <point x="252" y="1"/>
      <point x="276" y="0" type="curve"/>
      <point x="276" y="21" type="line"/>
      <point x="225" y="21"/>
      <point x="206" y="37"/>
      <point x="206" y="93" type="curve" smooth="yes"/>
      <point x="206" y="783" type="line"/>
    </contour>
    <contour>
      <point x="150" y="354" type="move" name="center"/>
    </contour>
    <contour>
      <point x="148" y="758" type="move" name="top"/>
    </contour>
    <contour>
      <point x="251" y="758" type="move" name="topright"/>
    </contour>
    <contour>
      <point x="254" y="515" type="move" name="right"/>
    </contour>
    <contour>
      <point x="148" y="0" type="move" name="bottom"/>
    </contour>
  </outline>
</glyph>
<glyph name="m" format="1">
  <advance width="895"/>
  <unicode hex="006D"/>
  <outline>
    <contour>
      <point x="307" y="530"/>
      <point x="244" y="499"/>
      <point x="212" y="421" type="curve"/>
      <point x="212" y="527" type="line"/>
      <point x="177" y="517"/>
      <point x="135" y="513"/>
      <point x="89" y="513" type="curve" smooth="yes"/>
      <point x="69" y="513"/>
      <point x="48" y="514"/>
      <point x="27" y="516" type="curve"/>
      <point x="27" y="495" type="line"/>
      <point x="81" y="495"/>
      <point x="98" y="467"/>
      <point x="98" y="407" type="curve" smooth="yes"/>
      <point x="98" y="93" type="line" smooth="yes"/>
      <point x="98" y="37"/>
      <point x="78" y="21"/>
      <point x="27" y="21" type="curve"/>
      <point x="27" y="0" type="line"/>
      <point x="51" y="1"/>
      <point x="108" y="4"/>
      <point x="155" y="4" type="curve" smooth="yes"/>
      <point x="200" y="4"/>
      <point x="248" y="1"/>
      <point x="270" y="0" type="curve"/>
      <point x="270" y="21" type="line"/>
      <point x="227" y="21"/>
      <point x="212" y="37"/>
      <point x="212" y="93" type="curve" smooth="yes"/>
      <point x="212" y="340" type="line" smooth="yes"/>
      <point x="212" y="426"/>
      <point x="263" y="493"/>
      <point x="330" y="493" type="curve" smooth="yes"/>
      <point x="390" y="493"/>
      <point x="396" y="448"/>
      <point x="396" y="392" type="curve" smooth="yes"/>
      <point x="396" y="93" type="line" smooth="yes"/>
      <point x="396" y="37"/>
      <point x="380" y="21"/>
      <point x="338" y="21" type="curve"/>
      <point x="338" y="0" type="line"/>
      <point x="360" y="1"/>
      <point x="409" y="4"/>
      <point x="455" y="4" type="curve" smooth="yes"/>
      <point x="500" y="4"/>
      <point x="554" y="1"/>
      <point x="578" y="0" type="curve"/>
      <point x="578" y="21" type="line"/>
      <point x="528" y="21"/>
      <point x="510" y="37"/>
      <point x="510" y="93" type="curve" smooth="yes"/>
      <point x="510" y="361" type="line" smooth="yes"/>
      <point x="510" y="425"/>
      <point x="502" y="465"/>
      <point x="478" y="492" type="curve" smooth="yes"/>
      <point x="456" y="515"/>
      <point x="422" y="530"/>
      <point x="372" y="530" type="curve" smooth="yes"/>
    </contour>
    <contour>
      <point x="606" y="530"/>
      <point x="541" y="504"/>
      <point x="505" y="418" type="curve"/>
      <point x="509" y="339" type="line"/>
      <point x="510" y="425"/>
      <point x="561" y="493"/>
      <point x="628" y="493" type="curve" smooth="yes"/>
      <point x="690" y="493"/>
      <point x="697" y="448"/>
      <point x="697" y="392" type="curve" smooth="yes"/>
      <point x="697" y="93" type="line" smooth="yes"/>
      <point x="697" y="37"/>
      <point x="681" y="21"/>
      <point x="639" y="21" type="curve"/>
      <point x="639" y="0" type="line"/>
      <point x="661" y="1"/>
      <point x="710" y="4"/>
      <point x="756" y="4" type="curve" smooth="yes"/>
      <point x="802" y="4"/>
      <point x="857" y="1"/>
      <point x="882" y="0" type="curve"/>
      <point x="882" y="21" type="line"/>
      <point x="830" y="21"/>
      <point x="811" y="37"/>
      <point x="811" y="93" type="curve" smooth="yes"/>
      <point x="811" y="361" type="line" smooth="yes"/>
      <point x="811" y="425"/>
      <point x="803" y="465"/>
      <point x="779" y="492" type="curve" smooth="yes"/>
      <point x="757" y="515"/>
      <point x="723" y="530"/>
      <point x="673" y="530" type="curve" smooth="yes"/>
    </contour>
    <contour>
      <point x="455" y="515" type="move" name="top"/>
    </contour>
    <contour>
      <point x="455" y="0" type="move" name="bottom"/>
    </contour>
  </outline>
</glyph>
<glyph name="n" format="1">
  <advance width="604"/>
  <unicode hex="006E"/>
  <outline>
    <contour>
      <point x="310" y="530"/>
      <point x="246" y="501"/>
      <point x="212" y="421" type="curve"/>
      <point x="212" y="527" type="line"/>
      <point x="177" y="517"/>
      <point x="135" y="513"/>
      <point x="89" y="513" type="curve" smooth="yes"/>
      <point x="69" y="513"/>
      <point x="48" y="514"/>
      <point x="27" y="516" type="curve"/>
      <point x="27" y="495" type="line"/>
      <point x="81" y="495"/>
      <point x="98" y="467"/>
      <point x="98" y="407" type="curve" smooth="yes"/>
      <point x="98" y="93" type="line" smooth="yes"/>
      <point x="98" y="37"/>
      <point x="78" y="21"/>
      <point x="27" y="21" type="curve"/>
      <point x="27" y="0" type="line"/>
      <point x="51" y="1"/>
      <point x="108" y="4"/>
      <point x="155" y="4" type="curve" smooth="yes"/>
      <point x="201" y="4"/>
      <point x="250" y="1"/>
      <point x="272" y="0" type="curve"/>
      <point x="272" y="21" type="line"/>
      <point x="228" y="21"/>
      <point x="212" y="37"/>
      <point x="212" y="93" type="curve" smooth="yes"/>
      <point x="212" y="340" type="line" smooth="yes"/>
      <point x="212" y="426"/>
      <point x="262" y="493"/>
      <point x="333" y="493" type="curve" smooth="yes"/>
      <point x="396" y="493"/>
      <point x="406" y="448"/>
      <point x="406" y="392" type="curve" smooth="yes"/>
      <point x="406" y="93" type="line" smooth="yes"/>
      <point x="406" y="37"/>
      <point x="389" y="21"/>
      <point x="345" y="21" type="curve"/>
      <point x="345" y="0" type="line"/>
      <point x="368" y="1"/>
      <point x="418" y="4"/>
      <point x="465" y="4" type="curve" smooth="yes"/>
      <point x="511" y="4"/>
      <point x="566" y="1"/>
      <point x="591" y="0" type="curve"/>
      <point x="591" y="21" type="line"/>
      <point x="539" y="21"/>
      <point x="520" y="37"/>
      <point x="520" y="93" type="curve" smooth="yes"/>
      <point x="520" y="361" type="line" smooth="yes"/>
      <point x="520" y="429"/>
      <point x="510" y="465"/>
      <point x="486" y="492" type="curve" smooth="yes"/>
      <point x="465" y="515"/>
      <point x="432" y="530"/>
      <point x="379" y="530" type="curve" smooth="yes"/>
    </contour>
    <contour>
      <point x="309" y="515" type="move" name="top"/>
    </contour>
    <contour>
      <point x="319" y="0" type="move" name="bottom"/>
    </contour>
  </outline>
</glyph>
<glyph name="o" format="1">
  <advance width="555"/>
  <unicode hex="006F"/>
  <outline>
    <contour>
      <point x="143" y="530"/>
      <point x="43" y="452"/>
      <point x="43" y="258" type="curve" smooth="yes"/>
      <point x="43" y="63"/>
      <point x="143" y="-14"/>
      <point x="278" y="-14" type="curve" smooth="yes"/>
      <point x="412" y="-14"/>
      <point x="513" y="63"/>
      <point x="513" y="258" type="curve" smooth="yes"/>
      <point x="513" y="452"/>
      <point x="412" y="530"/>
      <point x="278" y="530" type="curve" smooth="yes"/>
    </contour>
    <contour>
      <point x="344" y="510"/>
      <point x="392" y="437"/>
      <point x="392" y="258" type="curve" smooth="yes"/>
      <point x="392" y="79"/>
      <point x="344" y="6"/>
      <point x="278" y="6" type="curve" smooth="yes"/>
      <point x="211" y="6"/>
      <point x="164" y="79"/>
      <point x="164" y="258" type="curve" smooth="yes"/>
      <point x="164" y="437"/>
      <point x="211" y="510"/>
      <point x="278" y="510" type="curve" smooth="yes"/>
    </contour>
    <contour>
      <point x="278" y="258" type="move" name="center"/>
    </contour>
    <contour>
      <point x="280" y="515" type="move" name="top"/>
    </contour>
    <contour>
      <point x="535" y="515" type="move" name="topright"/>
    </contour>
    <contour>
      <point x="278" y="0" type="move" name="bottom"/>
    </contour>
  </outline>
</glyph>
<glyph name="p" format="1">
  <advance width="589"/>
  <unicode hex="0070"/>
  <outline>
    <contour>
      <point x="171" y="517"/>
      <point x="129" y="513"/>
      <point x="83" y="513" type="curve" smooth="yes"/>
      <point x="63" y="513"/>
      <point x="42" y="514"/>
      <point x="21" y="516" type="curve"/>
      <point x="21" y="495" type="line"/>
      <point x="75" y="495"/>
      <point x="92" y="467"/>
      <point x="92" y="407" type="curve" smooth="yes"/>
      <point x="92" y="-95" type="line" smooth="yes"/>
      <point x="92" y="-145"/>
      <point x="74" y="-160"/>
      <point x="28" y="-160" type="curve"/>
      <point x="28" y="-181" type="line"/>
      <point x="51" y="-180"/>
      <point x="99" y="-177"/>
      <point x="144" y="-177" type="curve" smooth="yes"/>
      <point x="207" y="-177"/>
      <point x="268" y="-180"/>
      <point x="299" y="-181" type="curve"/>
      <point x="299" y="-160" type="line"/>
      <point x="241" y="-160"/>
      <point x="206" y="-144"/>
      <point x="206" y="-85" type="curve" smooth="yes"/>
      <point x="206" y="527" type="line"/>
    </contour>
    <contour>
      <point x="278" y="530"/>
      <point x="211" y="475"/>
      <point x="192" y="379" type="curve"/>
      <point x="200" y="355" type="line"/>
      <point x="211" y="447"/>
      <point x="264" y="494"/>
      <point x="322" y="494" type="curve" smooth="yes"/>
      <point x="388" y="494"/>
      <point x="425" y="429"/>
      <point x="425" y="265" type="curve" smooth="yes"/>
      <point x="425" y="118"/>
      <point x="394" y="11"/>
      <point x="293" y="11" type="curve" smooth="yes"/>
      <point x="249" y="11"/>
      <point x="218" y="32"/>
      <point x="202" y="64" type="curve"/>
      <point x="192" y="51" type="line"/>
      <point x="210" y="12"/>
      <point x="258" y="-14"/>
      <point x="316" y="-14" type="curve" smooth="yes"/>
      <point x="469" y="-14"/>
      <point x="546" y="114"/>
      <point x="546" y="281" type="curve" smooth="yes"/>
      <point x="546" y="445"/>
      <point x="467" y="530"/>
      <point x="363" y="530" type="curve" smooth="yes"/>
    </contour>
    <contour>
      <point x="295" y="515" type="move" name="top"/>
    </contour>
    <contour>
      <point x="285" y="-181" type="move" name="bottom"/>
    </contour>
  </outline>
</glyph>
<glyph name="q" format="1">
  <advance width="573"/>
  <unicode hex="0071"/>
  <outline>
    <contour>
      <point x="135" y="530"/>
      <point x="43" y="440"/>
      <point x="43" y="259" type="curve" smooth="yes"/>
      <point x="43" y="72"/>
      <point x="133" y="-14"/>
      <point x="248" y="-14" type="curve" smooth="yes"/>
      <point x="326" y="-14"/>
      <point x="383" y="40"/>
      <point x="397" y="137" type="curve"/>
      <point x="389" y="160" type="line"/>
      <point x="383" y="70"/>
      <point x="334" y="22"/>
      <point x="283" y="22" type="curve" smooth="yes"/>
      <point x="208" y="22"/>
      <point x="164" y="93"/>
      <point x="164" y="258" type="curve" smooth="yes"/>
      <point x="164" y="427"/>
      <point x="205" y="508"/>
      <point x="280" y="508" type="curve" smooth="yes"/>
      <point x="328" y="508"/>
      <point x="369" y="488"/>
      <point x="392" y="444" type="curve"/>
      <point x="409" y="440" type="line"/>
      <point x="379" y="505"/>
      <point x="333" y="530"/>
      <point x="259" y="530" type="curve" smooth="yes"/>
    </contour>
    <contour>
      <point x="461" y="504"/>
      <point x="421" y="480"/>
      <point x="383" y="466" type="curve"/>
      <point x="383" y="-85" type="line" smooth="yes"/>
      <point x="383" y="-144"/>
      <point x="348" y="-160"/>
      <point x="290" y="-160" type="curve"/>
      <point x="290" y="-181" type="line"/>
      <point x="321" y="-180"/>
      <point x="382" y="-177"/>
      <point x="445" y="-177" type="curve" smooth="yes"/>
      <point x="490" y="-177"/>
      <point x="538" y="-180"/>
      <point x="561" y="-181" type="curve"/>
      <point x="561" y="-160" type="line"/>
      <point x="515" y="-160"/>
      <point x="497" y="-145"/>
      <point x="497" y="-95" type="curve" smooth="yes"/>
      <point x="497" y="467" type="line" smooth="yes"/>
      <point x="497" y="487"/>
      <point x="499" y="506"/>
      <point x="504" y="524" type="curve"/>
      <point x="488" y="532" type="line"/>
    </contour>
    <contour>
      <point x="287" y="515" type="move" name="top"/>
    </contour>
    <contour>
      <point x="445" y="-181" type="move" name="bottom"/>
    </contour>
  </outline>
</glyph>
<glyph name="r" format="1">
  <advance width="455"/>
  <unicode hex="0072"/>
  <outline>
    <contour>
      <point x="285" y="530"/>
      <point x="234" y="472"/>
      <point x="212" y="416" type="curve"/>
      <point x="212" y="527" type="line"/>
      <point x="177" y="517"/>
      <point x="135" y="513"/>
      <point x="89" y="513" type="curve" smooth="yes"/>
      <point x="69" y="513"/>
      <point x="48" y="514"/>
      <point x="27" y="516" type="curve"/>
      <point x="27" y="495" type="line"/>
      <point x="81" y="495"/>
      <point x="98" y="467"/>
      <point x="98" y="407" type="curve" smooth="yes"/>
      <point x="98" y="93" type="line" smooth="yes"/>
      <point x="98" y="37"/>
      <point x="78" y="21"/>
      <point x="27" y="21" type="curve"/>
      <point x="27" y="0" type="line"/>
      <point x="52" y="1"/>
      <point x="106" y="4"/>
      <point x="156" y="4" type="curve" smooth="yes"/>
      <point x="219" y="4"/>
      <point x="281" y="1"/>
      <point x="312" y="0" type="curve"/>
      <point x="312" y="21" type="line"/>
      <point x="248" y="21"/>
      <point x="212" y="38"/>
      <point x="212" y="103" type="curve" smooth="yes"/>
      <point x="212" y="338" type="line" smooth="yes"/>
      <point x="212" y="403"/>
      <point x="259" y="496"/>
      <point x="329" y="500" type="curve" smooth="yes"/>
      <point x="338" y="501"/>
      <point x="347" y="500"/>
      <point x="353" y="495" type="curve"/>
      <point x="332" y="481"/>
      <point x="315" y="461"/>
      <point x="315" y="430" type="curve" smooth="yes"/>
      <point x="315" y="395"/>
      <point x="341" y="373"/>
      <point x="377" y="373" type="curve" smooth="yes"/>
      <point x="418" y="373"/>
      <point x="444" y="404"/>
      <point x="444" y="445" type="curve" smooth="yes"/>
      <point x="444" y="489"/>
      <point x="411" y="530"/>
      <point x="352" y="530" type="curve" smooth="yes"/>
    </contour>
    <contour>
      <point x="237" y="515" type="move" name="top"/>
    </contour>
    <contour>
      <point x="170" y="0" type="move" name="bottom"/>
    </contour>
  </outline>
</glyph>
<glyph name="s" format="1">
  <advance width="454"/>
  <unicode hex="0073"/>
  <outline>
    <contour>
      <point x="130" y="530"/>
      <point x="55" y="486"/>
      <point x="55" y="397" type="curve" smooth="yes"/>
      <point x="55" y="315"/>
      <point x="118" y="273"/>
      <point x="188" y="225" type="curve" smooth="yes"/>
      <point x="250" y="182"/>
      <point x="296" y="150"/>
      <point x="296" y="92" type="curve" smooth="yes"/>
      <point x="296" y="29"/>
      <point x="252" y="7"/>
      <point x="215" y="7" type="curve" smooth="yes"/>
      <point x="122" y="7"/>
      <point x="90" y="83"/>
      <point x="78" y="193" type="curve"/>
      <point x="55" y="193" type="line"/>
      <point x="55" y="92"/>
      <point x="54" y="36"/>
      <point x="51" y="-7" type="curve"/>
      <point x="74" y="-7" type="line"/>
      <point x="79" y="22"/>
      <point x="90" y="35"/>
      <point x="103" y="27" type="curve" smooth="yes"/>
      <point x="117" y="19"/>
      <point x="131" y="11"/>
      <point x="147" y="3" type="curve" smooth="yes"/>
      <point x="170" y="-8"/>
      <point x="198" y="-14"/>
      <point x="232" y="-14" type="curve" smooth="yes"/>
      <point x="328" y="-14"/>
      <point x="411" y="38"/>
      <point x="411" y="130" type="curve" smooth="yes"/>
      <point x="411" y="210"/>
      <point x="354" y="254"/>
      <point x="282" y="303" type="curve" smooth="yes"/>
      <point x="217" y="348"/>
      <point x="156" y="378"/>
      <point x="156" y="438" type="curve" smooth="yes"/>
      <point x="156" y="484"/>
      <point x="189" y="510"/>
      <point x="232" y="510" type="curve" smooth="yes"/>
      <point x="320" y="510"/>
      <point x="353" y="430"/>
      <point x="364" y="356" type="curve"/>
      <point x="387" y="356" type="line"/>
      <point x="387" y="444"/>
      <point x="388" y="492"/>
      <point x="391" y="529" type="curve"/>
      <point x="368" y="529" type="line"/>
      <point x="363" y="489"/>
      <point x="350" y="479"/>
      <point x="328" y="496" type="curve" smooth="yes"/>
      <point x="309" y="510"/>
      <point x="268" y="530"/>
      <point x="214" y="530" type="curve" smooth="yes"/>
    </contour>
    <contour>
      <point x="231" y="515" type="move" name="top"/>
    </contour>
    <contour>
      <point x="231" y="0" type="move" name="bottom"/>
    </contour>
  </outline>
</glyph>
<glyph name="t" format="1">
  <advance width="353"/>
  <unicode hex="0074"/>
  <outline>
    <contour>
      <point x="174" y="666"/>
      <point x="136" y="660"/>
      <point x="93" y="659" type="curve"/>
      <point x="93" y="515" type="line"/>
      <point x="2" y="515" type="line"/>
      <point x="2" y="495" type="line"/>
      <point x="93" y="495" type="line"/>
      <point x="93" y="159" type="line" smooth="yes"/>
      <point x="93" y="89"/>
      <point x="101" y="49"/>
      <point x="130" y="19" type="curve" smooth="yes"/>
      <point x="152" y="-3"/>
      <point x="182" y="-14"/>
      <point x="227" y="-14" type="curve" smooth="yes"/>
      <point x="305" y="-14"/>
      <point x="343" y="38"/>
      <point x="361" y="108" type="curve"/>
      <point x="342" y="115" type="line"/>
      <point x="322" y="52"/>
      <point x="295" y="29"/>
      <point x="261" y="29" type="curve" smooth="yes"/>
      <point x="226" y="29"/>
      <point x="207" y="48"/>
      <point x="207" y="101" type="curve" smooth="yes"/>
      <point x="207" y="495" type="line"/>
      <point x="341" y="495" type="line"/>
      <point x="341" y="515" type="line"/>
      <point x="207" y="515" type="line"/>
      <point x="207" y="681" type="line"/>
    </contour>
    <contour>
      <point x="176" y="350" type="move" name="center"/>
    </contour>
    <contour>
      <point x="158" y="758" type="move" name="top"/>
    </contour>
    <contour>
      <point x="265" y="758" type="move" name="topright"/>
    </contour>
    <contour>
      <point x="341" y="515" type="move" name="right"/>
    </contour>
    <contour>
      <point x="229" y="0" type="move" name="bottom"/>
    </contour>
  </outline>
</glyph>
<glyph name="u" format="1">
  <advance width="592"/>
  <unicode hex="0075"/>
  <outline>
    <contour>
      <point x="466" y="517"/>
      <point x="424" y="513"/>
      <point x="378" y="513" type="curve" smooth="yes"/>
      <point x="358" y="513"/>
      <point x="337" y="514"/>
      <point x="316" y="516" type="curve"/>
      <point x="316" y="495" type="line"/>
      <point x="369" y="495"/>
      <point x="386" y="467"/>
      <point x="386" y="407" type="curve" smooth="yes"/>
      <point x="386" y="175" type="line" smooth="yes"/>
      <point x="386" y="89"/>
      <point x="335" y="23"/>
      <point x="268" y="23" type="curve" smooth="yes"/>
      <point x="206" y="23"/>
      <point x="199" y="68"/>
      <point x="199" y="124" type="curve" smooth="yes"/>
      <point x="199" y="527" type="line"/>
      <point x="165" y="517"/>
      <point x="123" y="513"/>
      <point x="77" y="513" type="curve" smooth="yes"/>
      <point x="57" y="513"/>
      <point x="36" y="514"/>
      <point x="15" y="516" type="curve"/>
      <point x="15" y="495" type="line"/>
      <point x="68" y="495"/>
      <point x="85" y="467"/>
      <point x="85" y="407" type="curve" smooth="yes"/>
      <point x="85" y="155" type="line" smooth="yes"/>
      <point x="85" y="91"/>
      <point x="94" y="51"/>
      <point x="117" y="25" type="curve" smooth="yes"/>
      <point x="139" y="1"/>
      <point x="173" y="-14"/>
      <point x="224" y="-14" type="curve" smooth="yes"/>
      <point x="290" y="-14"/>
      <point x="353" y="16"/>
      <point x="386" y="94" type="curve"/>
      <point x="386" y="-12" type="line"/>
      <point x="421" y="-2"/>
      <point x="463" y="2"/>
      <point x="509" y="2" type="curve" smooth="yes"/>
      <point x="529" y="2"/>
      <point x="550" y="1"/>
      <point x="571" y="-1" type="curve"/>
      <point x="571" y="20" type="line"/>
      <point x="517" y="20"/>
      <point x="500" y="48"/>
      <point x="500" y="108" type="curve" smooth="yes"/>
      <point x="500" y="527" type="line"/>
    </contour>
    <contour>
      <point x="554" y="0" type="move" name="ogonek"/>
    </contour>
    <contour>
      <point x="307" y="0" type="move" name="bottom"/>
    </contour>
    <contour>
      <point x="284" y="515" type="move" name="top"/>
    </contour>
  </outline>
</glyph>
<glyph name="v" format="1">
  <advance width="497"/>
  <unicode hex="0076"/>
  <outline>
    <contour>
      <point x="476" y="514"/>
      <point x="448" y="513"/>
      <point x="419" y="513" type="curve" smooth="yes"/>
      <point x="390" y="513"/>
      <point x="363" y="514"/>
      <point x="329" y="516" type="curve"/>
      <point x="329" y="496" type="line"/>
      <point x="397" y="491"/>
      <point x="420" y="457"/>
      <point x="390" y="373" type="curve" smooth="yes"/>
      <point x="292" y="109" type="line"/>
      <point x="299" y="118" type="line"/>
      <point x="178" y="428" type="line" smooth="yes"/>
      <point x="153" y="495"/>
      <point x="191" y="495"/>
      <point x="237" y="495" type="curve"/>
      <point x="237" y="516" type="line"/>
      <point x="197" y="513"/>
      <point x="148" y="512"/>
      <point x="107" y="512" type="curve" smooth="yes"/>
      <point x="63" y="512"/>
      <point x="28" y="514"/>
      <point x="-5" y="516" type="curve"/>
      <point x="-5" y="495" type="line"/>
      <point x="9" y="495"/>
      <point x="31" y="491"/>
      <point x="53" y="439" type="curve" smooth="yes"/>
      <point x="234" y="-4" type="line"/>
      <point x="247" y="-3"/>
      <point x="260" y="-3"/>
      <point x="272" y="-4" type="curve"/>
      <point x="429" y="419" type="line" smooth="yes"/>
      <point x="449" y="473"/>
      <point x="470" y="491"/>
      <point x="495" y="496" type="curve"/>
      <point x="495" y="516" type="line"/>
    </contour>
    <contour>
      <point x="249" y="515" type="move" name="top"/>
    </contour>
    <contour>
      <point x="249" y="0" type="move" name="bottom"/>
    </contour>
  </outline>
</glyph>
<glyph name="w" format="1">
  <advance width="777"/>
  <unicode hex="0077"/>
  <outline>
    <contour>
      <point x="199" y="513"/>
      <point x="150" y="510"/>
      <point x="109" y="510" type="curve" smooth="yes"/>
      <point x="65" y="510"/>
      <point x="30" y="512"/>
      <point x="-3" y="516" type="curve"/>
      <point x="-3" y="495" type="line"/>
      <point x="11" y="495"/>
      <point x="35" y="492"/>
      <point x="55" y="439" type="curve" smooth="yes"/>
      <point x="216" y="-4" type="line"/>
      <point x="229" y="-3"/>
      <point x="242" y="-3"/>
      <point x="255" y="-4" type="curve"/>
      <point x="424" y="510" type="line"/>
      <point x="404" y="519" type="line"/>
      <point x="270" y="120" type="line"/>
      <point x="280" y="126" type="line"/>
      <point x="180" y="423" type="line" smooth="yes"/>
      <point x="156" y="495"/>
      <point x="191" y="495"/>
      <point x="239" y="495" type="curve"/>
      <point x="239" y="516" type="line"/>
    </contour>
    <contour>
      <point x="757" y="514"/>
      <point x="729" y="513"/>
      <point x="700" y="513" type="curve" smooth="yes"/>
      <point x="671" y="513"/>
      <point x="641" y="514"/>
      <point x="608" y="516" type="curve"/>
      <point x="608" y="496" type="line"/>
      <point x="677" y="491"/>
      <point x="700" y="458"/>
      <point x="673" y="373" type="curve" smooth="yes"/>
      <point x="588" y="111" type="line"/>
      <point x="597" y="110" type="line"/>
      <point x="450" y="519" type="line"/>
      <point x="434" y="518"/>
      <point x="420" y="518"/>
      <point x="404" y="519" type="curve"/>
      <point x="380" y="395" type="line"/>
      <point x="531" y="-4" type="line"/>
      <point x="544" y="-3"/>
      <point x="557" y="-3"/>
      <point x="570" y="-4" type="curve"/>
      <point x="709" y="419" type="line" smooth="yes"/>
      <point x="728" y="474"/>
      <point x="751" y="491"/>
      <point x="776" y="496" type="curve"/>
      <point x="776" y="516" type="line"/>
    </contour>
    <contour>
      <point x="411" y="515" type="move" name="top"/>
    </contour>
    <contour>
      <point x="389" y="0" type="move" name="bottom"/>
    </contour>
  </outline>
</glyph>
<glyph name="x" format="1">
  <advance width="526"/>
  <unicode hex="0078"/>
  <outline>
    <contour>
      <point x="205" y="515"/>
      <point x="152" y="512"/>
      <point x="109" y="512" type="curve" smooth="yes"/>
      <point x="74" y="512"/>
      <point x="34" y="515"/>
      <point x="17" y="516" type="curve"/>
      <point x="17" y="495" type="line"/>
      <point x="40" y="492"/>
      <point x="51" y="481"/>
      <point x="76" y="445" type="curve" smooth="yes"/>
      <point x="341" y="55" type="line" smooth="yes"/>
      <point x="355" y="35"/>
      <point x="335" y="21"/>
      <point x="309" y="21" type="curve"/>
      <point x="309" y="0" type="line"/>
      <point x="332" y="1"/>
      <point x="387" y="4"/>
      <point x="432" y="4" type="curve" smooth="yes"/>
      <point x="465" y="4"/>
      <point x="503" y="1"/>
      <point x="519" y="0" type="curve"/>
      <point x="519" y="21" type="line"/>
      <point x="494" y="26"/>
      <point x="480" y="42"/>
      <point x="460" y="71" type="curve" smooth="yes"/>
      <point x="195" y="461" type="line" smooth="yes"/>
      <point x="181" y="482"/>
      <point x="201" y="495"/>
      <point x="227" y="495" type="curve"/>
      <point x="227" y="516" type="line"/>
    </contour>
    <contour>
      <point x="107" y="93" type="line" smooth="yes"/>
      <point x="71" y="46"/>
      <point x="45" y="27"/>
      <point x="18" y="20" type="curve"/>
      <point x="18" y="0" type="line"/>
      <point x="38" y="2"/>
      <point x="61" y="3"/>
      <point x="91" y="3" type="curve" smooth="yes"/>
      <point x="123" y="3"/>
      <point x="182" y="2"/>
      <point x="218" y="0" type="curve"/>
      <point x="218" y="20" type="line"/>
      <point x="147" y="25"/>
      <point x="119" y="70"/>
      <point x="176" y="144" type="curve" smooth="yes"/>
      <point x="239" y="227" type="line"/>
      <point x="239" y="227"/>
      <point x="232" y="252"/>
      <point x="232" y="252" type="curve"/>
    </contour>
    <contour>
      <point x="475" y="514"/>
      <point x="452" y="513"/>
      <point x="422" y="513" type="curve" smooth="yes"/>
      <point x="390" y="513"/>
      <point x="361" y="514"/>
      <point x="325" y="516" type="curve"/>
      <point x="325" y="496" type="line"/>
      <point x="396" y="491"/>
      <point x="400" y="453"/>
      <point x="351" y="388" type="curve" smooth="yes"/>
      <point x="286" y="298" type="line"/>
      <point x="286" y="298"/>
      <point x="293" y="273"/>
      <point x="293" y="273" type="curve"/>
      <point x="406" y="423" type="line" smooth="yes"/>
      <point x="438" y="466"/>
      <point x="469" y="490"/>
      <point x="495" y="496" type="curve"/>
      <point x="495" y="516" type="line"/>
    </contour>
    <contour>
      <point x="278" y="515" type="move" name="top"/>
    </contour>
    <contour>
      <point x="272" y="0" type="move" name="bottom"/>
    </contour>
  </outline>
</glyph>
<glyph name="y" format="1">
  <advance width="511"/>
  <unicode hex="0079"/>
  <outline>
    <contour>
      <point x="483" y="514"/>
      <point x="455" y="513"/>
      <point x="426" y="513" type="curve" smooth="yes"/>
      <point x="397" y="513"/>
      <point x="370" y="514"/>
      <point x="336" y="516" type="curve"/>
      <point x="336" y="496" type="line"/>
      <point x="404" y="491"/>
      <point x="428" y="457"/>
      <point x="398" y="373" type="curve" smooth="yes"/>
      <point x="301" y="115" type="line"/>
      <point x="309" y="119" type="line"/>
      <point x="184" y="423" type="line" smooth="yes"/>
      <point x="155" y="495"/>
      <point x="195" y="495"/>
      <point x="241" y="495" type="curve"/>
      <point x="241" y="516" type="line"/>
      <point x="201" y="513"/>
      <point x="154" y="510"/>
      <point x="107" y="510" type="curve" smooth="yes"/>
      <point x="66" y="510"/>
      <point x="27" y="512"/>
      <point x="-8" y="516" type="curve"/>
      <point x="-8" y="495" type="line"/>
      <point x="7" y="495"/>
      <point x="32" y="491"/>
      <point x="57" y="439" type="curve" smooth="yes"/>
      <point x="256" y="-27" type="line"/>
      <point x="282" y="4" type="line"/>
      <point x="436" y="419" type="line" smooth="yes"/>
      <point x="455" y="473"/>
      <point x="477" y="491"/>
      <point x="502" y="496" type="curve"/>
      <point x="502" y="516" type="line"/>
    </contour>
    <contour>
      <point x="261" y="7" type="line"/>
      <point x="225" y="-90" type="line" smooth="yes"/>
      <point x="205" y="-145"/>
      <point x="175" y="-169"/>
      <point x="137" y="-169" type="curve" smooth="yes"/>
      <point x="134" y="-169"/>
      <point x="128" y="-169"/>
      <point x="124" y="-167" type="curve"/>
      <point x="146" y="-158"/>
      <point x="161" y="-138"/>
      <point x="161" y="-114" type="curve" smooth="yes"/>
      <point x="161" y="-78"/>
      <point x="135" y="-60"/>
      <point x="100" y="-60" type="curve" smooth="yes"/>
      <point x="60" y="-60"/>
      <point x="35" y="-83"/>
      <point x="35" y="-119" type="curve" smooth="yes"/>
      <point x="35" y="-166"/>
      <point x="78" y="-188"/>
      <point x="121" y="-188" type="curve" smooth="yes"/>
      <point x="151" y="-188"/>
      <point x="182" y="-181"/>
      <point x="203" y="-163" type="curve" smooth="yes"/>
      <point x="219" y="-148"/>
      <point x="233" y="-126"/>
      <point x="246" y="-92" type="curve" smooth="yes"/>
      <point x="282" y="4" type="line"/>
    </contour>
    <contour>
      <point x="256" y="515" type="move" name="top"/>
    </contour>
    <contour>
      <point x="388" y="0" type="move" name="bottom"/>
    </contour>
  </outline>
</glyph>
<glyph name="z" format="1">
  <advance width="475"/>
  <unicode hex="007A"/>
  <outline>
    <contour>
      <point x="376" y="518"/>
      <point x="304" y="516"/>
      <point x="236" y="516" type="curve" smooth="yes"/>
      <point x="173" y="516"/>
      <point x="108" y="517"/>
      <point x="48" y="520" type="curve"/>
      <point x="51" y="481"/>
      <point x="52" y="423"/>
      <point x="52" y="332" type="curve"/>
      <point x="74" y="332" type="line"/>
      <point x="84" y="456"/>
      <point x="135" y="501"/>
      <point x="220" y="501" type="curve" smooth="yes"/>
      <point x="306" y="501" type="line"/>
      <point x="35" y="-5" type="line"/>
      <point x="100" y="-2"/>
      <point x="172" y="0"/>
      <point x="239" y="0" type="curve" smooth="yes"/>
      <point x="303" y="0"/>
      <point x="368" y="-1"/>
      <point x="428" y="-4" type="curve"/>
      <point x="425" y="35"/>
      <point x="424" y="93"/>
      <point x="424" y="184" type="curve"/>
      <point x="402" y="184" type="line"/>
      <point x="392" y="59"/>
      <point x="332" y="15"/>
      <point x="254" y="15" type="curve" smooth="yes"/>
      <point x="169" y="15" type="line"/>
      <point x="441" y="521" type="line"/>
    </contour>
    <contour>
      <point x="253" y="515" type="move" name="top"/>
    </contour>
    <contour>
      <point x="241" y="0" type="move" name="bottom"/>
    </contour>
  </outline>
</glyph>
<glyph name="braceleft" format="1">
  <advance width="317"/>
  <unicode hex="007B"/>
  <outline>
    <contour>
      <point x="153" y="782"/>
      <point x="104" y="727"/>
      <point x="104" y="551" type="curve" smooth="yes"/>
      <point x="104" y="363"/>
      <point x="89" y="312"/>
      <point x="28" y="308" type="curve" smooth="yes"/>
      <point x="23" y="308" type="line"/>
      <point x="23" y="290" type="line"/>
      <point x="28" y="290" type="line" smooth="yes"/>
      <point x="89" y="285"/>
      <point x="104" y="234"/>
      <point x="104" y="47" type="curve" smooth="yes"/>
      <point x="104" y="-137"/>
      <point x="153" y="-188"/>
      <point x="295" y="-188" type="curve"/>
      <point x="295" y="-169" type="line"/>
      <point x="232" y="-168"/>
      <point x="218" y="-150"/>
      <point x="218" y="47" type="curve" smooth="yes"/>
      <point x="218" y="226"/>
      <point x="138" y="277"/>
      <point x="51" y="299" type="curve"/>
      <point x="138" y="321"/>
      <point x="218" y="371"/>
      <point x="218" y="551" type="curve" smooth="yes"/>
      <point x="218" y="740"/>
      <point x="232" y="761"/>
      <point x="295" y="763" type="curve"/>
      <point x="295" y="782" type="line"/>
    </contour>
  </outline>
</glyph>
<glyph name="bar" format="1">
  <advance width="236"/>
  <unicode hex="007C"/>
  <outline>
    <contour>
      <point x="87" y="858" type="line"/>
      <point x="87" y="-195" type="line"/>
      <point x="149" y="-195" type="line"/>
      <point x="149" y="858" type="line"/>
    </contour>
  </outline>
</glyph>
<glyph name="asciitilde" format="1">
  <advance width="658"/>
  <unicode hex="007E"/>
  <outline>
    <contour>
      <point x="141" y="376"/>
      <point x="76" y="327"/>
      <point x="68" y="248" type="curve"/>
      <point x="85" y="243" type="line"/>
      <point x="104" y="290"/>
      <point x="138" y="307"/>
      <point x="180" y="307" type="curve" smooth="yes"/>
      <point x="276" y="307"/>
      <point x="343" y="224"/>
      <point x="445" y="224" type="curve" smooth="yes"/>
      <point x="519" y="224"/>
      <point x="583" y="273"/>
      <point x="591" y="352" type="curve"/>
      <point x="574" y="357" type="line"/>
      <point x="555" y="310"/>
      <point x="521" y="293"/>
      <point x="479" y="293" type="curve" smooth="yes"/>
      <point x="383" y="293"/>
      <point x="316" y="376"/>
      <point x="214" y="376" type="curve" smooth="yes"/>
    </contour>
  </outline>
</glyph>
<glyph name="exclamdown" format="1">
  <advance width="261"/>
  <unicode hex="00A1"/>
  <outline>
    <contour>
      <point x="121" y="318" type="line"/>
      <point x="118" y="146"/>
      <point x="68" y="-27"/>
      <point x="68" y="-115" type="curve" smooth="yes"/>
      <point x="68" y="-165"/>
      <point x="95" y="-188"/>
      <point x="130" y="-188" type="curve" smooth="yes"/>
      <point x="165" y="-188"/>
      <point x="192" y="-165"/>
      <point x="192" y="-115" type="curve" smooth="yes"/>
      <point x="192" y="-26"/>
      <point x="142" y="145"/>
      <point x="139" y="318" type="curve"/>
    </contour>
    <component base="period" xOffset="1" yOffset="404"/>
  </outline>
</glyph>
<glyph name="cent" format="1">
  <advance width="485"/>
  <unicode hex="00A2"/>
  <outline>
    <contour>
      <point x="269" y="-181" type="line"/>
      <point x="269" y="24" type="line"/>
      <point x="247" y="24" type="line"/>
      <point x="247" y="-181" type="line"/>
    </contour>
    <contour>
      <point x="269" y="520" type="line"/>
      <point x="269" y="708" type="line"/>
      <point x="247" y="708" type="line"/>
      <point x="247" y="520" type="line"/>
    </contour>
    <component base="c" xOffset="-9"/>
  </outline>
</glyph>
<glyph name="sterling" format="1">
  <advance width="628"/>
  <unicode hex="00A3"/>
  <outline>
    <contour>
      <point x="190" y="736"/>
      <point x="135" y="603"/>
      <point x="135" y="439" type="curve" smooth="yes"/>
      <point x="135" y="258" type="line" smooth="yes"/>
      <point x="135" y="160"/>
      <point x="136" y="115"/>
      <point x="123" y="69" type="curve"/>
      <point x="75" y="54"/>
      <point x="34" y="18"/>
      <point x="34" y="-1" type="curve" smooth="yes"/>
      <point x="34" y="-12"/>
      <point x="43" y="-14"/>
      <point x="53" y="-14" type="curve" smooth="yes"/>
      <point x="86" y="-14"/>
      <point x="122" y="13"/>
      <point x="152" y="62" type="curve"/>
      <point x="171" y="69"/>
      <point x="189" y="72"/>
      <point x="207" y="72" type="curve" smooth="yes"/>
      <point x="225" y="72"/>
      <point x="242" y="68"/>
      <point x="256" y="64" type="curve" smooth="yes"/>
      <point x="323" y="43"/>
      <point x="386" y="-14"/>
      <point x="468" y="-14" type="curve" smooth="yes"/>
      <point x="554" y="-14"/>
      <point x="596" y="41"/>
      <point x="596" y="108" type="curve" smooth="yes"/>
      <point x="596" y="182"/>
      <point x="532" y="225"/>
      <point x="468" y="235" type="curve"/>
      <point x="464" y="219" type="line"/>
      <point x="512" y="210"/>
      <point x="544" y="182"/>
      <point x="544" y="139" type="curve" smooth="yes"/>
      <point x="544" y="108"/>
      <point x="522" y="82"/>
      <point x="476" y="82" type="curve" smooth="yes"/>
      <point x="401" y="82"/>
      <point x="349" y="121"/>
      <point x="275" y="121" type="curve" smooth="yes"/>
      <point x="239" y="121"/>
      <point x="203" y="111"/>
      <point x="161" y="82" type="curve"/>
      <point x="214" y="163"/>
      <point x="252" y="223"/>
      <point x="252" y="326" type="curve" smooth="yes"/>
      <point x="252" y="465" type="line" smooth="yes"/>
      <point x="252" y="610"/>
      <point x="261" y="720"/>
      <point x="375" y="720" type="curve" smooth="yes"/>
      <point x="403" y="720"/>
      <point x="430" y="711"/>
      <point x="436" y="700" type="curve"/>
      <point x="410" y="690"/>
      <point x="395" y="668"/>
      <point x="395" y="641" type="curve" smooth="yes"/>
      <point x="395" y="608"/>
      <point x="421" y="586"/>
      <point x="452" y="586" type="curve" smooth="yes"/>
      <point x="485" y="586"/>
      <point x="510" y="611"/>
      <point x="510" y="645" type="curve" smooth="yes"/>
      <point x="510" y="671"/>
      <point x="496" y="694"/>
      <point x="472" y="710" type="curve" smooth="yes"/>
      <point x="450" y="725"/>
      <point x="416" y="736"/>
      <point x="371" y="736" type="curve" smooth="yes"/>
    </contour>
    <contour>
      <point x="58" y="317" type="line"/>
      <point x="58" y="297" type="line"/>
      <point x="387" y="297" type="line"/>
      <point x="387" y="317" type="line"/>
    </contour>
    <contour>
      <point x="58" y="417" type="line"/>
      <point x="58" y="397" type="line"/>
      <point x="387" y="397" type="line"/>
      <point x="387" y="417" type="line"/>
    </contour>
  </outline>
</glyph>
<glyph name="currency" format="1">
  <advance width="571"/>
  <unicode hex="00A4"/>
  <outline>
    <contour>
      <point x="398" y="466" type="line"/>
      <point x="366" y="489"/>
      <point x="328" y="503"/>
      <point x="286" y="503" type="curve" smooth="yes"/>
      <point x="244" y="503"/>
      <point x="204" y="489"/>
      <point x="173" y="466" type="curve"/>
      <point x="123" y="517" type="line"/>
      <point x="70" y="464" type="line"/>
      <point x="120" y="413" type="line"/>
      <point x="97" y="381"/>
      <point x="83" y="342"/>
      <point x="83" y="300" type="curve" smooth="yes"/>
      <point x="83" y="257"/>
      <point x="97" y="219"/>
      <point x="119" y="187" type="curve"/>
      <point x="70" y="138" type="line"/>
      <point x="124" y="84" type="line"/>
      <point x="174" y="134" type="line"/>
      <point x="204" y="111"/>
      <point x="244" y="98"/>
      <point x="286" y="98" type="curve" smooth="yes"/>
      <point x="327" y="98"/>
      <point x="366" y="112"/>
      <point x="398" y="134" type="curve"/>
      <point x="449" y="84" type="line"/>
      <point x="502" y="138" type="line"/>
      <point x="451" y="188" type="line"/>
      <point x="474" y="219"/>
      <point x="487" y="257"/>
      <point x="487" y="300" type="curve" smooth="yes"/>
      <point x="487" y="342"/>
      <point x="474" y="380"/>
      <point x="452" y="412" type="curve"/>
      <point x="503" y="464" type="line"/>
      <point x="450" y="517" type="line"/>
    </contour>
    <contour>
      <point x="359" y="441"/>
      <point x="419" y="376"/>
      <point x="419" y="300" type="curve" smooth="yes"/>
      <point x="419" y="224"/>
      <point x="359" y="160"/>
      <point x="286" y="160" type="curve" smooth="yes"/>
      <point x="213" y="160"/>
      <point x="152" y="224"/>
      <point x="152" y="300" type="curve" smooth="yes"/>
      <point x="152" y="376"/>
      <point x="212" y="441"/>
      <point x="286" y="441" type="curve" smooth="yes"/>
    </contour>
  </outline>
</glyph>
<glyph name="yen" format="1">
  <advance width="661"/>
  <unicode hex="00A5"/>
  <outline>
    <contour>
      <point x="149" y="299" type="line"/>
      <point x="149" y="279" type="line"/>
      <point x="538" y="279" type="line"/>
      <point x="538" y="299" type="line"/>
    </contour>
    <contour>
      <point x="149" y="199" type="line"/>
      <point x="149" y="179" type="line"/>
      <point x="538" y="179" type="line"/>
      <point x="538" y="199" type="line"/>
    </contour>
    <component base="Y" xOffset="31"/>
  </outline>
</glyph>
<glyph name="section" format="1">
  <advance width="541"/>
  <unicode hex="00A7"/>
  <outline>
    <contour>
      <point x="165" y="782"/>
      <point x="85" y="717"/>
      <point x="85" y="620" type="curve" smooth="yes"/>
      <point x="85" y="525"/>
      <point x="160" y="471"/>
      <point x="273" y="395" type="curve" smooth="yes"/>
      <point x="366" y="333"/>
      <point x="425" y="288"/>
      <point x="425" y="225" type="curve" smooth="yes"/>
      <point x="425" y="180"/>
      <point x="403" y="144"/>
      <point x="352" y="115" type="curve"/>
      <point x="361" y="105" type="line"/>
      <point x="467" y="155"/>
      <point x="503" y="216"/>
      <point x="503" y="284" type="curve" smooth="yes"/>
      <point x="503" y="369"/>
      <point x="447" y="416"/>
      <point x="345" y="485" type="curve" smooth="yes"/>
      <point x="260" y="544"/>
      <point x="182" y="588"/>
      <point x="182" y="667" type="curve" smooth="yes"/>
      <point x="182" y="712"/>
      <point x="209" y="763"/>
      <point x="290" y="763" type="curve" smooth="yes"/>
      <point x="319" y="763"/>
      <point x="366" y="755"/>
      <point x="378" y="733" type="curve"/>
      <point x="346" y="723"/>
      <point x="332" y="698"/>
      <point x="332" y="671" type="curve" smooth="yes"/>
      <point x="332" y="635"/>
      <point x="359" y="610"/>
      <point x="396" y="610" type="curve" smooth="yes"/>
      <point x="435" y="610"/>
      <point x="458" y="639"/>
      <point x="458" y="672" type="curve" smooth="yes"/>
      <point x="458" y="711"/>
      <point x="431" y="743"/>
      <point x="386" y="763" type="curve" smooth="yes"/>
      <point x="365" y="772"/>
      <point x="332" y="782"/>
      <point x="284" y="782" type="curve" smooth="yes"/>
    </contour>
    <contour>
      <point x="73" y="440"/>
      <point x="39" y="378"/>
      <point x="39" y="310" type="curve" smooth="yes"/>
      <point x="39" y="225"/>
      <point x="94" y="178"/>
      <point x="196" y="109" type="curve" smooth="yes"/>
      <point x="282" y="50"/>
      <point x="360" y="6"/>
      <point x="360" y="-73" type="curve" smooth="yes"/>
      <point x="360" y="-118"/>
      <point x="332" y="-169"/>
      <point x="253" y="-169" type="curve" smooth="yes"/>
      <point x="222" y="-169"/>
      <point x="174" y="-161"/>
      <point x="164" y="-139" type="curve"/>
      <point x="195" y="-129"/>
      <point x="210" y="-104"/>
      <point x="210" y="-77" type="curve" smooth="yes"/>
      <point x="210" y="-41"/>
      <point x="182" y="-16"/>
      <point x="146" y="-16" type="curve" smooth="yes"/>
      <point x="107" y="-16"/>
      <point x="83" y="-45"/>
      <point x="83" y="-78" type="curve" smooth="yes"/>
      <point x="83" y="-117"/>
      <point x="111" y="-149"/>
      <point x="156" y="-169" type="curve" smooth="yes"/>
      <point x="177" y="-178"/>
      <point x="210" y="-188"/>
      <point x="257" y="-188" type="curve" smooth="yes"/>
      <point x="377" y="-188"/>
      <point x="456" y="-123"/>
      <point x="456" y="-26" type="curve" smooth="yes"/>
      <point x="456" y="69"/>
      <point x="382" y="123"/>
      <point x="269" y="199" type="curve" smooth="yes"/>
      <point x="176" y="261"/>
      <point x="117" y="306"/>
      <point x="117" y="369" type="curve" smooth="yes"/>
      <point x="117" y="414"/>
      <point x="139" y="452"/>
      <point x="190" y="479" type="curve"/>
      <point x="179" y="490" type="line"/>
    </contour>
  </outline>
</glyph>
<glyph name="copyright" format="1">
  <advance width="888"/>
  <unicode hex="00A9"/>
  <outline>
    <contour>
      <point x="224" y="782"/>
      <point x="46" y="604"/>
      <point x="46" y="384" type="curve" smooth="yes"/>
      <point x="46" y="164"/>
      <point x="224" y="-14"/>
      <point x="444" y="-14" type="curve" smooth="yes"/>
      <point x="664" y="-14"/>
      <point x="842" y="164"/>
      <point x="842" y="384" type="curve" smooth="yes"/>
      <point x="842" y="604"/>
      <point x="664" y="782"/>
      <point x="444" y="782" type="curve" smooth="yes"/>
    </contour>
    <contour>
      <point x="323" y="657"/>
      <point x="223" y="551"/>
      <point x="223" y="380" type="curve" smooth="yes"/>
      <point x="223" y="205"/>
      <point x="323" y="112"/>
      <point x="450" y="112" type="curve" smooth="yes"/>
      <point x="560" y="112"/>
      <point x="619" y="190"/>
      <point x="640" y="260" type="curve"/>
      <point x="622" y="266" type="line"/>
      <point x="584" y="187"/>
      <point x="529" y="165"/>
      <point x="483" y="165" type="curve" smooth="yes"/>
      <point x="411" y="165"/>
      <point x="344" y="222"/>
      <point x="344" y="392" type="curve" smooth="yes"/>
      <point x="344" y="515"/>
      <point x="369" y="577"/>
      <point x="405" y="607" type="curve" smooth="yes"/>
      <point x="426" y="628"/>
      <point x="452" y="636"/>
      <point x="476" y="636" type="curve" smooth="yes"/>
      <point x="510" y="636"/>
      <point x="544" y="621"/>
      <point x="557" y="602" type="curve"/>
      <point x="527" y="595"/>
      <point x="504" y="571"/>
      <point x="504" y="538" type="curve" smooth="yes"/>
      <point x="504" y="498"/>
      <point x="531" y="474"/>
      <point x="569" y="474" type="curve" smooth="yes"/>
      <point x="606" y="474"/>
      <point x="633" y="500"/>
      <point x="633" y="541" type="curve" smooth="yes"/>
      <point x="633" y="576"/>
      <point x="615" y="604"/>
      <point x="587" y="623" type="curve" smooth="yes"/>
      <point x="557" y="644"/>
      <point x="512" y="657"/>
      <point x="463" y="657" type="curve" smooth="yes"/>
    </contour>
    <contour>
      <point x="642" y="750"/>
      <point x="802" y="586"/>
      <point x="802" y="384" type="curve" smooth="yes"/>
      <point x="802" y="182"/>
      <point x="642" y="18"/>
      <point x="444" y="18" type="curve" smooth="yes"/>
      <point x="246" y="18"/>
      <point x="86" y="182"/>
      <point x="86" y="384" type="curve" smooth="yes"/>
      <point x="86" y="586"/>
      <point x="246" y="750"/>
      <point x="444" y="750" type="curve" smooth="yes"/>
    </contour>
  </outline>
</glyph>
<glyph name="ordfeminine" format="1">
  <advance width="472"/>
  <unicode hex="00AA"/>
  <outline>
    <contour>
      <point x="182" y="722"/>
      <point x="147" y="715"/>
      <point x="114" y="699" type="curve" smooth="yes"/>
      <point x="85" y="686"/>
      <point x="63" y="664"/>
      <point x="63" y="633" type="curve" smooth="yes"/>
      <point x="63" y="603"/>
      <point x="85" y="583"/>
      <point x="119" y="583" type="curve" smooth="yes"/>
      <point x="148" y="583"/>
      <point x="174" y="602"/>
      <point x="174" y="633" type="curve" smooth="yes"/>
      <point x="174" y="658"/>
      <point x="158" y="678"/>
      <point x="135" y="685" type="curve"/>
      <point x="155" y="698"/>
      <point x="180" y="703"/>
      <point x="201" y="703" type="curve" smooth="yes"/>
      <point x="242" y="703"/>
      <point x="266" y="681"/>
      <point x="266" y="621" type="curve" smooth="yes"/>
      <point x="266" y="603" type="line" smooth="yes"/>
      <point x="266" y="577"/>
      <point x="223" y="560"/>
      <point x="186" y="547" type="curve" smooth="yes"/>
      <point x="103" y="519"/>
      <point x="52" y="495"/>
      <point x="52" y="438" type="curve" smooth="yes"/>
      <point x="52" y="384"/>
      <point x="99" y="360"/>
      <point x="148" y="360" type="curve" smooth="yes"/>
      <point x="191" y="360"/>
      <point x="232" y="374"/>
      <point x="266" y="407" type="curve"/>
      <point x="268" y="378"/>
      <point x="284" y="360"/>
      <point x="336" y="360" type="curve" smooth="yes"/>
      <point x="380" y="360"/>
      <point x="412" y="376"/>
      <point x="436" y="397" type="curve"/>
      <point x="425" y="412" type="line"/>
      <point x="416" y="403"/>
      <point x="403" y="398"/>
      <point x="390" y="398" type="curve" smooth="yes"/>
      <point x="373" y="398"/>
      <point x="367" y="406"/>
      <point x="367" y="430" type="curve" smooth="yes"/>
      <point x="367" y="595" type="line" smooth="yes"/>
      <point x="367" y="684"/>
      <point x="327" y="722"/>
      <point x="232" y="722" type="curve" smooth="yes"/>
    </contour>
    <contour>
      <point x="266" y="426" type="line"/>
      <point x="247" y="410"/>
      <point x="226" y="400"/>
      <point x="204" y="400" type="curve" smooth="yes"/>
      <point x="176" y="400"/>
      <point x="157" y="423"/>
      <point x="157" y="457" type="curve" smooth="yes"/>
      <point x="157" y="490"/>
      <point x="176" y="513"/>
      <point x="217" y="535" type="curve" smooth="yes"/>
      <point x="250" y="553"/>
      <point x="261" y="562"/>
      <point x="266" y="573" type="curve"/>
    </contour>
  </outline>
</glyph>
<glyph name="guillemotleft" format="1">
  <advance width="532"/>
  <unicode hex="00AB"/>
  <outline>
    <contour>
      <point x="214" y="415"/>
      <point x="138" y="325"/>
      <point x="29" y="261" type="curve"/>
      <point x="29" y="255" type="line"/>
      <point x="138" y="191"/>
      <point x="214" y="101"/>
      <point x="280" y="-15" type="curve"/>
      <point x="296" y="-8" type="line"/>
      <point x="255" y="110"/>
      <point x="200" y="202"/>
      <point x="137" y="260" type="curve"/>
      <point x="200" y="319"/>
      <point x="255" y="406"/>
      <point x="296" y="524" type="curve"/>
      <point x="280" y="531" type="line"/>
    </contour>
    <contour>
      <point x="404" y="408"/>
      <point x="331" y="322"/>
      <point x="226" y="261" type="curve"/>
      <point x="226" y="255" type="line"/>
      <point x="331" y="194"/>
      <point x="404" y="108"/>
      <point x="466" y="-4" type="curve"/>
      <point x="482" y="2" type="line"/>
      <point x="442" y="118"/>
      <point x="390" y="204"/>
      <point x="331" y="260" type="curve"/>
      <point x="390" y="316"/>
      <point x="442" y="398"/>
      <point x="482" y="514" type="curve"/>
      <point x="466" y="520" type="line"/>
    </contour>
  </outline>
</glyph>
<glyph name="logicalnot" format="1">
  <advance width="650"/>
  <unicode hex="00AC"/>
  <outline>
    <contour>
      <point x="78" y="370" type="line"/>
      <point x="78" y="340" type="line"/>
      <point x="543" y="340" type="line"/>
      <point x="543" y="165" type="line"/>
      <point x="579" y="165" type="line"/>
      <point x="579" y="370" type="line"/>
    </contour>
  </outline>
</glyph>
<glyph name="registered" format="1">
  <advance width="672"/>
  <unicode hex="00AE"/>
  <outline>
    <contour>
      <point x="182" y="782"/>
      <point x="57" y="657"/>
      <point x="57" y="503" type="curve" smooth="yes"/>
      <point x="57" y="349"/>
      <point x="182" y="224"/>
      <point x="336" y="224" type="curve" smooth="yes"/>
      <point x="490" y="224"/>
      <point x="615" y="349"/>
      <point x="615" y="503" type="curve" smooth="yes"/>
      <point x="615" y="657"/>
      <point x="490" y="782"/>
      <point x="336" y="782" type="curve" smooth="yes"/>
    </contour>
    <contour>
      <point x="270" y="506" type="line"/>
      <point x="357" y="506"/>
      <point x="366" y="500"/>
      <point x="375" y="460" type="curve" smooth="yes"/>
      <point x="390" y="387" type="line" smooth="yes"/>
      <point x="397" y="358"/>
      <point x="413" y="345"/>
      <point x="452" y="345" type="curve" smooth="yes"/>
      <point x="475" y="345"/>
      <point x="490" y="350"/>
      <point x="499" y="365" type="curve"/>
      <point x="490" y="373" type="line"/>
      <point x="487" y="368"/>
      <point x="483" y="366"/>
      <point x="479" y="366" type="curve" smooth="yes"/>
      <point x="467" y="366"/>
      <point x="465" y="379"/>
      <point x="462" y="395" type="curve" smooth="yes"/>
      <point x="449" y="455" type="line" smooth="yes"/>
      <point x="442" y="491"/>
      <point x="423" y="509"/>
      <point x="357" y="514" type="curve"/>
      <point x="334" y="518"/>
      <point x="335" y="521"/>
      <point x="268" y="521" type="curve"/>
    </contour>
    <contour>
      <point x="468" y="750"/>
      <point x="573" y="638"/>
      <point x="573" y="503" type="curve" smooth="yes"/>
      <point x="573" y="368"/>
      <point x="468" y="256"/>
      <point x="336" y="256" type="curve" smooth="yes"/>
      <point x="204" y="256"/>
      <point x="99" y="368"/>
      <point x="99" y="503" type="curve" smooth="yes"/>
      <point x="99" y="638"/>
      <point x="204" y="750"/>
      <point x="336" y="750" type="curve" smooth="yes"/>
    </contour>
    <contour>
      <point x="332" y="676"/>
      <point x="297" y="675"/>
      <point x="260" y="675" type="curve" smooth="yes"/>
      <point x="241" y="675"/>
      <point x="219" y="675"/>
      <point x="206" y="676" type="curve"/>
      <point x="206" y="661" type="line"/>
      <point x="225" y="659"/>
      <point x="229" y="655"/>
      <point x="229" y="623" type="curve" smooth="yes"/>
      <point x="229" y="404" type="line" smooth="yes"/>
      <point x="229" y="373"/>
      <point x="225" y="369"/>
      <point x="206" y="367" type="curve"/>
      <point x="206" y="352" type="line"/>
      <point x="219" y="352"/>
      <point x="241" y="353"/>
      <point x="264" y="353" type="curve" smooth="yes"/>
      <point x="285" y="353"/>
      <point x="306" y="352"/>
      <point x="321" y="352" type="curve"/>
      <point x="321" y="367" type="line"/>
      <point x="302" y="369"/>
      <point x="298" y="373"/>
      <point x="298" y="404" type="curve" smooth="yes"/>
      <point x="298" y="630" type="line" smooth="yes"/>
      <point x="298" y="655"/>
      <point x="303" y="661"/>
      <point x="330" y="661" type="curve" smooth="yes"/>
      <point x="376" y="661"/>
      <point x="393" y="637"/>
      <point x="393" y="589" type="curve" smooth="yes"/>
      <point x="393" y="550"/>
      <point x="378" y="522"/>
      <point x="316" y="522" type="curve" smooth="yes"/>
      <point x="263" y="522" type="line"/>
      <point x="263" y="522"/>
      <point x="263" y="506"/>
      <point x="263" y="506" type="curve"/>
      <point x="323" y="509" type="line" smooth="yes"/>
      <point x="440" y="515"/>
      <point x="465" y="560"/>
      <point x="465" y="597" type="curve" smooth="yes"/>
      <point x="465" y="647"/>
      <point x="427" y="676"/>
      <point x="346" y="676" type="curve" smooth="yes"/>
    </contour>
  </outline>
</glyph>
<glyph name="degree" format="1">
  <advance width="323"/>
  <unicode hex="00B0"/>
  <outline>
    <contour>
      <point x="97" y="820"/>
      <point x="40" y="774"/>
      <point x="40" y="700" type="curve" smooth="yes"/>
      <point x="40" y="625"/>
      <point x="97" y="579"/>
      <point x="161" y="579" type="curve" smooth="yes"/>
      <point x="226" y="579"/>
      <point x="283" y="625"/>
      <point x="283" y="700" type="curve" smooth="yes"/>
      <point x="283" y="774"/>
      <point x="226" y="820"/>
      <point x="161" y="820" type="curve" smooth="yes"/>
    </contour>
    <contour>
      <point x="206" y="803"/>
      <point x="258" y="767"/>
      <point x="258" y="699" type="curve" smooth="yes"/>
      <point x="258" y="629"/>
      <point x="206" y="596"/>
      <point x="161" y="596" type="curve" smooth="yes"/>
      <point x="116" y="596"/>
      <point x="65" y="629"/>
      <point x="65" y="699" type="curve" smooth="yes"/>
      <point x="65" y="767"/>
      <point x="116" y="803"/>
      <point x="161" y="803" type="curve" smooth="yes"/>
    </contour>
  </outline>
</glyph>
<glyph name="uni00B2" format="1">
  <advance width="344"/>
  <unicode hex="00B2"/>
  <outline>
    <contour>
      <point x="102" y="755"/>
      <point x="58" y="716"/>
      <point x="35" y="675" type="curve"/>
      <point x="50" y="667" type="line"/>
      <point x="73" y="703"/>
      <point x="104" y="718"/>
      <point x="142" y="718" type="curve" smooth="yes"/>
      <point x="182" y="718"/>
      <point x="205" y="701"/>
      <point x="205" y="665" type="curve" smooth="yes"/>
      <point x="205" y="571"/>
      <point x="89" y="508"/>
      <point x="31" y="458" type="curve"/>
      <point x="31" y="438" type="line"/>
      <point x="262" y="438" type="line" smooth="yes"/>
      <point x="275" y="438"/>
      <point x="288" y="438"/>
      <point x="300" y="435" type="curve"/>
      <point x="301" y="463"/>
      <point x="306" y="495"/>
      <point x="315" y="534" type="curve"/>
      <point x="298" y="537" type="line"/>
      <point x="289" y="515"/>
      <point x="283" y="503"/>
      <point x="251" y="503" type="curve" smooth="yes"/>
      <point x="118" y="503" type="line"/>
      <point x="178" y="560"/>
      <point x="281" y="602"/>
      <point x="281" y="680" type="curve" smooth="yes"/>
      <point x="281" y="731"/>
      <point x="237" y="755"/>
      <point x="176" y="755" type="curve" smooth="yes"/>
    </contour>
  </outline>
</glyph>
<glyph name="paragraph" format="1">
  <advance width="684"/>
  <unicode hex="00B6"/>
  <outline>
    <contour>
      <point x="171" y="709"/>
      <point x="34" y="564"/>
      <point x="34" y="360" type="curve" smooth="yes"/>
      <point x="34" y="147"/>
      <point x="142" y="-13"/>
      <point x="446" y="-13" type="curve"/>
      <point x="446" y="-65" type="line" smooth="yes"/>
      <point x="446" y="-136"/>
      <point x="429" y="-158"/>
      <point x="345" y="-161" type="curve"/>
      <point x="345" y="-181" type="line"/>
      <point x="378" y="-179"/>
      <point x="436" y="-178"/>
      <point x="499" y="-178" type="curve" smooth="yes"/>
      <point x="553" y="-178"/>
      <point x="612" y="-179"/>
      <point x="647" y="-181" type="curve"/>
      <point x="647" y="-161" type="line"/>
      <point x="581" y="-158"/>
      <point x="569" y="-148"/>
      <point x="569" y="-75" type="curve" smooth="yes"/>
      <point x="569" y="621" type="line" smooth="yes"/>
      <point x="569" y="665"/>
      <point x="580" y="686"/>
      <point x="643" y="689" type="curve"/>
      <point x="643" y="708" type="line"/>
      <point x="569" y="702"/>
      <point x="494" y="709"/>
      <point x="405" y="709" type="curve" smooth="yes"/>
    </contour>
    <contour>
      <point x="447" y="652"/>
      <point x="447" y="48"/>
      <point x="447" y="48" type="curve" smooth="yes"/>
      <point x="440" y="48"/>
      <point x="413" y="173"/>
      <point x="411" y="334" type="curve"/>
      <point x="252" y="334"/>
      <point x="123" y="346"/>
      <point x="123" y="351" type="curve" smooth="yes"/>
      <point x="123" y="355"/>
      <point x="252" y="369"/>
      <point x="411" y="369" type="curve"/>
      <point x="413" y="524"/>
      <point x="440" y="656"/>
      <point x="447" y="656" type="curve"/>
    </contour>
  </outline>
</glyph>
<glyph name="ordmasculine" format="1">
  <advance width="460"/>
  <unicode hex="00BA"/>
  <outline>
    <contour>
      <point x="133" y="722"/>
      <point x="45" y="660"/>
      <point x="45" y="541" type="curve" smooth="yes"/>
      <point x="45" y="422"/>
      <point x="133" y="360"/>
      <point x="230" y="360" type="curve" smooth="yes"/>
      <point x="328" y="360"/>
      <point x="415" y="422"/>
      <point x="415" y="541" type="curve" smooth="yes"/>
      <point x="415" y="660"/>
      <point x="328" y="722"/>
      <point x="230" y="722" type="curve" smooth="yes"/>
    </contour>
    <contour>
      <point x="274" y="704"/>
      <point x="310" y="657"/>
      <point x="310" y="541" type="curve" smooth="yes"/>
      <point x="310" y="425"/>
      <point x="274" y="378"/>
      <point x="230" y="378" type="curve" smooth="yes"/>
      <point x="186" y="378"/>
      <point x="151" y="425"/>
      <point x="151" y="541" type="curve" smooth="yes"/>
      <point x="151" y="657"/>
      <point x="186" y="704"/>
      <point x="230" y="704" type="curve" smooth="yes"/>
    </contour>
  </outline>
</glyph>
<glyph name="guillemotright" format="1">
  <advance width="531"/>
  <unicode hex="00BB"/>
  <outline>
    <contour>
      <point x="236" y="524" type="line"/>
      <point x="277" y="405"/>
      <point x="332" y="313"/>
      <point x="394" y="255" type="curve"/>
      <point x="332" y="196"/>
      <point x="277" y="109"/>
      <point x="236" y="-9" type="curve"/>
      <point x="252" y="-15" type="line"/>
      <point x="317" y="101"/>
      <point x="394" y="190"/>
      <point x="503" y="254" type="curve"/>
      <point x="503" y="260" type="line"/>
      <point x="394" y="324"/>
      <point x="317" y="414"/>
      <point x="252" y="530" type="curve"/>
    </contour>
    <contour>
      <point x="50" y="513" type="line"/>
      <point x="90" y="398"/>
      <point x="141" y="311"/>
      <point x="201" y="255" type="curve"/>
      <point x="141" y="199"/>
      <point x="90" y="117"/>
      <point x="50" y="2" type="curve"/>
      <point x="66" y="-5" type="line"/>
      <point x="128" y="107"/>
      <point x="201" y="193"/>
      <point x="306" y="254" type="curve"/>
      <point x="306" y="260" type="line"/>
      <point x="201" y="321"/>
      <point x="128" y="408"/>
      <point x="66" y="519" type="curve"/>
    </contour>
  </outline>
</glyph>
<glyph name="questiondown" format="1">
  <advance width="475"/>
  <unicode hex="00BF"/>
  <outline>
    <contour>
      <point x="268" y="321" type="line"/>
      <point x="268" y="194" type="line"/>
      <point x="126" y="163"/>
      <point x="30" y="91"/>
      <point x="30" y="-15" type="curve" smooth="yes"/>
      <point x="30" y="-123"/>
      <point x="120" y="-188"/>
      <point x="253" y="-188" type="curve" smooth="yes"/>
      <point x="321" y="-188"/>
      <point x="366" y="-174"/>
      <point x="395" y="-157" type="curve" smooth="yes"/>
      <point x="426" y="-140"/>
      <point x="447" y="-115"/>
      <point x="447" y="-81" type="curve" smooth="yes"/>
      <point x="447" y="-47"/>
      <point x="422" y="-21"/>
      <point x="386" y="-21" type="curve" smooth="yes"/>
      <point x="348" y="-21"/>
      <point x="320" y="-46"/>
      <point x="320" y="-83" type="curve" smooth="yes"/>
      <point x="320" y="-116"/>
      <point x="338" y="-136"/>
      <point x="368" y="-144" type="curve"/>
      <point x="348" y="-162"/>
      <point x="309" y="-168"/>
      <point x="275" y="-168" type="curve" smooth="yes"/>
      <point x="197" y="-168"/>
      <point x="143" y="-119"/>
      <point x="143" y="-2" type="curve" smooth="yes"/>
      <point x="143" y="73"/>
      <point x="164" y="138"/>
      <point x="288" y="185" type="curve"/>
      <point x="288" y="321" type="line"/>
    </contour>
    <component base="period" xOffset="148" yOffset="405"/>
  </outline>
</glyph>
<glyph name="AE" format="1">
  <advance width="869"/>
  <unicode hex="00C6"/>
  <outline>
    <contour>
      <point x="469" y="772" type="line"/>
      <point x="57" y="84" type="line" smooth="yes"/>
      <point x="29" y="37"/>
      <point x="9" y="21"/>
      <point x="-12" y="20" type="curve"/>
      <point x="-12" y="0" type="line"/>
      <point x="5" y="2"/>
      <point x="32" y="3"/>
      <point x="55" y="3" type="curve" smooth="yes"/>
      <point x="91" y="3"/>
      <point x="126" y="2"/>
      <point x="146" y="0" type="curve"/>
      <point x="146" y="20" type="line"/>
      <point x="78" y="23"/>
      <point x="58" y="42"/>
      <point x="95" y="104" type="curve" smooth="yes"/>
      <point x="493" y="772" type="line"/>
    </contour>
    <contour>
      <point x="745" y="705"/>
      <point x="665" y="705"/>
      <point x="608" y="705" type="curve" smooth="yes"/>
      <point x="551" y="705"/>
      <point x="426" y="705"/>
      <point x="332" y="708" type="curve"/>
      <point x="332" y="688" type="line"/>
      <point x="398" y="685"/>
      <point x="411" y="675"/>
      <point x="411" y="602" type="curve" smooth="yes"/>
      <point x="411" y="106" type="line" smooth="yes"/>
      <point x="411" y="33"/>
      <point x="402" y="23"/>
      <point x="347" y="20" type="curve"/>
      <point x="347" y="0" type="line"/>
      <point x="437" y="3"/>
      <point x="554" y="3"/>
      <point x="608" y="3" type="curve" smooth="yes"/>
      <point x="671" y="3"/>
      <point x="759" y="3"/>
      <point x="823" y="0" type="curve"/>
      <point x="817" y="53"/>
      <point x="816" y="107"/>
      <point x="816" y="133" type="curve" smooth="yes"/>
      <point x="816" y="163"/>
      <point x="817" y="191"/>
      <point x="819" y="211" type="curve"/>
      <point x="796" y="211" type="line"/>
      <point x="783" y="70"/>
      <point x="759" y="23"/>
      <point x="674" y="23" type="curve" smooth="yes"/>
      <point x="611" y="23" type="line" smooth="yes"/>
      <point x="546" y="23"/>
      <point x="533" y="33"/>
      <point x="533" y="106" type="curve" smooth="yes"/>
      <point x="533" y="602" type="line" smooth="yes"/>
      <point x="533" y="675"/>
      <point x="546" y="685"/>
      <point x="611" y="685" type="curve" smooth="yes"/>
      <point x="661" y="685" type="line" smooth="yes"/>
      <point x="738" y="685"/>
      <point x="763" y="644"/>
      <point x="776" y="517" type="curve"/>
      <point x="799" y="517" type="line"/>
      <point x="797" y="533"/>
      <point x="796" y="557"/>
      <point x="796" y="582" type="curve" smooth="yes"/>
      <point x="796" y="607"/>
      <point x="798" y="658"/>
      <point x="803" y="708" type="curve"/>
    </contour>
    <contour>
      <point x="237" y="366" type="line"/>
      <point x="227" y="346" type="line"/>
      <point x="444" y="346" type="line"/>
      <point x="444" y="366" type="line"/>
    </contour>
    <contour>
      <point x="503" y="366" type="line"/>
      <point x="503" y="366"/>
      <point x="503" y="346"/>
      <point x="503" y="346" type="curve"/>
      <point x="670" y="346" type="line"/>
      <point x="670" y="346"/>
      <point x="670" y="366"/>
      <point x="670" y="366" type="curve"/>
    </contour>
    <contour>
      <point x="676" y="481" type="line"/>
      <point x="669" y="440"/>
      <point x="667" y="366"/>
      <point x="597" y="366" type="curve"/>
      <point x="597" y="346" type="line"/>
      <point x="666" y="346"/>
      <point x="672" y="287"/>
      <point x="679" y="231" type="curve"/>
      <point x="702" y="231" type="line"/>
      <point x="697" y="299"/>
      <point x="696" y="326"/>
      <point x="696" y="356" type="curve" smooth="yes"/>
      <point x="696" y="386"/>
      <point x="694" y="413"/>
      <point x="699" y="481" type="curve"/>
    </contour>
    <contour>
      <point x="437" y="708" type="move" name="top"/>
    </contour>
    <contour>
      <point x="418" y="0" type="move" name="bottom"/>
    </contour>
  </outline>
</glyph>
<glyph name="multiply" format="1">
  <advance width="503"/>
  <unicode hex="00D7"/>
  <outline>
    <contour>
      <point x="55" y="530" type="line"/>
      <point x="230" y="355" type="line"/>
      <point x="56" y="182" type="line"/>
      <point x="78" y="160" type="line"/>
      <point x="252" y="334" type="line"/>
      <point x="425" y="161" type="line"/>
      <point x="447" y="183" type="line"/>
      <point x="274" y="356" type="line"/>
      <point x="447" y="528" type="line"/>
      <point x="425" y="550" type="line"/>
      <point x="252" y="377" type="line"/>
      <point x="77" y="552" type="line"/>
    </contour>
  </outline>
</glyph>
<glyph name="Oslash" format="1">
  <advance width="764"/>
  <unicode hex="00D8"/>
  <outline>
    <contour>
      <point x="187" y="722"/>
      <point x="48" y="572"/>
      <point x="48" y="348" type="curve" smooth="yes"/>
      <point x="48" y="119"/>
      <point x="182" y="-14"/>
      <point x="381" y="-14" type="curve" smooth="yes"/>
      <point x="577" y="-14"/>
      <point x="715" y="136"/>
      <point x="715" y="360" type="curve" smooth="yes"/>
      <point x="715" y="589"/>
      <point x="582" y="722"/>
      <point x="382" y="722" type="curve" smooth="yes"/>
    </contour>
    <contour>
      <point x="494" y="704"/>
      <point x="586" y="569"/>
      <point x="586" y="356" type="curve" smooth="yes"/>
      <point x="586" y="149"/>
      <point x="507" y="4"/>
      <point x="385" y="4" type="curve" smooth="yes"/>
      <point x="270" y="4"/>
      <point x="178" y="139"/>
      <point x="178" y="352" type="curve" smooth="yes"/>
      <point x="178" y="559"/>
      <point x="256" y="704"/>
      <point x="378" y="704" type="curve" smooth="yes"/>
    </contour>
    <contour>
      <point x="198" y="94" type="line"/>
      <point x="216" y="76" type="line"/>
      <point x="563" y="614" type="line"/>
      <point x="548" y="634" type="line"/>
    </contour>
    <contour>
      <point x="80" y="-62" type="line"/>
      <point x="101" y="-76" type="line"/>
      <point x="206" y="76" type="line"/>
      <point x="188" y="94" type="line"/>
    </contour>
    <contour>
      <point x="555" y="634" type="line"/>
      <point x="570" y="614" type="line"/>
      <point x="671" y="763" type="line"/>
      <point x="652" y="776" type="line"/>
    </contour>
    <contour>
      <point x="380" y="708" type="move" name="top"/>
    </contour>
    <contour>
      <point x="383" y="0" type="move" name="bottom"/>
    </contour>
  </outline>
</glyph>
<glyph name="Thorn" format="1">
  <advance width="598"/>
  <unicode hex="00DE"/>
  <outline>
    <contour>
      <point x="291" y="563"/>
      <point x="227" y="561"/>
      <point x="164" y="561" type="curve"/>
      <point x="166" y="542" type="line"/>
      <point x="188" y="542"/>
      <point x="248" y="544"/>
      <point x="290" y="544" type="curve" smooth="yes"/>
      <point x="402" y="544"/>
      <point x="443" y="481"/>
      <point x="443" y="362" type="curve" smooth="yes"/>
      <point x="443" y="255"/>
      <point x="414" y="162"/>
      <point x="283" y="162" type="curve" smooth="yes"/>
      <point x="197" y="162" type="line"/>
      <point x="197" y="162"/>
      <point x="197" y="142"/>
      <point x="197" y="142" type="curve"/>
      <point x="293" y="142" type="line" smooth="yes"/>
      <point x="513" y="142"/>
      <point x="572" y="263"/>
      <point x="572" y="369" type="curve" smooth="yes"/>
      <point x="572" y="484"/>
      <point x="487" y="563"/>
      <point x="315" y="563" type="curve" smooth="yes"/>
    </contour>
    <component base="I"/>
  </outline>
</glyph>
<glyph name="germandbls" format="1">
  <advance width="616"/>
  <unicode hex="00DF"/>
  <outline>
    <contour>
      <point x="176" y="782"/>
      <point x="91" y="709"/>
      <point x="91" y="531" type="curve" smooth="yes"/>
      <point x="91" y="105" type="line" smooth="yes"/>
      <point x="91" y="46"/>
      <point x="74" y="21"/>
      <point x="20" y="21" type="curve"/>
      <point x="20" y="0" type="line"/>
      <point x="48" y="2"/>
      <point x="69" y="3"/>
      <point x="92" y="3" type="curve" smooth="yes"/>
      <point x="134" y="3"/>
      <point x="173" y="-2"/>
      <point x="205" y="-11" type="curve"/>
      <point x="205" y="600" type="line" smooth="yes"/>
      <point x="205" y="736"/>
      <point x="249" y="767"/>
      <point x="297" y="767" type="curve" smooth="yes"/>
      <point x="358" y="767"/>
      <point x="391" y="719"/>
      <point x="391" y="630" type="curve" smooth="yes"/>
      <point x="391" y="544"/>
      <point x="367" y="487"/>
      <point x="300" y="437" type="curve"/>
      <point x="289" y="441"/>
      <point x="275" y="444"/>
      <point x="265" y="444" type="curve" smooth="yes"/>
      <point x="251" y="444"/>
      <point x="243" y="437"/>
      <point x="243" y="426" type="curve" smooth="yes"/>
      <point x="243" y="415"/>
      <point x="253" y="409"/>
      <point x="263" y="409" type="curve" smooth="yes"/>
      <point x="274" y="409"/>
      <point x="287" y="416"/>
      <point x="299" y="423" type="curve"/>
      <point x="399" y="390"/>
      <point x="466" y="291"/>
      <point x="466" y="160" type="curve" smooth="yes"/>
      <point x="466" y="50"/>
      <point x="419" y="2"/>
      <point x="367" y="2" type="curve" smooth="yes"/>
      <point x="344" y="2"/>
      <point x="326" y="11"/>
      <point x="321" y="21" type="curve"/>
      <point x="352" y="32"/>
      <point x="372" y="55"/>
      <point x="372" y="87" type="curve" smooth="yes"/>
      <point x="372" y="123"/>
      <point x="347" y="145"/>
      <point x="312" y="145" type="curve" smooth="yes"/>
      <point x="274" y="145"/>
      <point x="252" y="118"/>
      <point x="252" y="79" type="curve" smooth="yes"/>
      <point x="252" y="12"/>
      <point x="319" y="-14"/>
      <point x="382" y="-14" type="curve" smooth="yes"/>
      <point x="486" y="-14"/>
      <point x="581" y="56"/>
      <point x="581" y="177" type="curve" smooth="yes"/>
      <point x="581" y="307"/>
      <point x="469" y="405"/>
      <point x="314" y="433" type="curve"/>
      <point x="390" y="456"/>
      <point x="502" y="534"/>
      <point x="502" y="637" type="curve" smooth="yes"/>
      <point x="502" y="724"/>
      <point x="435" y="782"/>
      <point x="310" y="782" type="curve" smooth="yes"/>
    </contour>
  </outline>
</glyph>
<glyph name="ae" format="1">
  <advance width="743"/>
  <unicode hex="00E6"/>
  <outline>
    <contour>
      <point x="221" y="-7"/>
      <point x="285" y="13"/>
      <point x="341" y="121" type="curve"/>
      <point x="424" y="348" type="line"/>
      <point x="424" y="413"/>
      <point x="418" y="458"/>
      <point x="386" y="490" type="curve" smooth="yes"/>
      <point x="356" y="518"/>
      <point x="314" y="530"/>
      <point x="256" y="530" type="curve" smooth="yes"/>
      <point x="194" y="530"/>
      <point x="142" y="514"/>
      <point x="109" y="493" type="curve" smooth="yes"/>
      <point x="78" y="473"/>
      <point x="59" y="451"/>
      <point x="59" y="416" type="curve" smooth="yes"/>
      <point x="59" y="380"/>
      <point x="79" y="348"/>
      <point x="122" y="348" type="curve" smooth="yes"/>
      <point x="160" y="348"/>
      <point x="189" y="372"/>
      <point x="189" y="411" type="curve" smooth="yes"/>
      <point x="189" y="445"/>
      <point x="168" y="470"/>
      <point x="137" y="479" type="curve"/>
      <point x="158" y="503"/>
      <point x="194" y="510"/>
      <point x="224" y="510" type="curve" smooth="yes"/>
      <point x="278" y="510"/>
      <point x="311" y="484"/>
      <point x="311" y="414" type="curve" smooth="yes"/>
      <point x="311" y="345" type="line" smooth="yes"/>
      <point x="311" y="252"/>
      <point x="34" y="281"/>
      <point x="34" y="113" type="curve" smooth="yes"/>
      <point x="34" y="43"/>
      <point x="72" y="-7"/>
      <point x="160" y="-7" type="curve" smooth="yes"/>
    </contour>
    <contour>
      <point x="177" y="44"/>
      <point x="146" y="70"/>
      <point x="146" y="130" type="curve" smooth="yes"/>
      <point x="146" y="250"/>
      <point x="275" y="249"/>
      <point x="313" y="306" type="curve"/>
      <point x="319" y="117" type="line"/>
      <point x="288" y="63"/>
      <point x="254" y="44"/>
      <point x="218" y="44" type="curve" smooth="yes"/>
    </contour>
    <contour>
      <point x="619" y="-14"/>
      <point x="678" y="59"/>
      <point x="699" y="130" type="curve"/>
      <point x="679" y="137" type="line"/>
      <point x="646" y="66"/>
      <point x="602" y="46"/>
      <point x="557" y="46" type="curve" smooth="yes"/>
      <point x="491" y="46"/>
      <point x="425" y="114"/>
      <point x="425" y="252" type="curve" smooth="yes"/>
      <point x="425" y="274"/>
      <point x="426" y="296"/>
      <point x="429" y="314" type="curve"/>
      <point x="425" y="319" type="line"/>
      <point x="432" y="453"/>
      <point x="473" y="510"/>
      <point x="522" y="510" type="curve" smooth="yes"/>
      <point x="574" y="510"/>
      <point x="598" y="426"/>
      <point x="595" y="328" type="curve"/>
      <point x="388" y="328" type="line"/>
      <point x="390" y="309" type="line"/>
      <point x="705" y="309" type="line"/>
      <point x="705" y="463"/>
      <point x="638" y="530"/>
      <point x="527" y="530" type="curve" smooth="yes"/>
      <point x="392" y="530"/>
      <point x="313" y="426"/>
      <point x="313" y="249" type="curve" smooth="yes"/>
      <point x="313" y="75"/>
      <point x="393" y="-14"/>
      <point x="523" y="-14" type="curve" smooth="yes"/>
    </contour>
    <contour>
      <point x="589" y="0" type="move" name="ogonek"/>
    </contour>
    <contour>
      <point x="379" y="0" type="move" name="bottom"/>
    </contour>
    <contour>
      <point x="374" y="515" type="move" name="top"/>
    </contour>
  </outline>
</glyph>
